<svg width="16" height="16" viewBox="0 0 16 16" fill="none" xmlns="http://www.w3.org/2000/svg">
<path d="M1.75532 0.219727H0.252427C0.12601 0.219727 0.0235291 0.321869 0.0235291 0.447869V1.94581C0.0235291 2.07181 0.12601 2.17395 0.252427 2.17395H1.75532C1.88174 2.17395 1.98422 2.07181 1.98422 1.94581V0.447869C1.98422 0.321869 1.88174 0.219727 1.75532 0.219727Z" fill="#E2FF6F"/>
<path d="M4.46661 0.219727H3.00438C2.87788 0.219727 2.77548 0.32179 2.77548 0.447869V1.94581C2.77548 2.07188 2.87788 2.17395 3.00438 2.17395H4.46661C4.6157 2.17395 4.73617 2.05387 4.73617 1.90528V0.489895C4.73617 0.341302 4.6157 0.221227 4.46661 0.221227V0.219727Z" fill="#E2FF6F"/>
<path d="M7.25532 0.219727H5.75243C5.62601 0.219727 5.52353 0.321869 5.52353 0.447869V1.94581C5.52353 2.07181 5.62601 2.17395 5.75243 2.17395H7.25532C7.38174 2.17395 7.48422 2.07181 7.48422 1.94581V0.447869C7.48422 0.321869 7.38174 0.219727 7.25532 0.219727Z" fill="#E2FF6F"/>
<path d="M10.0074 0.219727H8.5045C8.37809 0.219727 8.2756 0.321869 8.2756 0.447869V1.94581C8.2756 2.07181 8.37809 2.17395 8.5045 2.17395H10.0074C10.1338 2.17395 10.2363 2.07181 10.2363 1.94581V0.447869C10.2363 0.321869 10.1338 0.219727 10.0074 0.219727Z" fill="#E2FF6F"/>
<path d="M12.767 2.94434H11.2641C11.1377 2.94434 11.0352 3.04648 11.0352 3.17248V4.67041C11.0352 4.79641 11.1377 4.89856 11.2641 4.89856H12.767C12.8935 4.89856 12.9959 4.79641 12.9959 4.67041V3.17248C12.9959 3.04648 12.8935 2.94434 12.767 2.94434Z" fill="#E2FF6F"/>
<path d="M10.0073 2.94434H8.50438C8.37796 2.94434 8.27548 3.04648 8.27548 3.17248V4.67041C8.27548 4.79641 8.37796 4.89856 8.50438 4.89856H10.0073C10.1337 4.89856 10.2362 4.79641 10.2362 4.67041V3.17248C10.2362 3.04648 10.1337 2.94434 10.0073 2.94434Z" fill="#E2FF6F"/>
<path d="M7.25532 2.94434H5.75243C5.62601 2.94434 5.52353 3.04648 5.52353 3.17248V4.67041C5.52353 4.79641 5.62601 4.89856 5.75243 4.89856H7.25532C7.38174 4.89856 7.48422 4.79641 7.48422 4.67041V3.17248C7.48422 3.04648 7.38174 2.94434 7.25532 2.94434Z" fill="#E2FF6F"/>
<path d="M4.50727 2.94388H3.04504C2.89595 2.94388 2.77548 3.06396 2.77548 3.21255V4.62794C2.77548 4.77653 2.89595 4.8966 3.04504 4.8966H4.50727C4.63377 4.8966 4.73617 4.79454 4.73617 4.66846V3.17053C4.73617 3.04445 4.63377 2.94238 4.50727 2.94238V2.94388Z" fill="#E2FF6F"/>
<path d="M1.75532 2.94434H0.252427C0.12601 2.94434 0.0235291 3.04648 0.0235291 3.17248V4.67041C0.0235291 4.79641 0.12601 4.89856 0.252427 4.89856H1.75532C1.88174 4.89856 1.98422 4.79641 1.98422 4.67041V3.17248C1.98422 3.04648 1.88174 2.94434 1.75532 2.94434Z" fill="#E2FF6F"/>
<path d="M1.71452 5.66797H0.292949C0.144077 5.66797 0.0233917 5.78826 0.0233917 5.93664V7.35352C0.0233917 7.5019 0.144077 7.62219 0.292949 7.62219H1.71452C1.8634 7.62219 1.98408 7.5019 1.98408 7.35352V5.93664C1.98408 5.78826 1.8634 5.66797 1.71452 5.66797Z" fill="#E2FF6F"/>
<path d="M4.50727 5.66849H3.04504C2.89595 5.66849 2.77548 5.78857 2.77548 5.93716V7.35255C2.77548 7.50114 2.89595 7.62121 3.04504 7.62121H4.50727C4.63377 7.62121 4.73617 7.51915 4.73617 7.39307V5.89513C4.73617 5.76906 4.63377 5.66699 4.50727 5.66699V5.66849Z" fill="#E2FF6F"/>
<path d="M7.25532 5.66797H5.75243C5.62601 5.66797 5.52353 5.77011 5.52353 5.89611V7.39405C5.52353 7.52005 5.62601 7.62219 5.75243 7.62219H7.25532C7.38174 7.62219 7.48422 7.52005 7.48422 7.39405V5.89611C7.48422 5.77011 7.38174 5.66797 7.25532 5.66797Z" fill="#E2FF6F"/>
<path d="M10.0074 5.66797H8.5045C8.37809 5.66797 8.2756 5.77011 8.2756 5.89611V7.39405C8.2756 7.52005 8.37809 7.62219 8.5045 7.62219H10.0074C10.1338 7.62219 10.2363 7.52005 10.2363 7.39405V5.89611C10.2363 5.77011 10.1338 5.66797 10.0074 5.66797Z" fill="#E2FF6F"/>
<path d="M12.767 5.66797H11.2641C11.1377 5.66797 11.0352 5.77011 11.0352 5.89611V7.39405C11.0352 7.52005 11.1377 7.62219 11.2641 7.62219H12.767C12.8935 7.62219 12.9959 7.52005 12.9959 7.39405V5.89611C12.9959 5.77011 12.8935 5.66797 12.767 5.66797Z" fill="#E2FF6F"/>
<path d="M15.517 5.66797H14.0141C13.8877 5.66797 13.7852 5.77011 13.7852 5.89611V7.39405C13.7852 7.52005 13.8877 7.62219 14.0141 7.62219H15.517C15.6435 7.62219 15.7459 7.52005 15.7459 7.39405V5.89611C15.7459 5.77011 15.6435 5.66797 15.517 5.66797Z" fill="#E2FF6F"/>
<path d="M15.517 8.39258H14.0141C13.8877 8.39258 13.7852 8.49472 13.7852 8.62072V10.1187C13.7852 10.2447 13.8877 10.3468 14.0141 10.3468H15.517C15.6435 10.3468 15.7459 10.2447 15.7459 10.1187V8.62072C15.7459 8.49472 15.6435 8.39258 15.517 8.39258Z" fill="#E2FF6F"/>
<path d="M12.767 8.39258H11.2641C11.1377 8.39258 11.0352 8.49472 11.0352 8.62072V10.1187C11.0352 10.2447 11.1377 10.3468 11.2641 10.3468H12.767C12.8935 10.3468 12.9959 10.2447 12.9959 10.1187V8.62072C12.9959 8.49472 12.8935 8.39258 12.767 8.39258Z" fill="#E2FF6F"/>
<path d="M10.0073 8.39258H8.50438C8.37796 8.39258 8.27548 8.49472 8.27548 8.62072V10.1187C8.27548 10.2447 8.37796 10.3468 8.50438 10.3468H10.0073C10.1337 10.3468 10.2362 10.2447 10.2362 10.1187V8.62072C10.2362 8.49472 10.1337 8.39258 10.0073 8.39258Z" fill="#E2FF6F"/>
<path d="M7.25532 8.39258H5.75243C5.62601 8.39258 5.52353 8.49472 5.52353 8.62072V10.1187C5.52353 10.2447 5.62601 10.3468 5.75243 10.3468H7.25532C7.38174 10.3468 7.48422 10.2447 7.48422 10.1187V8.62072C7.48422 8.49472 7.38174 8.39258 7.25532 8.39258Z" fill="#E2FF6F"/>
<path d="M4.50727 8.39213H3.04504C2.89595 8.39213 2.77548 8.5122 2.77548 8.66079V10.0762C2.77548 10.2248 2.89595 10.3448 3.04504 10.3448H4.50727C4.63377 10.3448 4.73617 10.2428 4.73617 10.1167V8.61877C4.73617 8.49269 4.63377 8.39062 4.50727 8.39062V8.39213Z" fill="#E2FF6F"/>
<path d="M1.75532 8.39258H0.252427C0.12601 8.39258 0.0235291 8.49472 0.0235291 8.62072V10.1187C0.0235291 10.2447 0.12601 10.3468 0.252427 10.3468H1.75532C1.88174 10.3468 1.98422 10.2447 1.98422 10.1187V8.62072C1.98422 8.49472 1.88174 8.39258 1.75532 8.39258Z" fill="#E2FF6F"/>
<path d="M1.75518 11.1162H0.252289C0.125873 11.1162 0.0233917 11.2184 0.0233917 11.3444V12.8423C0.0233917 12.9683 0.125873 13.0704 0.252289 13.0704H1.75518C1.8816 13.0704 1.98408 12.9683 1.98408 12.8423V11.3444C1.98408 11.2184 1.8816 11.1162 1.75518 11.1162Z" fill="#E2FF6F"/>
<path d="M4.46626 11.1109H3.00402C2.85494 11.1109 2.73447 11.231 2.73447 11.3795V12.7949C2.73447 12.9435 2.85494 13.0636 3.00402 13.0636H4.46626C4.59275 13.0636 4.69516 12.9615 4.69516 12.8355V11.3375C4.69516 11.2114 4.59275 11.1094 4.46626 11.1094V11.1109Z" fill="#E2FF6F"/>
<path d="M7.25532 11.1162H5.75243C5.62601 11.1162 5.52353 11.2184 5.52353 11.3444V12.8423C5.52353 12.9683 5.62601 13.0704 5.75243 13.0704H7.25532C7.38174 13.0704 7.48422 12.9683 7.48422 12.8423V11.3444C7.48422 11.2184 7.38174 11.1162 7.25532 11.1162Z" fill="#E2FF6F"/>
<path d="M10.0074 11.1162H8.5045C8.37809 11.1162 8.2756 11.2184 8.2756 11.3444V12.8423C8.2756 12.9683 8.37809 13.0704 8.5045 13.0704H10.0074C10.1338 13.0704 10.2363 12.9683 10.2363 12.8423V11.3444C10.2363 11.2184 10.1338 11.1162 10.0074 11.1162Z" fill="#E2FF6F"/>
<path d="M12.767 11.1162H11.2641C11.1377 11.1162 11.0352 11.2184 11.0352 11.3444V12.8423C11.0352 12.9683 11.1377 13.0704 11.2641 13.0704H12.767C12.8935 13.0704 12.9959 12.9683 12.9959 12.8423V11.3444C12.9959 11.2184 12.8935 11.1162 12.767 11.1162Z" fill="#E2FF6F"/>
<path d="M10.0073 13.8389H8.50438C8.37796 13.8389 8.27548 13.941 8.27548 14.067V15.5649C8.27548 15.6909 8.37796 15.7931 8.50438 15.7931H10.0073C10.1337 15.7931 10.2362 15.6909 10.2362 15.5649V14.067C10.2362 13.941 10.1337 13.8389 10.0073 13.8389Z" fill="#E2FF6F"/>
<path d="M7.25532 13.8389H5.75243C5.62601 13.8389 5.52353 13.941 5.52353 14.067V15.5649C5.52353 15.6909 5.62601 15.7931 5.75243 15.7931H7.25532C7.38174 15.7931 7.48422 15.6909 7.48422 15.5649V14.067C7.48422 13.941 7.38174 13.8389 7.25532 13.8389Z" fill="#E2FF6F"/>
<path d="M4.50727 13.8394H3.04504C2.89595 13.8394 2.77548 13.9595 2.77548 14.1081V15.5234C2.77548 15.672 2.89595 15.7921 3.04504 15.7921H4.50727C4.63377 15.7921 4.73617 15.69 4.73617 15.564V14.066C4.73617 13.94 4.63377 13.8379 4.50727 13.8379V13.8394Z" fill="#E2FF6F"/>
<path d="M1.75532 13.8389H0.252427C0.12601 13.8389 0.0235291 13.941 0.0235291 14.067V15.5649C0.0235291 15.6909 0.12601 15.7931 0.252427 15.7931H1.75532C1.88174 15.7931 1.98422 15.6909 1.98422 15.5649V14.067C1.98422 13.941 1.88174 13.8389 1.75532 13.8389Z" fill="#E2FF6F"/>
</svg>
