<svg width="1446" height="192" viewBox="0 0 1446 192" fill="none" xmlns="http://www.w3.org/2000/svg">
<g filter="url(#filter0_bd_1_91)">
<g clip-path="url(#clip0_1_91)">
<rect x="216" y="10.6982" width="1014" height="171" fill="black" fill-opacity="0.05" shape-rendering="crispEdges"/>
<path d="M309.59 67.9982C317.51 67.9982 322.03 74.1582 322.03 82.7982C322.03 91.4382 317.51 97.5982 309.59 97.5982C301.71 97.5982 297.35 91.4382 297.35 82.7982C297.35 74.1582 301.71 67.9982 309.59 67.9982ZM316.31 82.7982C316.31 76.6782 313.83 72.9182 309.59 72.9182C305.39 72.9182 303.03 76.6782 303.03 82.7982C303.03 88.9582 305.39 92.6782 309.59 92.6782C313.83 92.6782 316.31 88.9582 316.31 82.7982ZM337.481 67.9982C345.401 67.9982 349.921 74.1582 349.921 82.7982C349.921 91.4382 345.401 97.5982 337.481 97.5982C329.601 97.5982 325.241 91.4382 325.241 82.7982C325.241 74.1582 329.601 67.9982 337.481 67.9982ZM344.201 82.7982C344.201 76.6782 341.721 72.9182 337.481 72.9182C333.281 72.9182 330.921 76.6782 330.921 82.7982C330.921 88.9582 333.281 92.6782 337.481 92.6782C341.721 92.6782 344.201 88.9582 344.201 82.7982ZM360.091 84.1982C355.851 84.1982 353.131 80.9582 353.131 76.1182C353.131 71.3182 355.891 68.0382 360.091 68.0382C364.291 68.0382 367.051 71.2782 367.051 76.1182C367.051 80.9182 364.291 84.1982 360.091 84.1982ZM358.771 97.1982L376.731 68.3982H381.611L363.651 97.1982H358.771ZM360.091 80.1582C362.011 80.1582 362.491 78.1582 362.491 76.1182C362.491 74.1182 362.011 72.0782 360.091 72.0782C358.171 72.0782 357.651 74.0782 357.651 76.1182C357.651 78.1182 358.131 80.1582 360.091 80.1582ZM380.331 97.5982C376.091 97.5982 373.371 94.3982 373.371 89.5182C373.371 84.7182 376.091 81.4382 380.331 81.4382C384.491 81.4382 387.291 84.6782 387.291 89.5182C387.291 94.3182 384.531 97.5982 380.331 97.5982ZM380.331 93.5582C382.251 93.5582 382.731 91.6382 382.731 89.5182C382.731 87.5182 382.291 85.5182 380.331 85.5182C378.371 85.5182 377.891 87.4782 377.891 89.5182C377.891 91.5982 378.371 93.5582 380.331 93.5582Z" fill="#EBFF25"/>
<path d="M289.878 126.678C291.398 126.678 292.55 125.99 293.126 124.502H295.11C294.486 126.806 292.614 128.342 289.862 128.342C286.598 128.342 284.406 126.022 284.406 122.582C284.406 119.158 286.55 116.646 289.926 116.646C292.614 116.646 294.486 118.118 295.11 120.47H293.126C292.566 119.014 291.414 118.294 289.894 118.294C287.67 118.294 286.278 120.022 286.278 122.518C286.278 124.998 287.654 126.678 289.878 126.678ZM296.455 124.102C296.455 121.574 298.183 119.83 300.663 119.83C303.159 119.83 304.887 121.574 304.887 124.102C304.887 126.63 303.159 128.358 300.663 128.358C298.183 128.358 296.455 126.63 296.455 124.102ZM298.247 124.086C298.247 125.766 299.207 126.854 300.663 126.854C302.135 126.854 303.095 125.766 303.095 124.086C303.095 122.39 302.135 121.318 300.663 121.318C299.207 121.318 298.247 122.39 298.247 124.086ZM310.985 119.846C313.049 119.846 314.265 121.206 314.265 123.302V128.198H312.505V123.67C312.505 122.134 311.721 121.382 310.521 121.382C309.161 121.382 308.425 122.342 308.425 123.798V128.198H306.681V120.006H308.265L308.393 121.11C308.857 120.326 309.737 119.846 310.985 119.846ZM316.922 119.99L319.37 126.342L321.786 119.99H323.674L320.314 128.198H318.362L315.082 119.99H316.922ZM332.223 123.926V124.582H325.951C325.983 126.118 326.991 126.918 328.271 126.918C329.231 126.918 330.031 126.47 330.367 125.574H332.143C331.711 127.238 330.239 128.358 328.239 128.358C325.791 128.358 324.175 126.662 324.175 124.086C324.175 121.526 325.791 119.83 328.223 119.83C330.607 119.83 332.223 121.462 332.223 123.926ZM328.223 121.222C327.055 121.222 326.095 121.942 325.967 123.366H330.447C330.351 121.942 329.407 121.222 328.223 121.222ZM337.769 120.006H338.841V121.574H337.673C336.313 121.574 335.785 122.438 335.785 123.83V128.198H334.025V120.006H335.625L335.833 121.062C336.137 120.486 336.825 120.006 337.769 120.006ZM339.59 125.718H341.335C341.351 126.566 342.135 127.062 343.207 127.062C344.279 127.062 344.919 126.662 344.919 125.942C344.919 125.318 344.599 124.982 343.671 124.838L342.023 124.55C340.423 124.278 339.799 123.446 339.799 122.278C339.799 120.806 341.255 119.846 343.111 119.846C345.111 119.846 346.567 120.806 346.583 122.438H344.855C344.839 121.606 344.119 121.142 343.111 121.142C342.151 121.142 341.543 121.542 341.543 122.214C341.543 122.806 341.959 123.078 342.871 123.238L344.487 123.526C346.007 123.798 346.711 124.55 346.711 125.782C346.711 127.478 345.143 128.358 343.239 128.358C341.079 128.358 339.623 127.318 339.59 125.718ZM348.272 118.47V116.646H350.208V118.47H348.272ZM348.368 128.198V120.006H350.112V128.198H348.368ZM351.924 124.102C351.924 121.574 353.652 119.83 356.132 119.83C358.628 119.83 360.356 121.574 360.356 124.102C360.356 126.63 358.628 128.358 356.132 128.358C353.652 128.358 351.924 126.63 351.924 124.102ZM353.716 124.086C353.716 125.766 354.676 126.854 356.132 126.854C357.604 126.854 358.564 125.766 358.564 124.086C358.564 122.39 357.604 121.318 356.132 121.318C354.676 121.318 353.716 122.39 353.716 124.086ZM366.453 119.846C368.517 119.846 369.733 121.206 369.733 123.302V128.198H367.973V123.67C367.973 122.134 367.189 121.382 365.989 121.382C364.629 121.382 363.893 122.342 363.893 123.798V128.198H362.149V120.006H363.733L363.861 121.11C364.325 120.326 365.205 119.846 366.453 119.846ZM382.422 118.406H376.694V121.814H381.67V123.382H376.694V128.198H374.886V116.806H382.422V118.406ZM391.098 123.926V124.582H384.826C384.858 126.118 385.866 126.918 387.146 126.918C388.106 126.918 388.906 126.47 389.242 125.574H391.018C390.586 127.238 389.114 128.358 387.114 128.358C384.666 128.358 383.05 126.662 383.05 124.086C383.05 121.526 384.666 119.83 387.098 119.83C389.482 119.83 391.098 121.462 391.098 123.926ZM387.098 121.222C385.93 121.222 384.97 121.942 384.842 123.366H389.322C389.226 121.942 388.282 121.222 387.098 121.222ZM400.567 123.926V124.582H394.295C394.327 126.118 395.335 126.918 396.615 126.918C397.575 126.918 398.375 126.47 398.711 125.574H400.487C400.055 127.238 398.583 128.358 396.583 128.358C394.135 128.358 392.519 126.662 392.519 124.086C392.519 121.526 394.135 119.83 396.567 119.83C398.951 119.83 400.567 121.462 400.567 123.926ZM396.567 121.222C395.399 121.222 394.439 121.942 394.311 123.366H398.791C398.695 121.942 397.751 121.222 396.567 121.222Z" fill="#A9A9A9"/>
<path d="M469.5 10.1982L469.5 182.198" stroke="url(#paint0_linear_1_91)" stroke-opacity="0.4" stroke-width="1.5"/>
<path d="M522.93 77.3582C528.73 77.3582 532.81 81.2782 532.81 87.2782C532.81 93.7582 528.13 97.5982 522.01 97.5982C516.57 97.5982 511.65 94.5582 511.49 88.2782H516.81C516.97 91.0782 518.97 92.7982 521.81 92.7982C524.93 92.7982 526.97 90.6382 526.97 87.3582C526.97 84.1182 524.93 81.8782 521.85 81.8782C519.25 81.8782 517.53 83.5582 517.01 84.9982H511.73L514.73 68.3982H531.37V73.2382H519.01L517.85 78.8382C518.89 77.9582 520.45 77.3582 522.93 77.3582ZM547.918 67.9982C555.838 67.9982 560.358 74.1582 560.358 82.7982C560.358 91.4382 555.838 97.5982 547.918 97.5982C540.038 97.5982 535.678 91.4382 535.678 82.7982C535.678 74.1582 540.038 67.9982 547.918 67.9982ZM554.638 82.7982C554.638 76.6782 552.158 72.9182 547.918 72.9182C543.718 72.9182 541.358 76.6782 541.358 82.7982C541.358 88.9582 543.718 92.6782 547.918 92.6782C552.158 92.6782 554.638 88.9582 554.638 82.7982ZM575.809 67.9982C583.729 67.9982 588.249 74.1582 588.249 82.7982C588.249 91.4382 583.729 97.5982 575.809 97.5982C567.929 97.5982 563.569 91.4382 563.569 82.7982C563.569 74.1582 567.929 67.9982 575.809 67.9982ZM582.529 82.7982C582.529 76.6782 580.049 72.9182 575.809 72.9182C571.609 72.9182 569.249 76.6782 569.249 82.7982C569.249 88.9582 571.609 92.6782 575.809 92.6782C580.049 92.6782 582.529 88.9582 582.529 82.7982ZM615.441 90.9182L623.761 68.3982H630.601V97.1982H624.961V86.5582C624.961 83.5982 625.081 80.1182 625.361 77.5182L617.961 97.1982H612.681L605.241 76.7582C605.601 79.7582 605.641 83.5582 605.561 86.5582V97.1982H599.961V68.3982H607.121L615.441 90.9182ZM647.417 75.9982C652.737 75.9982 655.777 79.5182 655.777 84.8382V97.1982H650.137V85.9982C650.137 82.5582 648.497 80.7982 645.777 80.7982C642.817 80.7982 641.217 82.8382 641.217 86.1982V97.1982H635.617V76.3982H640.817L641.137 78.8782C642.217 77.1582 644.297 75.9982 647.417 75.9982ZM679.267 81.6382V86.6782H672.387V93.6382H667.347V86.6782H660.467V81.6382H667.347V74.6782H672.387V81.6382H679.267Z" fill="#EBFF25"/>
<path d="M509.71 126.534H515.182V128.198H507.902V116.806H509.71V126.534ZM516.694 118.47V116.646H518.63V118.47H516.694ZM516.79 128.198V120.006H518.534V128.198H516.79ZM519.882 120.006H521.226V118.678C521.226 117.126 521.962 116.294 523.738 116.294H524.938V117.766H524.042C523.162 117.766 522.986 118.198 522.986 118.806V120.006H524.938V121.542H522.986V128.198H521.226V121.542H519.882V120.006ZM533.973 123.926V124.582H527.701C527.733 126.118 528.741 126.918 530.021 126.918C530.981 126.918 531.781 126.47 532.117 125.574H533.893C533.461 127.238 531.989 128.358 529.989 128.358C527.541 128.358 525.925 126.662 525.925 124.086C525.925 121.526 527.541 119.83 529.973 119.83C532.357 119.83 533.973 121.462 533.973 123.926ZM529.973 121.222C528.805 121.222 527.845 121.942 527.717 123.366H532.197C532.101 121.942 531.157 121.222 529.973 121.222ZM538.447 128.198C537.023 128.198 536.239 127.398 536.239 125.974V121.558H534.863V120.006H535.567C536.079 120.006 536.239 119.75 536.239 119.238V117.814H537.983V120.006H539.887V121.558H537.983V125.638C537.983 126.294 538.175 126.646 538.943 126.646H539.871V128.198H538.447ZM541.428 118.47V116.646H543.364V118.47H541.428ZM541.524 128.198V120.006H543.268V128.198H541.524ZM554.552 119.846C556.28 119.846 557.624 120.966 557.624 123.094V128.198H555.848V123.414C555.848 122.022 555.192 121.43 554.152 121.43C553.16 121.43 552.392 122.054 552.344 123.462V128.198H550.632V123.526C550.632 122.102 549.992 121.43 548.952 121.43C547.816 121.43 547.112 122.134 547.112 123.446V128.198H545.368V120.006H546.952L547.16 120.934C547.592 120.214 548.408 119.846 549.368 119.846C550.552 119.846 551.512 120.342 551.992 121.334C552.472 120.294 553.528 119.846 554.552 119.846ZM567.411 123.926V124.582H561.139C561.171 126.118 562.179 126.918 563.459 126.918C564.419 126.918 565.219 126.47 565.555 125.574H567.331C566.899 127.238 565.427 128.358 563.427 128.358C560.979 128.358 559.363 126.662 559.363 124.086C559.363 121.526 560.979 119.83 563.411 119.83C565.795 119.83 567.411 121.462 567.411 123.926ZM563.411 121.222C562.243 121.222 561.283 121.942 561.155 123.366H565.635C565.539 121.942 564.595 121.222 563.411 121.222ZM576.835 126.038L580.323 116.806H582.243L577.763 128.198H575.827L571.363 116.806H573.331L576.835 126.038ZM582.033 124.102C582.033 121.574 583.761 119.83 586.241 119.83C588.737 119.83 590.465 121.574 590.465 124.102C590.465 126.63 588.737 128.358 586.241 128.358C583.761 128.358 582.033 126.63 582.033 124.102ZM583.825 124.086C583.825 125.766 584.785 126.854 586.241 126.854C587.713 126.854 588.673 125.766 588.673 124.086C588.673 122.39 587.713 121.318 586.241 121.318C584.785 121.318 583.825 122.39 583.825 124.086ZM594.003 116.31V128.198H592.259V116.31H594.003ZM601.607 119.99H603.286V128.198H601.719L601.591 127.142C601.143 127.878 600.327 128.358 599.271 128.358C597.223 128.358 596.023 126.982 596.023 124.886V119.99H597.703V124.646C597.703 126.134 598.471 126.838 599.639 126.822C600.919 126.806 601.607 125.894 601.607 124.486V119.99ZM614.552 119.846C616.28 119.846 617.624 120.966 617.624 123.094V128.198H615.848V123.414C615.848 122.022 615.192 121.43 614.152 121.43C613.16 121.43 612.392 122.054 612.344 123.462V128.198H610.632V123.526C610.632 122.102 609.992 121.43 608.952 121.43C607.816 121.43 607.112 122.134 607.112 123.446V128.198H605.368V120.006H606.952L607.16 120.934C607.592 120.214 608.408 119.846 609.368 119.846C610.552 119.846 611.512 120.342 611.992 121.334C612.472 120.294 613.528 119.846 614.552 119.846ZM627.411 123.926V124.582H621.139C621.171 126.118 622.179 126.918 623.459 126.918C624.419 126.918 625.219 126.47 625.555 125.574H627.331C626.899 127.238 625.427 128.358 623.427 128.358C620.979 128.358 619.363 126.662 619.363 124.086C619.363 121.526 620.979 119.83 623.411 119.83C625.795 119.83 627.411 121.462 627.411 123.926ZM623.411 121.222C622.243 121.222 621.283 121.942 621.155 123.366H625.635C625.539 121.942 624.595 121.222 623.411 121.222ZM637.091 118.406V128.198H635.299V118.406H631.571V116.806H640.819V118.406H637.091ZM645.003 120.006H646.075V121.574H644.907C643.547 121.574 643.019 122.438 643.019 123.83V128.198H641.259V120.006H642.859L643.067 121.062C643.371 120.486 644.059 120.006 645.003 120.006ZM654.635 126.886H654.94V128.198H653.948C653.276 128.198 652.668 127.942 652.54 127.158C652.076 127.878 651.068 128.358 649.788 128.358C647.98 128.358 646.828 127.414 646.828 125.846C646.828 124.454 647.708 123.43 649.948 123.43H652.332V123.014C652.332 121.814 651.612 121.254 650.54 121.254C649.452 121.254 648.748 121.798 648.7 122.646H647.084C647.132 120.87 648.588 119.846 650.604 119.846C652.524 119.846 654.092 120.806 654.092 123.03V126.342C654.092 126.79 654.267 126.886 654.635 126.886ZM652.332 124.966V124.63H650.188C649.004 124.63 648.636 125.158 648.636 125.766C648.636 126.598 649.292 126.966 650.188 126.966C651.404 126.966 652.332 126.31 652.332 124.966ZM662.722 116.31H664.482V128.198H662.882L662.738 126.95C662.242 127.782 661.17 128.358 659.906 128.358C657.65 128.358 656.018 126.79 656.018 124.118C656.018 121.366 657.73 119.83 659.906 119.83C661.186 119.83 662.226 120.374 662.722 121.206V116.31ZM660.258 126.806C661.634 126.806 662.69 125.814 662.69 124.118C662.69 122.438 661.634 121.382 660.258 121.398C658.818 121.398 657.826 122.454 657.826 124.118C657.826 125.814 658.834 126.806 660.258 126.806ZM674.364 123.926V124.582H668.092C668.124 126.118 669.132 126.918 670.412 126.918C671.372 126.918 672.172 126.47 672.508 125.574H674.284C673.852 127.238 672.38 128.358 670.38 128.358C667.932 128.358 666.316 126.662 666.316 124.086C666.316 121.526 667.932 119.83 670.364 119.83C672.748 119.83 674.364 121.462 674.364 123.926ZM670.364 121.222C669.196 121.222 668.236 121.942 668.108 123.366H672.588C672.492 121.942 671.548 121.222 670.364 121.222ZM682.44 116.31H684.2V128.198H682.6L682.456 126.95C681.96 127.782 680.888 128.358 679.624 128.358C677.368 128.358 675.736 126.79 675.736 124.118C675.736 121.366 677.448 119.83 679.624 119.83C680.904 119.83 681.944 120.374 682.44 121.206V116.31ZM679.976 126.806C681.352 126.806 682.408 125.814 682.408 124.118C682.408 122.438 681.352 121.382 679.976 121.398C678.536 121.398 677.544 122.454 677.544 124.118C677.544 125.814 678.552 126.806 679.976 126.806Z" fill="#A9A9A9"/>
<path d="M723 10.1982L723 182.198" stroke="url(#paint1_linear_1_91)" stroke-opacity="0.4" stroke-width="1.5"/>
<path d="M816.13 86.5182L809.57 91.9582H821.61V97.1982H801.81V92.1182L812.53 82.9582C814.69 81.0382 815.93 79.6782 815.97 77.5982C816.05 74.7582 814.25 73.1982 811.49 73.1982C808.81 73.1982 806.89 75.0782 806.77 77.8782H801.37C801.49 71.5182 806.09 67.9982 811.53 67.9982C817.37 67.9982 821.85 71.1982 821.85 77.1182C821.85 81.3182 819.41 83.8782 816.13 86.5182ZM835.938 77.3582C841.738 77.3582 845.818 81.2782 845.818 87.2782C845.818 93.7582 841.138 97.5982 835.018 97.5982C829.578 97.5982 824.658 94.5582 824.498 88.2782H829.818C829.978 91.0782 831.978 92.7982 834.818 92.7982C837.938 92.7982 839.978 90.6382 839.978 87.3582C839.978 84.1182 837.938 81.8782 834.858 81.8782C832.258 81.8782 830.538 83.5582 830.018 84.9982H824.738L827.738 68.3982H844.378V73.2382H832.018L830.858 78.8382C831.898 77.9582 833.458 77.3582 835.938 77.3582ZM860.926 67.9982C868.846 67.9982 873.366 74.1582 873.366 82.7982C873.366 91.4382 868.846 97.5982 860.926 97.5982C853.046 97.5982 848.686 91.4382 848.686 82.7982C848.686 74.1582 853.046 67.9982 860.926 67.9982ZM867.646 82.7982C867.646 76.6782 865.166 72.9182 860.926 72.9182C856.726 72.9182 854.366 76.6782 854.366 82.7982C854.366 88.9582 856.726 92.6782 860.926 92.6782C865.166 92.6782 867.646 88.9582 867.646 82.7982ZM896.377 81.6382V86.6782H889.497V93.6382H884.457V86.6782H877.577V81.6382H884.457V74.6782H889.497V81.6382H896.377Z" fill="#EBFF25"/>
<path d="M781.122 118.406V128.198H779.33V118.406H775.602V116.806H784.85V118.406H781.122ZM784.518 124.102C784.518 121.574 786.246 119.83 788.726 119.83C791.222 119.83 792.95 121.574 792.95 124.102C792.95 126.63 791.222 128.358 788.726 128.358C786.246 128.358 784.518 126.63 784.518 124.102ZM786.31 124.086C786.31 125.766 787.27 126.854 788.726 126.854C790.198 126.854 791.158 125.766 791.158 124.086C791.158 122.39 790.198 121.318 788.726 121.318C787.27 121.318 786.31 122.39 786.31 124.086ZM797.431 128.198C796.007 128.198 795.223 127.398 795.223 125.974V121.558H793.847V120.006H794.551C795.063 120.006 795.223 119.75 795.223 119.238V117.814H796.967V120.006H798.871V121.558H796.967V125.638C796.967 126.294 797.159 126.646 797.927 126.646H798.855V128.198H797.431ZM807.917 126.886H808.221V128.198H807.229C806.557 128.198 805.949 127.942 805.821 127.158C805.357 127.878 804.349 128.358 803.069 128.358C801.261 128.358 800.109 127.414 800.109 125.846C800.109 124.454 800.989 123.43 803.229 123.43H805.613V123.014C805.613 121.814 804.893 121.254 803.821 121.254C802.733 121.254 802.029 121.798 801.981 122.646H800.365C800.413 120.87 801.869 119.846 803.885 119.846C805.805 119.846 807.373 120.806 807.373 123.03V126.342C807.373 126.79 807.549 126.886 807.917 126.886ZM805.613 124.966V124.63H803.469C802.285 124.63 801.917 125.158 801.917 125.766C801.917 126.598 802.573 126.966 803.469 126.966C804.685 126.966 805.613 126.31 805.613 124.966ZM811.44 116.31V128.198H809.696V116.31H811.44ZM821.435 118.406V128.198H819.643V118.406H815.915V116.806H825.163V118.406H821.435ZM829.347 120.006H830.419V121.574H829.251C827.891 121.574 827.363 122.438 827.363 123.83V128.198H825.603V120.006H827.203L827.411 121.062C827.715 120.486 828.403 120.006 829.347 120.006ZM838.979 126.886H839.283V128.198H838.291C837.619 128.198 837.011 127.942 836.883 127.158C836.419 127.878 835.411 128.358 834.131 128.358C832.323 128.358 831.171 127.414 831.171 125.846C831.171 124.454 832.051 123.43 834.291 123.43H836.675V123.014C836.675 121.814 835.955 121.254 834.883 121.254C833.795 121.254 833.091 121.798 833.043 122.646H831.427C831.475 120.87 832.931 119.846 834.947 119.846C836.867 119.846 838.435 120.806 838.435 123.03V126.342C838.435 126.79 838.611 126.886 838.979 126.886ZM836.675 124.966V124.63H834.531C833.347 124.63 832.979 125.158 832.979 125.766C832.979 126.598 833.635 126.966 834.531 126.966C835.747 126.966 836.675 126.31 836.675 124.966ZM847.065 116.31H848.825V128.198H847.225L847.081 126.95C846.585 127.782 845.513 128.358 844.249 128.358C841.993 128.358 840.361 126.79 840.361 124.118C840.361 121.366 842.073 119.83 844.249 119.83C845.529 119.83 846.569 120.374 847.065 121.206V116.31ZM844.601 126.806C845.977 126.806 847.033 125.814 847.033 124.118C847.033 122.438 845.977 121.382 844.601 121.398C843.161 121.398 842.169 122.454 842.169 124.118C842.169 125.814 843.177 126.806 844.601 126.806ZM858.307 126.886H858.611V128.198H857.619C856.947 128.198 856.339 127.942 856.211 127.158C855.747 127.878 854.739 128.358 853.459 128.358C851.651 128.358 850.499 127.414 850.499 125.846C850.499 124.454 851.379 123.43 853.619 123.43H856.003V123.014C856.003 121.814 855.283 121.254 854.211 121.254C853.123 121.254 852.419 121.798 852.371 122.646H850.755C850.803 120.87 852.259 119.846 854.275 119.846C856.195 119.846 857.763 120.806 857.763 123.03V126.342C857.763 126.79 857.939 126.886 858.307 126.886ZM856.003 124.966V124.63H853.859C852.675 124.63 852.307 125.158 852.307 125.766C852.307 126.598 852.963 126.966 853.859 126.966C855.075 126.966 856.003 126.31 856.003 124.966ZM864.663 119.83C866.903 119.83 868.551 121.43 868.551 124.102C868.551 126.838 866.839 128.358 864.663 128.358C863.399 128.358 862.311 127.814 861.831 126.982L861.687 128.198H860.087V116.31H861.847V121.238C862.327 120.374 863.383 119.83 864.663 119.83ZM864.311 126.806C865.735 126.806 866.743 125.782 866.743 124.102C866.743 122.422 865.751 121.398 864.311 121.382C862.935 121.382 861.879 122.438 861.879 124.118C861.879 125.814 862.935 126.806 864.311 126.806ZM872.081 116.31V128.198H870.337V116.31H872.081ZM881.989 123.926V124.582H875.717C875.749 126.118 876.757 126.918 878.037 126.918C878.997 126.918 879.797 126.47 880.133 125.574H881.909C881.477 127.238 880.005 128.358 878.005 128.358C875.557 128.358 873.941 126.662 873.941 124.086C873.941 121.526 875.557 119.83 877.989 119.83C880.373 119.83 881.989 121.462 881.989 123.926ZM877.989 121.222C876.821 121.222 875.861 121.942 875.733 123.366H880.213C880.117 121.942 879.173 121.222 877.989 121.222ZM886.949 128.198V116.806H891.573C893.973 116.806 895.541 118.39 895.541 120.502C895.541 122.63 893.957 124.198 891.573 124.198H888.789V128.198H886.949ZM888.789 122.63H891.429C892.853 122.63 893.637 121.798 893.637 120.518C893.637 119.254 892.853 118.406 891.429 118.406H888.789V122.63ZM904.323 126.886H904.627V128.198H903.635C902.963 128.198 902.355 127.942 902.227 127.158C901.763 127.878 900.755 128.358 899.475 128.358C897.667 128.358 896.515 127.414 896.515 125.846C896.515 124.454 897.395 123.43 899.635 123.43H902.019V123.014C902.019 121.814 901.299 121.254 900.227 121.254C899.139 121.254 898.435 121.798 898.387 122.646H896.771C896.819 120.87 898.275 119.846 900.291 119.846C902.211 119.846 903.779 120.806 903.779 123.03V126.342C903.779 126.79 903.955 126.886 904.323 126.886ZM902.019 124.966V124.63H899.875C898.691 124.63 898.323 125.158 898.323 125.766C898.323 126.598 898.979 126.966 899.875 126.966C901.091 126.966 902.019 126.31 902.019 124.966ZM906.007 118.47V116.646H907.943V118.47H906.007ZM906.103 128.198V120.006H907.847V128.198H906.103ZM913.706 120.006H914.778V121.574H913.61C912.25 121.574 911.722 122.438 911.722 123.83V128.198H909.962V120.006H911.562L911.77 121.062C912.074 120.486 912.762 120.006 913.706 120.006ZM915.528 125.718H917.272C917.288 126.566 918.072 127.062 919.144 127.062C920.216 127.062 920.856 126.662 920.856 125.942C920.856 125.318 920.536 124.982 919.608 124.838L917.96 124.55C916.36 124.278 915.736 123.446 915.736 122.278C915.736 120.806 917.192 119.846 919.048 119.846C921.048 119.846 922.504 120.806 922.52 122.438H920.792C920.776 121.606 920.056 121.142 919.048 121.142C918.088 121.142 917.48 121.542 917.48 122.214C917.48 122.806 917.896 123.078 918.808 123.238L920.424 123.526C921.944 123.798 922.648 124.55 922.648 125.782C922.648 127.478 921.08 128.358 919.176 128.358C917.016 128.358 915.56 127.318 915.528 125.718Z" fill="#A9A9A9"/>
<path d="M976.5 10.1982L976.5 182.198" stroke="url(#paint2_linear_1_91)" stroke-opacity="0.4" stroke-width="1.5"/>
<path d="M1037.31 97.1982H1031.75V74.0782L1025.47 77.1582V71.6382L1031.75 68.3982H1037.31V97.1982ZM1053.17 77.3582C1058.97 77.3582 1063.05 81.2782 1063.05 87.2782C1063.05 93.7582 1058.37 97.5982 1052.25 97.5982C1046.81 97.5982 1041.89 94.5582 1041.73 88.2782H1047.05C1047.21 91.0782 1049.21 92.7982 1052.05 92.7982C1055.17 92.7982 1057.21 90.6382 1057.21 87.3582C1057.21 84.1182 1055.17 81.8782 1052.09 81.8782C1049.49 81.8782 1047.77 83.5582 1047.25 84.9982H1041.97L1044.97 68.3982H1061.61V73.2382H1049.25L1048.09 78.8382C1049.13 77.9582 1050.69 77.3582 1053.17 77.3582ZM1065.93 97.1982V90.6782H1072.61V97.1982L1069.85 101.998H1066.69L1069.09 97.1982H1065.93ZM1087.34 67.9982C1095.26 67.9982 1099.78 74.1582 1099.78 82.7982C1099.78 91.4382 1095.26 97.5982 1087.34 97.5982C1079.46 97.5982 1075.1 91.4382 1075.1 82.7982C1075.1 74.1582 1079.46 67.9982 1087.34 67.9982ZM1094.06 82.7982C1094.06 76.6782 1091.58 72.9182 1087.34 72.9182C1083.14 72.9182 1080.78 76.6782 1080.78 82.7982C1080.78 88.9582 1083.14 92.6782 1087.34 92.6782C1091.58 92.6782 1094.06 88.9582 1094.06 82.7982ZM1115.23 67.9982C1123.15 67.9982 1127.67 74.1582 1127.67 82.7982C1127.67 91.4382 1123.15 97.5982 1115.23 97.5982C1107.35 97.5982 1102.99 91.4382 1102.99 82.7982C1102.99 74.1582 1107.35 67.9982 1115.23 67.9982ZM1121.95 82.7982C1121.95 76.6782 1119.47 72.9182 1115.23 72.9182C1111.03 72.9182 1108.67 76.6782 1108.67 82.7982C1108.67 88.9582 1111.03 92.6782 1115.23 92.6782C1119.47 92.6782 1121.95 88.9582 1121.95 82.7982ZM1143.12 67.9982C1151.04 67.9982 1155.56 74.1582 1155.56 82.7982C1155.56 91.4382 1151.04 97.5982 1143.12 97.5982C1135.24 97.5982 1130.88 91.4382 1130.88 82.7982C1130.88 74.1582 1135.24 67.9982 1143.12 67.9982ZM1149.84 82.7982C1149.84 76.6782 1147.36 72.9182 1143.12 72.9182C1138.92 72.9182 1136.56 76.6782 1136.56 82.7982C1136.56 88.9582 1138.92 92.6782 1143.12 92.6782C1147.36 92.6782 1149.84 88.9582 1149.84 82.7982ZM1178.57 81.6382V86.6782H1171.69V93.6382H1166.65V86.6782H1159.77V81.6382H1166.65V74.6782H1171.69V81.6382H1178.57Z" fill="#EBFF25"/>
<path d="M1079.62 118.406V128.198H1077.83V118.406H1074.1V116.806H1083.35V118.406H1079.62ZM1087.53 120.006H1088.61V121.574H1087.44C1086.08 121.574 1085.55 122.438 1085.55 123.83V128.198H1083.79V120.006H1085.39L1085.6 121.062C1085.9 120.486 1086.59 120.006 1087.53 120.006ZM1097.17 126.886H1097.47V128.198H1096.48C1095.81 128.198 1095.2 127.942 1095.07 127.158C1094.61 127.878 1093.6 128.358 1092.32 128.358C1090.51 128.358 1089.36 127.414 1089.36 125.846C1089.36 124.454 1090.24 123.43 1092.48 123.43H1094.86V123.014C1094.86 121.814 1094.14 121.254 1093.07 121.254C1091.98 121.254 1091.28 121.798 1091.23 122.646H1089.61C1089.66 120.87 1091.12 119.846 1093.13 119.846C1095.05 119.846 1096.62 120.806 1096.62 123.03V126.342C1096.62 126.79 1096.8 126.886 1097.17 126.886ZM1094.86 124.966V124.63H1092.72C1091.53 124.63 1091.17 125.158 1091.17 125.766C1091.17 126.598 1091.82 126.966 1092.72 126.966C1093.93 126.966 1094.86 126.31 1094.86 124.966ZM1105.25 116.31H1107.01V128.198H1105.41L1105.27 126.95C1104.77 127.782 1103.7 128.358 1102.44 128.358C1100.18 128.358 1098.55 126.79 1098.55 124.118C1098.55 121.366 1100.26 119.83 1102.44 119.83C1103.72 119.83 1104.76 120.374 1105.25 121.206V116.31ZM1102.79 126.806C1104.16 126.806 1105.22 125.814 1105.22 124.118C1105.22 122.438 1104.16 121.382 1102.79 121.398C1101.35 121.398 1100.36 122.454 1100.36 124.118C1100.36 125.814 1101.36 126.806 1102.79 126.806ZM1116.89 123.926V124.582H1110.62C1110.65 126.118 1111.66 126.918 1112.94 126.918C1113.9 126.918 1114.7 126.47 1115.04 125.574H1116.81C1116.38 127.238 1114.91 128.358 1112.91 128.358C1110.46 128.358 1108.85 126.662 1108.85 124.086C1108.85 121.526 1110.46 119.83 1112.89 119.83C1115.28 119.83 1116.89 121.462 1116.89 123.926ZM1112.89 121.222C1111.73 121.222 1110.77 121.942 1110.64 123.366H1115.12C1115.02 121.942 1114.08 121.222 1112.89 121.222ZM1122.44 120.006H1123.51V121.574H1122.34C1120.98 121.574 1120.46 122.438 1120.46 123.83V128.198H1118.7V120.006H1120.3L1120.5 121.062C1120.81 120.486 1121.5 120.006 1122.44 120.006ZM1124.26 125.718H1126.01C1126.02 126.566 1126.81 127.062 1127.88 127.062C1128.95 127.062 1129.59 126.662 1129.59 125.942C1129.59 125.318 1129.27 124.982 1128.34 124.838L1126.69 124.55C1125.09 124.278 1124.47 123.446 1124.47 122.278C1124.47 120.806 1125.93 119.846 1127.78 119.846C1129.78 119.846 1131.24 120.806 1131.25 122.438H1129.53C1129.51 121.606 1128.79 121.142 1127.78 121.142C1126.82 121.142 1126.21 121.542 1126.21 122.214C1126.21 122.806 1126.63 123.078 1127.54 123.238L1129.16 123.526C1130.68 123.798 1131.38 124.55 1131.38 125.782C1131.38 127.478 1129.81 128.358 1127.91 128.358C1125.75 128.358 1124.29 127.318 1124.26 125.718Z" fill="#A9A9A9"/>
</g>
<rect x="216.75" y="11.4482" width="1012.5" height="169.5" stroke="url(#paint3_linear_1_91)" stroke-opacity="0.25" stroke-width="1.5" shape-rendering="crispEdges"/>
</g>
<defs>
<filter id="filter0_bd_1_91" x="163.5" y="-41.8018" width="1119" height="276" filterUnits="userSpaceOnUse" color-interpolation-filters="sRGB">
<feFlood flood-opacity="0" result="BackgroundImageFix"/>
<feGaussianBlur in="BackgroundImageFix" stdDeviation="26.25"/>
<feComposite in2="SourceAlpha" operator="in" result="effect1_backgroundBlur_1_91"/>
<feColorMatrix in="SourceAlpha" type="matrix" values="0 0 0 0 0 0 0 0 0 0 0 0 0 0 0 0 0 0 127 0" result="hardAlpha"/>
<feOffset/>
<feGaussianBlur stdDeviation="5"/>
<feComposite in2="hardAlpha" operator="out"/>
<feColorMatrix type="matrix" values="0 0 0 0 0.921569 0 0 0 0 1 0 0 0 0 0.145098 0 0 0 0.2 0"/>
<feBlend mode="normal" in2="effect1_backgroundBlur_1_91" result="effect2_dropShadow_1_91"/>
<feBlend mode="normal" in="SourceGraphic" in2="effect2_dropShadow_1_91" result="shape"/>
</filter>
<linearGradient id="paint0_linear_1_91" x1="470" y1="10.1982" x2="470" y2="182.198" gradientUnits="userSpaceOnUse">
<stop offset="0.15625" stop-color="#EBFF25" stop-opacity="0"/>
<stop offset="0.494792" stop-color="#EBFF25"/>
<stop offset="0.854167" stop-color="#EBFF25" stop-opacity="0"/>
</linearGradient>
<linearGradient id="paint1_linear_1_91" x1="723.5" y1="10.1982" x2="723.5" y2="182.198" gradientUnits="userSpaceOnUse">
<stop offset="0.15625" stop-color="#EBFF25" stop-opacity="0"/>
<stop offset="0.494792" stop-color="#EBFF25"/>
<stop offset="0.854167" stop-color="#EBFF25" stop-opacity="0"/>
</linearGradient>
<linearGradient id="paint2_linear_1_91" x1="977" y1="10.1982" x2="977" y2="182.198" gradientUnits="userSpaceOnUse">
<stop offset="0.15625" stop-color="#EBFF25" stop-opacity="0"/>
<stop offset="0.494792" stop-color="#EBFF25"/>
<stop offset="0.854167" stop-color="#EBFF25" stop-opacity="0"/>
</linearGradient>
<linearGradient id="paint3_linear_1_91" x1="723" y1="10.6982" x2="723" y2="219.198" gradientUnits="userSpaceOnUse">
<stop stop-color="#32D875" stop-opacity="0.96"/>
<stop offset="1" stop-color="#E2FF6F"/>
</linearGradient>
<clipPath id="clip0_1_91">
<rect x="216" y="10.6982" width="1014" height="171" fill="white"/>
</clipPath>
</defs>
</svg>
