<svg width="1446" height="2281" viewBox="0 0 1446 2281" fill="none" xmlns="http://www.w3.org/2000/svg">
<path d="M825.171 120.698H621.387C602.116 120.698 586.494 136.318 586.494 155.586V645.811C586.494 665.079 602.116 680.698 621.387 680.698H825.171C844.441 680.698 860.063 665.079 860.063 645.811V155.586C860.063 136.318 844.441 120.698 825.171 120.698Z" fill="black" stroke="url(#paint0_linear_1_108)" stroke-width="2.79173" stroke-miterlimit="10"/>
<g filter="url(#filter0_f_1_108)">
<path d="M825.171 120.698H621.387C602.116 120.698 586.494 136.318 586.494 155.586V645.811C586.494 665.079 602.116 680.698 621.387 680.698H825.171C844.441 680.698 860.063 665.079 860.063 645.811V155.586C860.063 136.318 844.441 120.698 825.171 120.698Z" fill="black"/>
<path d="M825.171 120.698H621.387C602.116 120.698 586.494 136.318 586.494 155.586V645.811C586.494 665.079 602.116 680.698 621.387 680.698H825.171C844.441 680.698 860.063 665.079 860.063 645.811V155.586C860.063 136.318 844.441 120.698 825.171 120.698Z" stroke="url(#paint1_linear_1_108)" stroke-width="1.11669" stroke-miterlimit="10"/>
</g>
<g opacity="0.4" filter="url(#filter1_f_1_108)">
<ellipse cx="586.205" cy="459.884" rx="1.39586" ry="8.65435" fill="#DAF760"/>
</g>
<g opacity="0.5" filter="url(#filter2_f_1_108)">
<ellipse cx="859.795" cy="238.221" rx="1.39586" ry="12.0044" transform="rotate(180 859.795 238.221)" fill="white"/>
</g>
<g style="mix-blend-mode:multiply" opacity="0.5">
<path d="M681.989 408.829L668.897 416.387L681.989 423.946L695.079 416.387L681.989 408.829Z" fill="#A591AA"/>
</g>
<g style="mix-blend-mode:multiply" opacity="0.5">
<path d="M743.293 373.804L730.201 381.361L743.293 388.919L756.383 381.362L743.293 373.804Z" fill="#A591AA"/>
</g>
<g style="mix-blend-mode:multiply" opacity="0.5">
<path d="M763.65 362.378L750.558 369.937L763.65 377.495L776.741 369.937L763.65 362.378Z" fill="#A591AA"/>
</g>
<g style="mix-blend-mode:multiply" opacity="0.5">
<path d="M724.099 385.722L711.007 393.28L724.099 400.839L737.189 393.28L724.099 385.722Z" fill="#A591AA"/>
</g>
<g style="mix-blend-mode:multiply" opacity="0.5">
<path d="M703.12 397.072L690.03 404.63L703.12 412.189L716.212 404.63L703.12 397.072Z" fill="#A591AA"/>
</g>
<path d="M763.65 370.263C763.308 370.263 763.03 369.985 763.03 369.643V347.074C763.03 346.731 763.308 346.454 763.65 346.454C763.993 346.454 764.27 346.731 764.27 347.074V369.643C764.27 369.985 763.993 370.263 763.65 370.263Z" fill="#AAA617"/>
<path d="M763.65 339.386L750.333 347.073L763.65 354.762L776.967 347.073L763.65 339.386Z" fill="#AF982B"/>
<path d="M763.65 253.451L750.333 261.139L763.65 268.826L776.967 261.139L763.65 253.451Z" fill="#58F28A"/>
<path d="M750.333 261.138V347.074L763.65 354.763V268.826L750.333 261.138Z" fill="#058A36"/>
<path d="M763.651 268.826V354.763L776.968 347.074V261.138L763.651 268.826Z" fill="url(#paint2_linear_1_108)"/>
<path d="M763.65 261.758C763.308 261.758 763.03 261.481 763.03 261.138V238.569C763.03 238.227 763.308 237.949 763.65 237.949C763.993 237.949 764.27 238.227 764.27 238.569V261.138C764.27 261.481 763.993 261.758 763.65 261.758Z" fill="#AAA617"/>
<path d="M743.293 382.131C742.95 382.131 742.673 381.853 742.673 381.511V358.942C742.673 358.599 742.95 358.322 743.293 358.322C743.635 358.322 743.913 358.599 743.913 358.942V381.511C743.913 381.853 743.635 382.131 743.293 382.131Z" fill="#AAA617"/>
<path d="M743.292 351.254L729.975 358.942L743.292 366.631L756.607 358.942L743.292 351.254Z" fill="#AF982B"/>
<path d="M743.292 300.039L729.975 307.728L743.292 315.416L756.607 307.728L743.292 300.039Z" fill="#58F28A"/>
<path d="M729.975 307.729V358.942L743.292 366.631V315.416L729.975 307.729Z" fill="#058A36"/>
<path d="M743.292 315.416V366.631L756.607 358.942V307.729L743.292 315.416Z" fill="url(#paint3_linear_1_108)"/>
<path d="M743.293 308.348C742.95 308.348 742.673 308.071 742.673 307.728V285.159C742.673 284.816 742.95 284.539 743.293 284.539C743.635 284.539 743.913 284.816 743.913 285.159V307.728C743.913 308.071 743.635 308.348 743.293 308.348Z" fill="#AAA617"/>
<path d="M724.099 393.986C723.757 393.986 723.479 393.708 723.479 393.366V370.797C723.479 370.454 723.757 370.177 724.099 370.177C724.442 370.177 724.719 370.454 724.719 370.797V393.366C724.719 393.708 724.442 393.986 724.099 393.986Z" fill="#AAA617"/>
<path d="M724.099 363.109L710.782 370.797L724.099 378.486L737.414 370.799L724.099 363.109Z" fill="#AF982B"/>
<path d="M724.099 331.736L710.782 339.424L724.099 347.113L737.414 339.424L724.099 331.736Z" fill="#58F28A"/>
<path d="M710.782 339.424V370.797L724.099 378.486V347.113L710.782 339.424Z" fill="#058A36"/>
<path d="M724.098 347.113V378.486L737.413 370.799V339.424L724.098 347.113Z" fill="url(#paint4_linear_1_108)"/>
<path d="M724.099 340.044C723.757 340.044 723.479 339.767 723.479 339.424V316.855C723.479 316.512 723.757 316.235 724.099 316.235C724.442 316.235 724.719 316.512 724.719 316.855V339.424C724.719 339.767 724.442 340.044 724.099 340.044Z" fill="#AAA617"/>
<path d="M703.119 405.171C702.777 405.171 702.499 404.894 702.499 404.551V381.982C702.499 381.639 702.777 381.362 703.119 381.362C703.462 381.362 703.739 381.639 703.739 381.982V404.551C703.739 404.894 703.462 405.171 703.119 405.171Z" fill="#AAA617"/>
<path d="M703.12 374.294L689.805 381.982L703.12 389.671L716.437 381.984L703.12 374.294Z" fill="#AF982B"/>
<path d="M703.12 295.8L689.805 303.487L703.12 311.176L716.437 303.487L703.12 295.8Z" fill="#58F28A"/>
<path d="M689.805 303.487V381.982L703.12 389.671V311.176L689.805 303.487Z" fill="#058A36"/>
<path d="M703.12 311.176V389.671L716.437 381.984V303.487L703.12 311.176Z" fill="url(#paint5_linear_1_108)"/>
<path d="M703.119 304.107C702.776 304.107 702.499 303.83 702.499 303.487V280.918C702.499 280.575 702.776 280.298 703.119 280.298C703.462 280.298 703.739 280.575 703.739 280.918V303.487C703.739 303.83 703.462 304.107 703.119 304.107Z" fill="#AAA617"/>
<path d="M681.99 416.986C681.647 416.986 681.37 416.708 681.37 416.366V393.797C681.37 393.454 681.647 393.177 681.99 393.177C682.332 393.177 682.61 393.454 682.61 393.797V416.366C682.61 416.708 682.332 416.986 681.99 416.986Z" fill="#AAA617"/>
<path d="M681.989 386.11L668.672 393.797L681.989 401.486L695.304 393.797L681.989 386.11Z" fill="#AF982B"/>
<path d="M681.989 337.375L668.672 345.064L681.989 352.752L695.304 345.064L681.989 337.375Z" fill="#58F28A"/>
<path d="M668.672 345.064V393.797L681.989 401.486V352.751L668.672 345.064Z" fill="#058A36"/>
<path d="M681.989 352.751V401.486L695.304 393.797V345.064L681.989 352.751Z" fill="url(#paint6_linear_1_108)"/>
<path d="M681.99 345.684C681.647 345.684 681.37 345.407 681.37 345.064V322.495C681.37 322.152 681.647 321.875 681.99 321.875C682.332 321.875 682.61 322.152 682.61 322.495V345.064C682.61 345.407 682.332 345.684 681.99 345.684Z" fill="#AAA617"/>
<path d="M727.55 305.114C727.55 305.114 726.879 306.952 726.839 307.407C726.798 307.862 726.416 308.685 727.594 309.304C727.594 309.304 728.97 309.963 729.357 310.045C729.357 310.045 727.892 309.532 727.48 309.492C727.067 309.451 726.258 309.265 725.546 310.905L724.844 312.714C724.844 312.714 725.498 310.788 725.563 310.39C725.628 309.993 725.95 309.062 724.7 308.465L723.135 307.812C723.135 307.812 724.405 308.305 725.195 308.368C725.985 308.43 726.65 307.588 727.55 305.114Z" fill="white" stroke="white" stroke-width="0.059467" stroke-miterlimit="10"/>
<circle cx="744.11" cy="280.391" r="0.908273" transform="rotate(5.63183 744.11 280.391)" fill="#33B568"/>
<circle cx="687.651" cy="331.737" r="0.908273" transform="rotate(5.63183 687.651 331.737)" fill="#33B568"/>
<circle cx="667.902" cy="399.847" r="0.908273" transform="rotate(5.63183 667.902 399.847)" fill="#33B568"/>
<circle cx="657.348" cy="363.925" r="0.908273" transform="rotate(5.63183 657.348 363.925)" fill="white"/>
<circle cx="744.571" cy="357.367" r="0.908273" transform="rotate(5.63183 744.571 357.367)" fill="white"/>
<circle cx="778.945" cy="351.237" r="0.504724" transform="rotate(5.63183 778.945 351.237)" fill="white"/>
<circle cx="773.188" cy="248.251" r="1.46774" transform="rotate(5.63183 773.188 248.251)" fill="#33B568"/>
<path d="M773.64 295.963C773.64 295.963 775.481 299.837 776.13 300.6C776.779 301.363 777.476 303.225 780.256 302.337C780.256 302.337 783.4 301.201 784.124 300.723C784.124 300.723 781.069 302.221 780.372 302.804C779.674 303.386 778.14 304.364 779.607 307.998L781.354 311.877C781.354 311.877 779.35 307.895 778.829 307.181C778.308 306.467 777.347 304.534 774.494 305.569L771.066 307.009C771.066 307.009 773.79 305.785 775.102 304.646C776.414 303.508 776.122 301.172 773.64 295.963Z" fill="white" stroke="white" stroke-width="0.059467" stroke-miterlimit="10"/>
<path d="M668.372 469.348C661.772 469.348 657.283 464.424 657.283 457.422C657.283 450.387 661.772 445.261 668.372 445.261C674.972 445.261 679.394 450.387 679.394 457.422C679.394 464.424 674.972 469.348 668.372 469.348ZM668.372 467.405C673.833 467.405 677.25 463.318 677.25 457.389C677.25 451.459 673.833 447.204 668.372 447.204C662.878 447.204 659.427 451.459 659.427 457.389C659.427 463.318 662.911 467.405 668.372 467.405ZM690.412 451.962C694.533 451.962 697.012 454.709 697.012 458.997V469.047H695.069V459.365C695.069 455.58 693.025 453.804 690.111 453.804C686.593 453.804 684.751 456.35 684.751 459.868V469.047H682.841V452.297H684.416L684.717 455.111C685.722 453.034 687.833 451.962 690.412 451.962ZM716.691 460.169V461.241H702.654C702.755 465.496 705.468 467.64 708.819 467.64C711.365 467.64 713.509 466.367 714.48 463.888H716.457C715.418 467.171 712.671 469.315 708.819 469.315C703.894 469.315 700.644 465.864 700.644 460.638C700.644 455.412 703.894 451.962 708.752 451.962C713.509 451.962 716.691 455.278 716.691 460.169ZM708.752 453.603C705.569 453.603 703.056 455.613 702.688 459.6H714.681C714.447 455.613 711.968 453.603 708.752 453.603ZM742.559 469.047L740.18 462.849H728.589L726.211 469.047H724.1L733.246 445.596H735.591L744.703 469.047H742.559ZM729.36 460.906H739.41L734.385 447.874L729.36 460.906ZM755.543 451.962C759.764 451.962 763.583 455.044 763.583 460.705C763.583 466.333 759.798 469.382 755.543 469.382C752.963 469.382 750.417 468.31 749.111 466.132V475.747H747.201V452.297H748.809L749.111 455.312C750.451 453.101 752.963 451.962 755.543 451.962ZM755.376 467.707C758.994 467.707 761.573 465.094 761.573 460.705C761.573 456.35 759.061 453.67 755.376 453.637C751.925 453.603 749.178 456.384 749.178 460.772C749.178 465.161 751.925 467.707 755.376 467.707ZM775.583 451.962C779.805 451.962 783.624 455.044 783.624 460.705C783.624 466.333 779.838 469.382 775.583 469.382C773.004 469.382 770.458 468.31 769.151 466.132V475.747H767.242V452.297H768.85L769.151 455.312C770.491 453.101 773.004 451.962 775.583 451.962ZM775.416 467.707C779.034 467.707 781.614 465.094 781.614 460.705C781.614 456.35 779.101 453.67 775.416 453.637C771.965 453.603 769.218 456.384 769.218 460.772C769.218 465.161 771.965 467.707 775.416 467.707ZM786.058 469.047V465.898H789.208V469.047H786.058ZM667.384 507.07H681.152V509.047H665.34V485.596H680.449V487.573H667.384V496.25H677.836V498.193H667.384V507.07ZM691.835 491.962C695.956 491.962 698.435 494.709 698.435 498.997V509.047H696.492V499.365C696.492 495.58 694.448 493.804 691.534 493.804C688.016 493.804 686.174 496.35 686.174 499.868V509.047H684.264V492.297H685.839L686.14 495.111C687.145 493.034 689.256 491.962 691.835 491.962ZM716.372 484.591H718.315V509.047H716.707L716.372 505.998C715.066 508.176 712.52 509.382 709.94 509.382C705.686 509.382 701.9 506.4 701.9 500.772C701.9 495.111 705.719 491.962 709.94 491.962C712.654 491.962 715.066 493.168 716.372 495.278V484.591ZM710.108 507.707C713.558 507.707 716.305 505.161 716.305 500.772C716.305 496.417 713.558 493.637 710.108 493.67C706.423 493.704 703.91 496.451 703.91 500.772C703.91 505.161 706.49 507.707 710.108 507.707ZM724.586 484.591V509.047H722.677V484.591H724.586ZM744.455 500.169V501.241H730.418C730.518 505.496 733.232 507.64 736.582 507.64C739.128 507.64 741.272 506.367 742.244 503.888H744.22C743.182 507.171 740.435 509.315 736.582 509.315C731.657 509.315 728.408 505.864 728.408 500.638C728.408 495.412 731.657 491.962 736.515 491.962C741.272 491.962 744.455 495.278 744.455 500.169ZM736.515 493.603C733.332 493.603 730.82 495.613 730.451 499.6H742.445C742.21 495.613 739.731 493.603 736.515 493.603ZM747.095 504.256H749.105C749.206 506.467 751.048 507.74 753.963 507.74C756.877 507.74 758.753 506.568 758.753 504.524C758.753 502.816 757.882 501.945 755.872 501.677L752.288 501.141C749.139 500.672 747.531 499.298 747.531 496.652C747.531 493.804 750.177 491.962 753.762 491.962C757.547 491.962 760.294 493.737 760.361 497.087H758.418C758.351 494.809 756.442 493.603 753.795 493.603C751.216 493.603 749.407 494.709 749.407 496.652C749.407 498.26 750.378 499.097 752.656 499.399L756.207 499.935C759.189 500.37 760.697 501.71 760.697 504.357C760.697 507.539 757.815 509.382 754.03 509.382C749.641 509.382 747.196 507.372 747.095 504.256ZM762.915 504.256H764.925C765.026 506.467 766.868 507.74 769.783 507.74C772.698 507.74 774.574 506.568 774.574 504.524C774.574 502.816 773.703 501.945 771.693 501.677L768.108 501.141C764.959 500.672 763.351 499.298 763.351 496.652C763.351 493.804 765.997 491.962 769.582 491.962C773.368 491.962 776.115 493.737 776.182 497.087H774.239C774.172 494.809 772.262 493.603 769.616 493.603C767.036 493.603 765.227 494.709 765.227 496.652C765.227 498.26 766.198 499.097 768.476 499.399L772.028 499.935C775.009 500.37 776.517 501.71 776.517 504.357C776.517 507.539 773.636 509.382 769.85 509.382C765.461 509.382 763.016 507.372 762.915 504.256ZM641.624 549.047V525.596H650.535C655.828 525.596 658.642 528.946 658.642 532.967C658.642 536.987 655.828 540.303 650.535 540.303H643.667V549.047H641.624ZM643.667 538.36H650.937C654.555 538.36 656.498 536.183 656.498 533.034C656.498 529.884 654.522 527.539 650.937 527.539H643.667V538.36ZM660.564 540.705C660.564 535.546 663.881 531.962 668.94 531.962C673.998 531.962 677.315 535.546 677.315 540.705C677.315 545.797 673.998 549.382 668.94 549.382C663.881 549.382 660.564 545.797 660.564 540.705ZM662.574 540.672C662.574 544.926 665.12 547.673 668.94 547.673C672.759 547.673 675.305 544.926 675.305 540.672C675.305 536.384 672.759 533.637 668.94 533.637C665.12 533.637 662.574 536.384 662.574 540.672ZM679.943 544.256H681.953C682.053 546.467 683.896 547.74 686.81 547.74C689.725 547.74 691.601 546.568 691.601 544.524C691.601 542.816 690.73 541.945 688.72 541.677L685.135 541.141C681.986 540.672 680.378 539.298 680.378 536.652C680.378 533.804 683.025 531.962 686.609 531.962C690.395 531.962 693.142 533.737 693.209 537.087H691.266C691.199 534.809 689.289 533.603 686.643 533.603C684.063 533.603 682.254 534.709 682.254 536.652C682.254 538.26 683.226 539.097 685.504 539.399L689.055 539.935C692.036 540.37 693.544 541.71 693.544 544.357C693.544 547.539 690.663 549.382 686.877 549.382C682.489 549.382 680.043 547.372 679.943 544.256ZM695.763 544.256H697.773C697.873 546.467 699.716 547.74 702.63 547.74C705.545 547.74 707.421 546.568 707.421 544.524C707.421 542.816 706.55 541.945 704.54 541.677L700.955 541.141C697.806 540.672 696.198 539.298 696.198 536.652C696.198 533.804 698.845 531.962 702.429 531.962C706.215 531.962 708.962 533.737 709.029 537.087H707.086C707.019 534.809 705.11 533.603 702.463 533.603C699.883 533.603 698.074 534.709 698.074 536.652C698.074 538.26 699.046 539.097 701.324 539.399L704.875 539.935C707.857 540.37 709.364 541.71 709.364 544.357C709.364 547.539 706.483 549.382 702.697 549.382C698.309 549.382 695.863 547.372 695.763 544.256ZM712.48 528.209V525.596H715.327V528.209H712.48ZM712.949 549.047V532.297H714.858V549.047H712.949ZM727.558 531.962C731.779 531.962 735.598 535.044 735.598 540.705C735.598 546.333 731.812 549.382 727.558 549.382C725.012 549.382 722.465 548.343 721.125 546.199L720.824 549.047H719.216V524.591H721.159V535.379C722.465 533.134 724.911 531.962 727.558 531.962ZM727.39 547.707C731.008 547.707 733.588 545.094 733.588 540.705C733.588 536.35 731.075 533.67 727.39 533.637C723.939 533.603 721.192 536.384 721.192 540.772C721.192 545.161 723.939 547.707 727.39 547.707ZM738.787 528.209V525.596H741.635V528.209H738.787ZM739.256 549.047V532.297H741.166V549.047H739.256ZM747.433 524.591V549.047H745.524V524.591H747.433ZM751.322 528.209V525.596H754.169V528.209H751.322ZM751.791 549.047V532.297H753.7V549.047H751.791ZM762.782 549.047C760.671 549.047 759.03 547.941 759.03 545.194V534.039H755.847V532.297H757.589C758.661 532.297 759.03 531.861 759.03 530.889V528.008H760.939V532.297H764.926V534.039H760.939V545.094C760.939 546.199 761.341 547.271 763.05 547.271H764.892V549.047H762.782ZM767.651 528.209V525.596H770.499V528.209H767.651ZM768.12 549.047V532.297H770.03V549.047H768.12ZM789.898 540.169V541.241H775.862C775.962 545.496 778.676 547.64 782.026 547.64C784.572 547.64 786.716 546.367 787.687 543.888H789.664C788.625 547.171 785.878 549.315 782.026 549.315C777.101 549.315 773.851 545.864 773.851 540.638C773.851 535.412 777.101 531.962 781.959 531.962C786.716 531.962 789.898 535.278 789.898 540.169ZM781.959 533.603C778.776 533.603 776.264 535.613 775.895 539.6H787.888C787.654 535.613 785.175 533.603 781.959 533.603ZM792.539 544.256H794.549C794.649 546.467 796.492 547.74 799.406 547.74C802.321 547.74 804.197 546.568 804.197 544.524C804.197 542.816 803.326 541.945 801.316 541.677L797.731 541.141C794.582 540.672 792.974 539.298 792.974 536.652C792.974 533.804 795.621 531.962 799.205 531.962C802.991 531.962 805.738 533.737 805.805 537.087H803.862C803.795 534.809 801.886 533.603 799.239 533.603C796.659 533.603 794.85 534.709 794.85 536.652C794.85 538.26 795.822 539.097 798.1 539.399L801.651 539.935C804.633 540.37 806.14 541.71 806.14 544.357C806.14 547.539 803.259 549.382 799.473 549.382C795.085 549.382 792.639 547.372 792.539 544.256Z" fill="white"/>
<path d="M825.171 800.698H621.387C602.116 800.698 586.494 816.318 586.494 835.586V1325.81C586.494 1345.08 602.116 1360.7 621.387 1360.7H825.171C844.441 1360.7 860.063 1345.08 860.063 1325.81V835.586C860.063 816.318 844.441 800.698 825.171 800.698Z" fill="black" stroke="url(#paint7_linear_1_108)" stroke-width="2.79173" stroke-miterlimit="10"/>
<g filter="url(#filter3_f_1_108)">
<path d="M825.171 800.698H621.387C602.116 800.698 586.494 816.318 586.494 835.586V1325.81C586.494 1345.08 602.116 1360.7 621.387 1360.7H825.171C844.441 1360.7 860.063 1345.08 860.063 1325.81V835.586C860.063 816.318 844.441 800.698 825.171 800.698Z" fill="black"/>
<path d="M825.171 800.698H621.387C602.116 800.698 586.494 816.318 586.494 835.586V1325.81C586.494 1345.08 602.116 1360.7 621.387 1360.7H825.171C844.441 1360.7 860.063 1345.08 860.063 1325.81V835.586C860.063 816.318 844.441 800.698 825.171 800.698Z" stroke="url(#paint8_linear_1_108)" stroke-width="1.11669" stroke-miterlimit="10"/>
</g>
<g opacity="0.4" filter="url(#filter4_f_1_108)">
<ellipse cx="586.205" cy="1139.88" rx="1.39586" ry="8.65435" fill="#DAF760"/>
</g>
<g opacity="0.5" filter="url(#filter5_f_1_108)">
<ellipse cx="859.795" cy="918.219" rx="1.39586" ry="12.0044" transform="rotate(180 859.795 918.219)" fill="white"/>
</g>
<path d="M736.045 980.044L738.125 978.835C747.933 984.497 747.984 993.666 738.241 999.328C728.507 1004.98 712.668 1004.99 702.861 999.328C693.064 993.672 693.012 984.491 702.746 978.834C712.489 973.172 728.329 973.178 738.126 978.834L736.046 980.043C727.409 975.055 713.43 975.049 704.84 980.043C696.257 985.03 696.302 993.133 704.942 998.119C713.589 1003.11 727.567 1003.11 736.149 998.119C744.742 993.126 744.696 985.037 736.047 980.044H736.045Z" fill="#58F28A"/>
<path d="M735.15 975.308C737.764 976.914 740.384 978.995 741.639 981.806C749.555 999.546 720.474 1007.09 704.941 998.119C701.522 996.146 699.449 993.685 698.724 991.121C697.776 987.681 698.085 984.04 699.551 981.38C699.928 980.696 700.81 979.096 702.837 977.376C704.377 976.069 706.145 974.978 708.091 974.134C712.189 972.354 716.997 971.529 721.994 971.745C728.98 972.048 733.522 974.337 735.151 975.307C734.224 974.772 733.453 975.372 733.406 975.41C726.25 971.275 714.651 971.271 707.533 975.41C700.419 979.54 700.456 986.267 707.617 990.397C714.782 994.537 726.381 994.532 733.49 990.397C740.614 986.259 740.577 979.548 733.406 975.411C733.453 975.374 734.224 974.773 735.151 975.308H735.15Z" fill="#28A45A"/>
<path d="M745.515 989.153C744.687 993.979 748.278 1000.69 738.168 1006.57C722.616 1015.61 695.37 1009.21 695.406 996.252L695.48 989.011C695.469 992.744 697.931 996.482 702.861 999.329C718.328 1008.26 745.478 1002.15 745.515 989.153Z" fill="#28A45A"/>
<path d="M733.413 972.533C740.584 976.671 740.621 983.382 733.497 987.52C726.388 991.655 714.789 991.66 707.624 987.52C700.463 983.389 700.425 976.663 707.54 972.533C714.658 968.393 726.257 968.397 733.413 972.533V972.533Z" fill="#58F28A"/>
<circle cx="720.461" cy="971.105" r="23.6661" fill="url(#paint9_linear_1_108)"/>
<path d="M691.448 961.508C691.448 961.508 690.849 963.149 690.813 963.556C690.777 963.962 690.436 964.697 691.488 965.25C691.488 965.25 692.716 965.838 693.062 965.912C693.062 965.912 691.754 965.453 691.385 965.417C691.017 965.381 690.295 965.215 689.659 966.679L689.032 968.294C689.032 968.294 689.615 966.575 689.674 966.22C689.732 965.864 690.019 965.033 688.903 964.5L687.506 963.917C687.506 963.917 688.639 964.358 689.345 964.413C690.05 964.469 690.645 963.717 691.448 961.508Z" fill="#33B568" stroke="#33B568" stroke-width="0.275772" stroke-miterlimit="10"/>
<circle cx="706.004" cy="941.046" r="0.811116" transform="rotate(5.63183 706.004 941.046)" fill="white"/>
<circle cx="692.702" cy="980.913" r="0.811116" transform="rotate(5.63183 692.702 980.913)" fill="#33B568"/>
<circle cx="695.48" cy="1008.31" r="0.811116" transform="rotate(5.63183 695.48 1008.31)" fill="white"/>
<circle cx="751.03" cy="997.645" r="0.450735" transform="rotate(5.63183 751.03 997.645)" fill="white"/>
<circle cx="734.742" cy="944.389" r="1.31073" transform="rotate(5.63183 734.742 944.389)" fill="#33B568"/>
<path d="M743.641 950.84C743.641 950.84 742.328 954.439 742.249 955.329C742.17 956.22 741.422 957.831 743.728 959.044C743.728 959.044 746.421 960.333 747.179 960.495C747.179 960.495 744.312 959.489 743.504 959.41C742.696 959.331 741.112 958.967 739.718 962.177L738.344 965.719C738.344 965.719 739.623 961.949 739.751 961.17C739.879 960.391 740.508 958.568 738.062 957.401L734.997 956.121C734.997 956.121 737.483 957.088 739.03 957.21C740.577 957.332 741.88 955.683 743.641 950.84Z" fill="white" stroke="white" stroke-width="0.275772" stroke-miterlimit="10"/>
<path d="M673.207 1058.52H660.176V1067.56H672.001V1069.51H660.176V1079.99H658.132V1056.54H673.207V1058.52ZM687.702 1063.24H689.611V1079.99H688.037L687.735 1077.18C686.73 1079.26 684.653 1080.33 682.208 1080.33C678.221 1080.33 675.776 1077.58 675.776 1073.29V1063.24H677.719V1072.92C677.719 1076.71 679.729 1078.49 682.509 1078.49C685.893 1078.49 687.702 1075.94 687.702 1072.42V1063.24ZM698.68 1079.99C696.569 1079.99 694.928 1078.89 694.928 1076.14V1064.98H691.745V1063.24H693.487C694.559 1063.24 694.928 1062.81 694.928 1061.84V1058.95H696.837V1063.24H700.824V1064.98H696.837V1076.04C696.837 1077.15 697.239 1078.22 698.948 1078.22H700.79V1079.99H698.68ZM715.744 1063.24H717.653V1079.99H716.079L715.777 1077.18C714.772 1079.26 712.695 1080.33 710.249 1080.33C706.263 1080.33 703.817 1077.58 703.817 1073.29V1063.24H705.76V1072.92C705.76 1076.71 707.77 1078.49 710.551 1078.49C713.935 1078.49 715.744 1075.94 715.744 1072.42V1063.24ZM728.396 1063.24H730.44V1065.09H728.363C725.415 1065.09 723.907 1067.13 723.907 1070.48V1079.99H721.998V1063.24H723.572L723.874 1065.89C724.611 1064.35 726.453 1063.24 728.396 1063.24ZM748.029 1071.12V1072.19H733.992C734.092 1076.44 736.806 1078.59 740.156 1078.59C742.702 1078.59 744.846 1077.31 745.818 1074.83H747.794C746.756 1078.12 744.009 1080.26 740.156 1080.26C735.231 1080.26 731.982 1076.81 731.982 1071.58C731.982 1066.36 735.231 1062.91 740.089 1062.91C744.846 1062.91 748.029 1066.22 748.029 1071.12ZM740.089 1064.55C736.907 1064.55 734.394 1066.56 734.025 1070.55H746.019C745.784 1066.56 743.305 1064.55 740.089 1064.55ZM756.912 1071.65C756.912 1066.49 760.228 1062.91 765.287 1062.91C770.345 1062.91 773.662 1066.49 773.662 1071.65C773.662 1076.74 770.345 1080.33 765.287 1080.33C760.228 1080.33 756.912 1076.74 756.912 1071.65ZM758.922 1071.62C758.922 1075.87 761.468 1078.62 765.287 1078.62C769.106 1078.62 771.652 1075.87 771.652 1071.62C771.652 1067.33 769.106 1064.58 765.287 1064.58C761.468 1064.58 758.922 1067.33 758.922 1071.62ZM775.452 1063.24H778.467V1059.56C778.467 1056.58 780.009 1055.54 782.588 1055.54H784.699V1057.31H782.488C780.779 1057.31 780.411 1058.22 780.411 1059.56V1063.24H784.699V1064.98H780.411V1079.99H778.467V1064.98H775.452V1063.24ZM650.909 1119.99V1096.54H658.246C665.85 1096.54 669.971 1101.37 669.971 1108.27C669.971 1115.17 665.85 1119.99 658.246 1119.99H650.909ZM652.953 1118.02H658.681C664.41 1117.98 667.827 1114.13 667.827 1108.27C667.827 1102.41 664.41 1098.52 658.681 1098.52H652.953V1118.02ZM688.943 1111.12V1112.19H674.906C675.006 1116.44 677.72 1118.59 681.07 1118.59C683.616 1118.59 685.76 1117.31 686.732 1114.83H688.708C687.67 1118.12 684.923 1120.26 681.07 1120.26C676.146 1120.26 672.896 1116.81 672.896 1111.58C672.896 1106.36 676.146 1102.91 681.003 1102.91C685.76 1102.91 688.943 1106.22 688.943 1111.12ZM681.003 1104.55C677.821 1104.55 675.308 1106.56 674.939 1110.55H686.933C686.698 1106.56 684.219 1104.55 681.003 1104.55ZM699.02 1103.24H701.064V1105.09H698.987C696.039 1105.09 694.531 1107.13 694.531 1110.48V1119.99H692.622V1103.24H694.196L694.498 1105.89C695.235 1104.35 697.077 1103.24 699.02 1103.24ZM703.327 1099.16V1096.54H706.175V1099.16H703.327ZM703.796 1119.99V1103.24H705.706V1119.99H703.796ZM710.03 1103.24L716.094 1117.61L722.191 1103.24H724.268L717.065 1119.99H715.089L707.886 1103.24H710.03ZM740.224 1118.42H740.794V1119.99H739.487C738.248 1119.99 737.042 1119.42 736.941 1117.55C735.97 1119.16 733.625 1120.33 730.844 1120.33C727.126 1120.33 724.814 1118.35 724.814 1115.24C724.814 1112.66 726.322 1110.45 731.313 1110.45H736.941V1109.44C736.941 1105.92 734.931 1104.58 732.184 1104.58C729.337 1104.58 727.628 1105.89 727.461 1108.1H725.484C725.786 1104.68 728.566 1102.91 732.251 1102.91C736.673 1102.91 738.884 1105.49 738.884 1109.37V1116.98C738.884 1118.12 739.119 1118.42 740.224 1118.42ZM731.012 1118.65C733.96 1118.65 736.941 1116.94 736.941 1112.89V1112.05H731.313C727.997 1112.05 726.824 1113.39 726.824 1115.27C726.824 1117.51 728.533 1118.65 731.012 1118.65ZM747.998 1119.99C745.887 1119.99 744.246 1118.89 744.246 1116.14V1104.98H741.063V1103.24H742.805C743.877 1103.24 744.246 1102.81 744.246 1101.84V1098.95H746.155V1103.24H750.142V1104.98H746.155V1116.04C746.155 1117.15 746.557 1118.22 748.266 1118.22H750.108V1119.99H747.998ZM752.867 1099.16V1096.54H755.715V1099.16H752.867ZM753.336 1119.99V1103.24H755.246V1119.99H753.336ZM759.57 1103.24L765.634 1117.61L771.731 1103.24H773.808L766.605 1119.99H764.629L757.426 1103.24H759.57ZM790.837 1111.12V1112.19H776.8C776.9 1116.44 779.614 1118.59 782.964 1118.59C785.51 1118.59 787.654 1117.31 788.625 1114.83H790.602C789.564 1118.12 786.816 1120.26 782.964 1120.26C778.039 1120.26 774.79 1116.81 774.79 1111.58C774.79 1106.36 778.039 1102.91 782.897 1102.91C787.654 1102.91 790.837 1106.22 790.837 1111.12ZM782.897 1104.55C779.714 1104.55 777.202 1106.56 776.833 1110.55H788.827C788.592 1106.56 786.113 1104.55 782.897 1104.55ZM676.34 1138.52V1159.99H674.33V1138.52H666.022V1136.54H684.682V1138.52H676.34ZM691.325 1143.24H693.369V1145.09H691.292C688.344 1145.09 686.836 1147.13 686.836 1150.48V1159.99H684.927V1143.24H686.501L686.803 1145.89C687.54 1144.35 689.382 1143.24 691.325 1143.24ZM709.755 1158.42H710.324V1159.99H709.018C707.778 1159.99 706.572 1159.42 706.472 1157.55C705.5 1159.16 703.155 1160.33 700.375 1160.33C696.656 1160.33 694.344 1158.35 694.344 1155.24C694.344 1152.66 695.852 1150.45 700.844 1150.45H706.472V1149.44C706.472 1145.92 704.462 1144.58 701.715 1144.58C698.867 1144.58 697.159 1145.89 696.991 1148.1H695.014C695.316 1144.68 698.097 1142.91 701.782 1142.91C706.204 1142.91 708.415 1145.49 708.415 1149.37V1156.98C708.415 1158.12 708.649 1158.42 709.755 1158.42ZM700.542 1158.65C703.49 1158.65 706.472 1156.94 706.472 1152.89V1152.05H700.844C697.527 1152.05 696.354 1153.39 696.354 1155.27C696.354 1157.51 698.063 1158.65 700.542 1158.65ZM726.901 1135.54H728.844V1159.99H727.236L726.901 1156.94C725.594 1159.12 723.048 1160.33 720.468 1160.33C716.214 1160.33 712.428 1157.35 712.428 1151.72C712.428 1146.06 716.247 1142.91 720.468 1142.91C723.182 1142.91 725.594 1144.11 726.901 1146.22V1135.54ZM720.636 1158.65C724.087 1158.65 726.834 1156.11 726.834 1151.72C726.834 1147.36 724.087 1144.58 720.636 1144.62C716.951 1144.65 714.438 1147.4 714.438 1151.72C714.438 1156.11 717.018 1158.65 720.636 1158.65ZM732.736 1139.16V1136.54H735.584V1139.16H732.736ZM733.205 1159.99V1143.24H735.114V1159.99H733.205ZM747.043 1142.91C751.164 1142.91 753.643 1145.65 753.643 1149.94V1159.99H751.7V1150.31C751.7 1146.53 749.656 1144.75 746.742 1144.75C743.224 1144.75 741.382 1147.3 741.382 1150.81V1159.99H739.472V1143.24H741.047L741.348 1146.06C742.353 1143.98 744.464 1142.91 747.043 1142.91ZM771.044 1143.24H772.652V1159.52C772.652 1164.01 769.637 1167.03 764.981 1167.03C761.094 1167.03 758.314 1164.88 757.61 1161.6H759.721C760.357 1164.08 762.401 1165.35 764.981 1165.35C768.699 1165.35 770.743 1163.14 770.743 1159.83V1156.11C769.704 1158.39 767.259 1159.66 764.579 1159.66C760.491 1159.66 757.108 1156.64 757.108 1151.32C757.108 1145.99 760.424 1142.91 764.579 1142.91C767.158 1142.91 769.57 1144.11 770.709 1146.29L771.044 1143.24ZM764.78 1157.98C768.264 1157.98 770.642 1155.44 770.642 1151.35C770.642 1147.3 768.297 1144.55 764.78 1144.55C761.262 1144.55 759.118 1147.33 759.118 1151.35C759.118 1155.4 761.296 1157.98 764.78 1157.98ZM776.432 1159.99V1156.84H779.581V1159.99H776.432Z" fill="white"/>
<path d="M825.171 1480.7H621.387C602.116 1480.7 586.494 1496.32 586.494 1515.59V2005.81C586.494 2025.08 602.116 2040.7 621.387 2040.7H825.171C844.441 2040.7 860.063 2025.08 860.063 2005.81V1515.59C860.063 1496.32 844.441 1480.7 825.171 1480.7Z" fill="black" stroke="url(#paint10_linear_1_108)" stroke-width="2.79173" stroke-miterlimit="10"/>
<g filter="url(#filter6_f_1_108)">
<path d="M825.053 1481H620.947C601.647 1481 586 1496.62 586 1515.89V2006.11C586 2025.38 601.647 2041 620.947 2041H825.053C844.353 2041 860 2025.38 860 2006.11V1515.89C860 1496.62 844.353 1481 825.053 1481Z" fill="black"/>
<path d="M825.053 1481H620.947C601.647 1481 586 1496.62 586 1515.89V2006.11C586 2025.38 601.647 2041 620.947 2041H825.053C844.353 2041 860 2025.38 860 2006.11V1515.89C860 1496.62 844.353 1481 825.053 1481Z" stroke="url(#paint11_linear_1_108)" stroke-width="1.11669" stroke-miterlimit="10"/>
</g>
<path d="M686.045 1644.57C686.045 1644.57 685.337 1646.51 685.295 1646.99C685.252 1647.47 684.849 1648.34 686.092 1648.99C686.092 1648.99 687.542 1649.69 687.95 1649.77C687.95 1649.77 686.406 1649.23 685.97 1649.19C685.535 1649.15 684.682 1648.95 683.932 1650.68L683.191 1652.59C683.191 1652.59 683.88 1650.56 683.949 1650.14C684.018 1649.72 684.357 1648.74 683.04 1648.11L681.389 1647.42C681.389 1647.42 682.728 1647.94 683.561 1648C684.394 1648.07 685.096 1647.18 686.045 1644.57Z" fill="#33B568" stroke="#33B568" stroke-width="0.275772" stroke-miterlimit="10"/>
<circle cx="705.742" cy="1618.5" r="0.957847" transform="rotate(5.63183 705.742 1618.5)" fill="#33B568"/>
<circle cx="691.783" cy="1675.3" r="0.957847" transform="rotate(5.63183 691.783 1675.3)" fill="#33B568"/>
<circle cx="706.229" cy="1699.68" r="0.957847" transform="rotate(5.63183 706.229 1699.68)" fill="white"/>
<circle cx="742.479" cy="1693.21" r="0.532273" transform="rotate(5.63183 742.479 1693.21)" fill="white"/>
<circle cx="744.753" cy="1626.82" r="1.54785" transform="rotate(5.63183 744.753 1626.82)" fill="#33B568"/>
<g opacity="0.4" filter="url(#filter7_f_1_108)">
<ellipse cx="586.205" cy="1819.88" rx="1.39586" ry="8.65435" fill="#DAF760"/>
</g>
<g opacity="0.5" filter="url(#filter8_f_1_108)">
<ellipse cx="859.795" cy="1598.22" rx="1.39586" ry="12.0044" transform="rotate(180 859.795 1598.22)" fill="white"/>
</g>
<path d="M639.301 1745.29V1768.74H637.257V1745.29H639.301ZM642.776 1763.95H644.786C644.887 1766.16 646.729 1767.43 649.644 1767.43C652.559 1767.43 654.435 1766.26 654.435 1764.21C654.435 1762.5 653.564 1761.63 651.554 1761.37L647.969 1760.83C644.82 1760.36 643.212 1758.99 643.212 1756.34C643.212 1753.49 645.858 1751.65 649.443 1751.65C653.229 1751.65 655.976 1753.43 656.043 1756.78H654.1C654.033 1754.5 652.123 1753.29 649.477 1753.29C646.897 1753.29 645.088 1754.4 645.088 1756.34C645.088 1757.95 646.059 1758.79 648.337 1759.09L651.889 1759.62C654.87 1760.06 656.378 1761.4 656.378 1764.05C656.378 1767.23 653.497 1769.07 649.711 1769.07C645.322 1769.07 642.877 1767.06 642.776 1763.95ZM673.441 1751.65C677.561 1751.65 680.04 1754.4 680.04 1758.69V1768.74H678.097V1759.05C678.097 1755.27 676.054 1753.49 673.139 1753.49C669.622 1753.49 667.779 1756.04 667.779 1759.56V1768.74H665.87V1751.99H667.444L667.746 1754.8C668.751 1752.72 670.861 1751.65 673.441 1751.65ZM683.505 1760.39C683.505 1755.24 686.822 1751.65 691.88 1751.65C696.939 1751.65 700.256 1755.24 700.256 1760.39C700.256 1765.49 696.939 1769.07 691.88 1769.07C686.822 1769.07 683.505 1765.49 683.505 1760.39ZM685.515 1760.36C685.515 1764.62 688.061 1767.36 691.88 1767.36C695.7 1767.36 698.246 1764.62 698.246 1760.36C698.246 1756.07 695.7 1753.33 691.88 1753.33C688.061 1753.33 685.515 1756.07 685.515 1760.36ZM703.796 1751.99L708.017 1766.56L712.942 1751.99H714.885L719.809 1766.56L723.896 1751.99H725.873L720.982 1768.74H718.704L713.813 1754.53L709.056 1768.74H706.778L701.752 1751.99H703.796ZM742.058 1751.65C745.307 1751.65 748.49 1753.39 748.49 1758.69V1768.74H746.547V1759.05C746.547 1755.13 744.671 1753.49 741.79 1753.49C738.172 1753.49 736.229 1756.11 736.229 1759.56V1768.74H734.319V1744.28H736.229V1754.73C737.301 1752.76 739.679 1751.65 742.058 1751.65ZM768.169 1759.86V1760.93H754.133C754.233 1765.18 756.947 1767.33 760.297 1767.33C762.843 1767.33 764.987 1766.06 765.958 1763.58H767.935C766.896 1766.86 764.149 1769 760.297 1769C755.372 1769 752.122 1765.55 752.122 1760.33C752.122 1755.1 755.372 1751.65 760.23 1751.65C764.987 1751.65 768.169 1754.97 768.169 1759.86ZM760.23 1753.29C757.047 1753.29 754.535 1755.3 754.166 1759.29H766.159C765.925 1755.3 763.446 1753.29 760.23 1753.29ZM778.247 1751.99H780.291V1753.83H778.213C775.265 1753.83 773.758 1755.87 773.758 1759.22V1768.74H771.848V1751.99H773.423L773.724 1754.63C774.461 1753.09 776.304 1751.99 778.247 1751.99ZM797.879 1759.86V1760.93H783.843C783.943 1765.18 786.657 1767.33 790.007 1767.33C792.553 1767.33 794.697 1766.06 795.668 1763.58H797.645C796.606 1766.86 793.859 1769 790.007 1769C785.082 1769 781.833 1765.55 781.833 1760.33C781.833 1755.1 785.082 1751.65 789.94 1751.65C794.697 1751.65 797.879 1754.97 797.879 1759.86ZM789.94 1753.29C786.757 1753.29 784.245 1755.3 783.876 1759.29H795.869C795.635 1755.3 793.156 1753.29 789.94 1753.29ZM800.435 1768.74V1765.59H803.584V1768.74L801.742 1772.49H800.335L802.177 1768.74H800.435ZM670.413 1791.99H673.428V1788.3C673.428 1785.32 674.969 1784.28 677.548 1784.28H679.659V1786.06H677.448C675.739 1786.06 675.371 1786.96 675.371 1788.3V1791.99H679.659V1793.73H675.371V1808.74H673.428V1793.73H670.413V1791.99ZM681.222 1800.39C681.222 1795.24 684.539 1791.65 689.597 1791.65C694.656 1791.65 697.973 1795.24 697.973 1800.39C697.973 1805.49 694.656 1809.07 689.597 1809.07C684.539 1809.07 681.222 1805.49 681.222 1800.39ZM683.232 1800.36C683.232 1804.62 685.778 1807.36 689.597 1807.36C693.417 1807.36 695.963 1804.62 695.963 1800.36C695.963 1796.07 693.417 1793.33 689.597 1793.33C685.778 1793.33 683.232 1796.07 683.232 1800.36ZM708.038 1791.99H710.081V1793.83H708.004C705.056 1793.83 703.549 1795.87 703.549 1799.22V1808.74H701.639V1791.99H703.214L703.515 1794.63C704.252 1793.09 706.095 1791.99 708.038 1791.99ZM718.688 1791.99L724.651 1807.9L730.145 1791.95L732.222 1791.99L725.187 1811.48C724.014 1814.7 722.406 1815.44 719.994 1815.44H717.012V1813.66H720.061C722.071 1813.66 723.311 1812.55 723.311 1810.31C723.311 1809.81 723.21 1809.27 723.009 1808.74L716.543 1791.99H718.688ZM733.314 1800.39C733.314 1795.24 736.631 1791.65 741.689 1791.65C746.748 1791.65 750.065 1795.24 750.065 1800.39C750.065 1805.49 746.748 1809.07 741.689 1809.07C736.631 1809.07 733.314 1805.49 733.314 1800.39ZM735.324 1800.36C735.324 1804.62 737.87 1807.36 741.689 1807.36C745.508 1807.36 748.055 1804.62 748.055 1800.36C748.055 1796.07 745.508 1793.33 741.689 1793.33C737.87 1793.33 735.324 1796.07 735.324 1800.36ZM765.456 1791.99H767.366V1808.74H765.791L765.49 1805.92C764.485 1808 762.408 1809.07 759.962 1809.07C755.976 1809.07 753.53 1806.32 753.53 1802.04V1791.99H755.473V1801.67C755.473 1805.45 757.483 1807.23 760.264 1807.23C763.647 1807.23 765.456 1804.68 765.456 1801.16V1791.99ZM771.141 1808.74V1805.59H774.29V1808.74H771.141Z" fill="white"/>
<path d="M759.14 1658.84L753.741 1664.62L747.256 1665.64L752.651 1659.86L759.14 1658.84Z" fill="#14AB4C"/>
<path d="M757.04 1669.48L751.641 1675.26L744.753 1676.35L750.148 1670.56L757.04 1669.48Z" fill="#14AB4C"/>
<path d="M729.424 1625.13L733.859 1634.85L740.751 1633.77L745.06 1643.22L751.549 1642.19L759.14 1658.84L752.651 1659.86L757.04 1669.48L750.147 1670.56L754.905 1680.99L717.736 1686.85L692.255 1630.99L729.424 1625.13Z" fill="url(#paint12_linear_1_108)"/>
<path d="M754.905 1680.99L749.506 1686.78L712.337 1692.63L717.736 1686.85L754.905 1680.99Z" fill="#14AB4C"/>
<path d="M717.736 1686.85L712.337 1692.63L686.86 1636.77L692.255 1630.99L717.736 1686.85Z" fill="#058A36"/>
<path d="M755.263 1634.44C755.263 1634.44 753.712 1638.69 753.619 1639.74C753.525 1640.8 752.641 1642.7 755.365 1644.13C755.365 1644.13 758.545 1645.65 759.44 1645.84C759.44 1645.84 756.054 1644.66 755.1 1644.56C754.146 1644.47 752.276 1644.04 750.63 1647.83L749.007 1652.01C749.007 1652.01 750.518 1647.56 750.669 1646.64C750.82 1645.72 751.562 1643.57 748.674 1642.19L745.055 1640.68C745.055 1640.68 747.991 1641.82 749.817 1641.96C751.643 1642.11 753.182 1640.16 755.263 1634.44Z" fill="white" stroke="white" stroke-width="0.275772" stroke-miterlimit="10"/>
<defs>
<filter id="filter0_f_1_108" x="580.353" y="114.557" width="285.852" height="572.284" filterUnits="userSpaceOnUse" color-interpolation-filters="sRGB">
<feFlood flood-opacity="0" result="BackgroundImageFix"/>
<feBlend mode="normal" in="SourceGraphic" in2="BackgroundImageFix" result="shape"/>
<feGaussianBlur stdDeviation="2.79173" result="effect1_foregroundBlur_1_108"/>
</filter>
<filter id="filter1_f_1_108" x="580.343" y="446.763" width="11.7252" height="26.2421" filterUnits="userSpaceOnUse" color-interpolation-filters="sRGB">
<feFlood flood-opacity="0" result="BackgroundImageFix"/>
<feBlend mode="normal" in="SourceGraphic" in2="BackgroundImageFix" result="shape"/>
<feGaussianBlur stdDeviation="2.23338" result="effect1_foregroundBlur_1_108"/>
</filter>
<filter id="filter2_f_1_108" x="853.932" y="221.75" width="11.7253" height="32.9423" filterUnits="userSpaceOnUse" color-interpolation-filters="sRGB">
<feFlood flood-opacity="0" result="BackgroundImageFix"/>
<feBlend mode="normal" in="SourceGraphic" in2="BackgroundImageFix" result="shape"/>
<feGaussianBlur stdDeviation="2.23338" result="effect1_foregroundBlur_1_108"/>
</filter>
<filter id="filter3_f_1_108" x="580.353" y="794.557" width="285.852" height="572.284" filterUnits="userSpaceOnUse" color-interpolation-filters="sRGB">
<feFlood flood-opacity="0" result="BackgroundImageFix"/>
<feBlend mode="normal" in="SourceGraphic" in2="BackgroundImageFix" result="shape"/>
<feGaussianBlur stdDeviation="2.79173" result="effect1_foregroundBlur_1_108"/>
</filter>
<filter id="filter4_f_1_108" x="580.343" y="1126.76" width="11.7252" height="26.2421" filterUnits="userSpaceOnUse" color-interpolation-filters="sRGB">
<feFlood flood-opacity="0" result="BackgroundImageFix"/>
<feBlend mode="normal" in="SourceGraphic" in2="BackgroundImageFix" result="shape"/>
<feGaussianBlur stdDeviation="2.23338" result="effect1_foregroundBlur_1_108"/>
</filter>
<filter id="filter5_f_1_108" x="853.932" y="901.748" width="11.7253" height="32.9423" filterUnits="userSpaceOnUse" color-interpolation-filters="sRGB">
<feFlood flood-opacity="0" result="BackgroundImageFix"/>
<feBlend mode="normal" in="SourceGraphic" in2="BackgroundImageFix" result="shape"/>
<feGaussianBlur stdDeviation="2.23338" result="effect1_foregroundBlur_1_108"/>
</filter>
<filter id="filter6_f_1_108" x="579.858" y="1474.86" width="286.284" height="572.284" filterUnits="userSpaceOnUse" color-interpolation-filters="sRGB">
<feFlood flood-opacity="0" result="BackgroundImageFix"/>
<feBlend mode="normal" in="SourceGraphic" in2="BackgroundImageFix" result="shape"/>
<feGaussianBlur stdDeviation="2.79173" result="effect1_foregroundBlur_1_108"/>
</filter>
<filter id="filter7_f_1_108" x="580.343" y="1806.76" width="11.7252" height="26.2421" filterUnits="userSpaceOnUse" color-interpolation-filters="sRGB">
<feFlood flood-opacity="0" result="BackgroundImageFix"/>
<feBlend mode="normal" in="SourceGraphic" in2="BackgroundImageFix" result="shape"/>
<feGaussianBlur stdDeviation="2.23338" result="effect1_foregroundBlur_1_108"/>
</filter>
<filter id="filter8_f_1_108" x="853.932" y="1581.75" width="11.7253" height="32.9423" filterUnits="userSpaceOnUse" color-interpolation-filters="sRGB">
<feFlood flood-opacity="0" result="BackgroundImageFix"/>
<feBlend mode="normal" in="SourceGraphic" in2="BackgroundImageFix" result="shape"/>
<feGaussianBlur stdDeviation="2.23338" result="effect1_foregroundBlur_1_108"/>
</filter>
<linearGradient id="paint0_linear_1_108" x1="802.091" y1="97.7654" x2="1103.25" y2="544.953" gradientUnits="userSpaceOnUse">
<stop stop-color="#1D7B6E"/>
<stop offset="1" stop-color="#E2FF6F" stop-opacity="0"/>
</linearGradient>
<linearGradient id="paint1_linear_1_108" x1="802.091" y1="97.7654" x2="1103.25" y2="544.953" gradientUnits="userSpaceOnUse">
<stop stop-color="#28B6A2"/>
<stop offset="1" stop-color="#E2FF6F" stop-opacity="0"/>
</linearGradient>
<linearGradient id="paint2_linear_1_108" x1="770.367" y1="263.685" x2="729.512" y2="330.461" gradientUnits="userSpaceOnUse">
<stop offset="0.4267" stop-color="#D4F938"/>
<stop offset="1" stop-color="#32D875" stop-opacity="0.96"/>
</linearGradient>
<linearGradient id="paint3_linear_1_108" x1="750.006" y1="309.331" x2="730.648" y2="359.616" gradientUnits="userSpaceOnUse">
<stop offset="0.4267" stop-color="#D4F938"/>
<stop offset="1" stop-color="#32D875" stop-opacity="0.96"/>
</linearGradient>
<linearGradient id="paint4_linear_1_108" x1="730.813" y1="340.487" x2="721.636" y2="376.433" gradientUnits="userSpaceOnUse">
<stop offset="0.4267" stop-color="#D4F938"/>
<stop offset="1" stop-color="#32D875" stop-opacity="0.96"/>
</linearGradient>
<linearGradient id="paint5_linear_1_108" x1="709.835" y1="305.832" x2="673.715" y2="369.967" gradientUnits="userSpaceOnUse">
<stop offset="0.4267" stop-color="#D4F938"/>
<stop offset="1" stop-color="#32D875" stop-opacity="0.96"/>
</linearGradient>
<linearGradient id="paint6_linear_1_108" x1="688.703" y1="346.599" x2="670.75" y2="395.284" gradientUnits="userSpaceOnUse">
<stop offset="0.4267" stop-color="#D4F938"/>
<stop offset="1" stop-color="#32D875" stop-opacity="0.96"/>
</linearGradient>
<linearGradient id="paint7_linear_1_108" x1="802.091" y1="777.765" x2="1103.25" y2="1224.95" gradientUnits="userSpaceOnUse">
<stop stop-color="#1D7B6E"/>
<stop offset="1" stop-color="#E2FF6F" stop-opacity="0"/>
</linearGradient>
<linearGradient id="paint8_linear_1_108" x1="802.091" y1="777.765" x2="1103.25" y2="1224.95" gradientUnits="userSpaceOnUse">
<stop stop-color="#28B6A2"/>
<stop offset="1" stop-color="#E2FF6F" stop-opacity="0"/>
</linearGradient>
<linearGradient id="paint9_linear_1_108" x1="720.664" y1="948.726" x2="720.664" y2="994.77" gradientUnits="userSpaceOnUse">
<stop offset="0.4375" stop-color="#D4F938"/>
<stop offset="1" stop-color="#32D875" stop-opacity="0.96"/>
</linearGradient>
<linearGradient id="paint10_linear_1_108" x1="802.091" y1="1457.77" x2="1103.25" y2="1904.95" gradientUnits="userSpaceOnUse">
<stop stop-color="#1D7B6E"/>
<stop offset="1" stop-color="#E2FF6F" stop-opacity="0"/>
</linearGradient>
<linearGradient id="paint11_linear_1_108" x1="801.937" y1="1458.07" x2="1102.92" y2="1905.69" gradientUnits="userSpaceOnUse">
<stop stop-color="#28B6A2"/>
<stop offset="1" stop-color="#E2FF6F" stop-opacity="0"/>
</linearGradient>
<linearGradient id="paint12_linear_1_108" x1="725.984" y1="1626.81" x2="721.157" y2="1686.92" gradientUnits="userSpaceOnUse">
<stop offset="0.4267" stop-color="#D4F938"/>
<stop offset="1" stop-color="#32D875" stop-opacity="0.96"/>
</linearGradient>
</defs>
</svg>
