<svg width="1446" height="362" viewBox="0 0 1446 362" fill="none" xmlns="http://www.w3.org/2000/svg">
<rect width="1446" height="360.288" transform="translate(-1.52588e-05 0.910156)" fill="#229851"/>
<path d="M661.539 68.5479H659.634C659.474 68.5479 659.344 68.6789 659.344 68.8406V70.7628C659.344 70.9245 659.474 71.0556 659.634 71.0556H661.539C661.699 71.0556 661.829 70.9245 661.829 70.7628V68.8406C661.829 68.6789 661.699 68.5479 661.539 68.5479Z" fill="white"/>
<path d="M664.977 68.5479H663.123C662.963 68.5479 662.833 68.6788 662.833 68.8406V70.7628C662.833 70.9246 662.963 71.0556 663.123 71.0556H664.977C665.166 71.0556 665.318 70.9015 665.318 70.7108V68.8945C665.318 68.7039 665.166 68.5498 664.977 68.5498V68.5479Z" fill="white"/>
<path d="M668.515 68.5479H666.61C666.45 68.5479 666.32 68.6789 666.32 68.8406V70.7628C666.32 70.9245 666.45 71.0556 666.61 71.0556H668.515C668.676 71.0556 668.806 70.9245 668.806 70.7628V68.8406C668.806 68.6789 668.676 68.5479 668.515 68.5479Z" fill="white"/>
<path d="M672.004 68.5479H670.099C669.939 68.5479 669.809 68.6789 669.809 68.8406V70.7628C669.809 70.9245 669.939 71.0556 670.099 71.0556H672.004C672.165 71.0556 672.295 70.9245 672.295 70.7628V68.8406C672.295 68.6789 672.165 68.5479 672.004 68.5479Z" fill="white"/>
<path d="M675.503 72.0449H673.598C673.438 72.0449 673.308 72.176 673.308 72.3377V74.2599C673.308 74.4216 673.438 74.5526 673.598 74.5526H675.503C675.663 74.5526 675.793 74.4216 675.793 74.2599V72.3377C675.793 72.176 675.663 72.0449 675.503 72.0449Z" fill="white"/>
<path d="M672.004 72.0449H670.099C669.939 72.0449 669.809 72.176 669.809 72.3377V74.2599C669.809 74.4216 669.939 74.5526 670.099 74.5526H672.004C672.165 74.5526 672.295 74.4216 672.295 74.2599V72.3377C672.295 72.176 672.165 72.0449 672.004 72.0449Z" fill="white"/>
<path d="M668.515 72.0449H666.61C666.45 72.0449 666.32 72.176 666.32 72.3377V74.2599C666.32 74.4216 666.45 74.5526 666.61 74.5526H668.515C668.676 74.5526 668.806 74.4216 668.806 74.2599V72.3377C668.806 72.176 668.676 72.0449 668.515 72.0449Z" fill="white"/>
<path d="M665.028 72.0439H663.175C662.986 72.0439 662.833 72.198 662.833 72.3887V74.205C662.833 74.3956 662.986 74.5497 663.175 74.5497H665.028C665.188 74.5497 665.318 74.4187 665.318 74.257V72.3348C665.318 72.173 665.188 72.042 665.028 72.042V72.0439Z" fill="white"/>
<path d="M661.539 72.0449H659.634C659.474 72.0449 659.344 72.176 659.344 72.3377V74.2599C659.344 74.4216 659.474 74.5526 659.634 74.5526H661.539C661.699 74.5526 661.829 74.4216 661.829 74.2599V72.3377C661.829 72.176 661.699 72.0449 661.539 72.0449Z" fill="white"/>
<path d="M661.488 75.541H659.686C659.497 75.541 659.344 75.6954 659.344 75.8858V77.704C659.344 77.8944 659.497 78.0487 659.686 78.0487H661.488C661.676 78.0487 661.829 77.8944 661.829 77.704V75.8858C661.829 75.6954 661.676 75.541 661.488 75.541Z" fill="white"/>
<path d="M665.028 75.54H663.175C662.986 75.54 662.833 75.6941 662.833 75.8848V77.701C662.833 77.8917 662.986 78.0458 663.175 78.0458H665.028C665.188 78.0458 665.318 77.9148 665.318 77.7531V75.8308C665.318 75.6691 665.188 75.5381 665.028 75.5381V75.54Z" fill="white"/>
<path d="M668.515 75.541H666.61C666.45 75.541 666.32 75.6721 666.32 75.8338V77.756C666.32 77.9177 666.45 78.0487 666.61 78.0487H668.515C668.676 78.0487 668.806 77.9177 668.806 77.756V75.8338C668.806 75.6721 668.676 75.541 668.515 75.541Z" fill="white"/>
<path d="M672.004 75.541H670.099C669.939 75.541 669.809 75.6721 669.809 75.8338V77.756C669.809 77.9177 669.939 78.0487 670.099 78.0487H672.004C672.165 78.0487 672.295 77.9177 672.295 77.756V75.8338C672.295 75.6721 672.165 75.541 672.004 75.541Z" fill="white"/>
<path d="M675.503 75.541H673.598C673.438 75.541 673.308 75.6721 673.308 75.8338V77.756C673.308 77.9177 673.438 78.0487 673.598 78.0487H675.503C675.663 78.0487 675.793 77.9177 675.793 77.756V75.8338C675.793 75.6721 675.663 75.541 675.503 75.541Z" fill="white"/>
<path d="M678.991 75.541H677.086C676.926 75.541 676.796 75.6721 676.796 75.8338V77.756C676.796 77.9177 676.926 78.0487 677.086 78.0487H678.991C679.151 78.0487 679.281 77.9177 679.281 77.756V75.8338C679.281 75.6721 679.151 75.541 678.991 75.541Z" fill="white"/>
<path d="M678.991 79.0371H677.086C676.926 79.0371 676.796 79.1682 676.796 79.3299V81.2521C676.796 81.4138 676.926 81.5448 677.086 81.5448H678.991C679.151 81.5448 679.281 81.4138 679.281 81.2521V79.3299C679.281 79.1682 679.151 79.0371 678.991 79.0371Z" fill="white"/>
<path d="M675.503 79.0371H673.598C673.438 79.0371 673.308 79.1682 673.308 79.3299V81.2521C673.308 81.4138 673.438 81.5448 673.598 81.5448H675.503C675.663 81.5448 675.793 81.4138 675.793 81.2521V79.3299C675.793 79.1682 675.663 79.0371 675.503 79.0371Z" fill="white"/>
<path d="M672.004 79.0371H670.099C669.939 79.0371 669.809 79.1682 669.809 79.3299V81.2521C669.809 81.4138 669.939 81.5448 670.099 81.5448H672.004C672.165 81.5448 672.295 81.4138 672.295 81.2521V79.3299C672.295 79.1682 672.165 79.0371 672.004 79.0371Z" fill="white"/>
<path d="M668.515 79.0371H666.61C666.449 79.0371 666.319 79.1682 666.319 79.3299V81.2521C666.319 81.4138 666.449 81.5448 666.61 81.5448H668.515C668.675 81.5448 668.805 81.4138 668.805 81.2521V79.3299C668.805 79.1682 668.675 79.0371 668.515 79.0371Z" fill="white"/>
<path d="M665.028 79.0361H663.175C662.986 79.0361 662.833 79.1902 662.833 79.3809V81.1971C662.833 81.3878 662.986 81.5419 663.175 81.5419H665.028C665.188 81.5419 665.318 81.4109 665.318 81.2491V79.3269C665.318 79.1652 665.188 79.0342 665.028 79.0342V79.0361Z" fill="white"/>
<path d="M661.539 79.0352H659.634C659.474 79.0352 659.344 79.1662 659.344 79.3279V81.2501C659.344 81.4118 659.474 81.5429 659.634 81.5429H661.539C661.699 81.5429 661.829 81.4118 661.829 81.2501V79.3279C661.829 79.1662 661.699 79.0352 661.539 79.0352Z" fill="white"/>
<path d="M661.539 82.5322H659.634C659.474 82.5322 659.344 82.6633 659.344 82.825V84.7472C659.344 84.9089 659.474 85.04 659.634 85.04H661.539C661.699 85.04 661.829 84.9089 661.829 84.7472V82.825C661.829 82.6633 661.699 82.5322 661.539 82.5322Z" fill="white"/>
<path d="M664.977 82.5234H663.123C662.934 82.5234 662.781 82.6775 662.781 82.8682V84.6844C662.781 84.8751 662.934 85.0292 663.123 85.0292H664.977C665.137 85.0292 665.267 84.8982 665.267 84.7364V82.8142C665.267 82.6525 665.137 82.5215 664.977 82.5215V82.5234Z" fill="white"/>
<path d="M668.515 82.5322H666.61C666.45 82.5322 666.32 82.6633 666.32 82.825V84.7472C666.32 84.9089 666.45 85.04 666.61 85.04H668.515C668.676 85.04 668.806 84.9089 668.806 84.7472V82.825C668.806 82.6633 668.676 82.5322 668.515 82.5322Z" fill="white"/>
<path d="M672.004 82.5322H670.099C669.939 82.5322 669.809 82.6633 669.809 82.825V84.7472C669.809 84.9089 669.939 85.04 670.099 85.04H672.004C672.165 85.04 672.295 84.9089 672.295 84.7472V82.825C672.295 82.6633 672.165 82.5322 672.004 82.5322Z" fill="white"/>
<path d="M675.503 82.5322H673.598C673.438 82.5322 673.308 82.6633 673.308 82.825V84.7472C673.308 84.9089 673.438 85.04 673.598 85.04H675.503C675.663 85.04 675.793 84.9089 675.793 84.7472V82.825C675.793 82.6633 675.663 82.5322 675.503 82.5322Z" fill="white"/>
<path d="M672.004 86.0254H670.099C669.939 86.0254 669.809 86.1565 669.809 86.3182V88.2404C669.809 88.402 669.939 88.5331 670.099 88.5331H672.004C672.165 88.5331 672.295 88.402 672.295 88.2404V86.3182C672.295 86.1565 672.165 86.0254 672.004 86.0254Z" fill="white"/>
<path d="M668.515 86.0254H666.61C666.45 86.0254 666.32 86.1565 666.32 86.3182V88.2404C666.32 88.402 666.45 88.5331 666.61 88.5331H668.515C668.676 88.5331 668.806 88.402 668.806 88.2404V86.3182C668.806 86.1565 668.676 86.0254 668.515 86.0254Z" fill="white"/>
<path d="M665.028 86.0254H663.175C662.986 86.0254 662.833 86.1794 662.833 86.3701V88.1864C662.833 88.3771 662.986 88.5312 663.175 88.5312H665.028C665.188 88.5312 665.318 88.4002 665.318 88.2384V86.3162C665.318 86.1544 665.188 86.0234 665.028 86.0234V86.0254Z" fill="white"/>
<path d="M661.539 86.0254H659.634C659.474 86.0254 659.344 86.1565 659.344 86.3182V88.2404C659.344 88.402 659.474 88.5331 659.634 88.5331H661.539C661.699 88.5331 661.829 88.402 661.829 88.2404V86.3182C661.829 86.1565 661.699 86.0254 661.539 86.0254Z" fill="white"/>
<path d="M661.539 68.5479H659.634C659.474 68.5479 659.344 68.6789 659.344 68.8406V70.7628C659.344 70.9245 659.474 71.0556 659.634 71.0556H661.539C661.699 71.0556 661.829 70.9245 661.829 70.7628V68.8406C661.829 68.6789 661.699 68.5479 661.539 68.5479Z" fill="white"/>
<path d="M664.977 68.5479H663.123C662.963 68.5479 662.833 68.6788 662.833 68.8406V70.7628C662.833 70.9246 662.963 71.0556 663.123 71.0556H664.977C665.166 71.0556 665.318 70.9015 665.318 70.7108V68.8945C665.318 68.7039 665.166 68.5498 664.977 68.5498V68.5479Z" fill="white"/>
<path d="M668.515 68.5479H666.61C666.45 68.5479 666.32 68.6789 666.32 68.8406V70.7628C666.32 70.9245 666.45 71.0556 666.61 71.0556H668.515C668.676 71.0556 668.806 70.9245 668.806 70.7628V68.8406C668.806 68.6789 668.676 68.5479 668.515 68.5479Z" fill="white"/>
<path d="M672.004 68.5479H670.099C669.939 68.5479 669.809 68.6789 669.809 68.8406V70.7628C669.809 70.9245 669.939 71.0556 670.099 71.0556H672.004C672.165 71.0556 672.295 70.9245 672.295 70.7628V68.8406C672.295 68.6789 672.165 68.5479 672.004 68.5479Z" fill="white"/>
<path d="M675.503 72.0449H673.598C673.438 72.0449 673.308 72.176 673.308 72.3377V74.2599C673.308 74.4216 673.438 74.5526 673.598 74.5526H675.503C675.663 74.5526 675.793 74.4216 675.793 74.2599V72.3377C675.793 72.176 675.663 72.0449 675.503 72.0449Z" fill="white"/>
<path d="M672.004 72.0449H670.099C669.939 72.0449 669.809 72.176 669.809 72.3377V74.2599C669.809 74.4216 669.939 74.5526 670.099 74.5526H672.004C672.165 74.5526 672.295 74.4216 672.295 74.2599V72.3377C672.295 72.176 672.165 72.0449 672.004 72.0449Z" fill="white"/>
<path d="M668.515 72.0449H666.61C666.45 72.0449 666.32 72.176 666.32 72.3377V74.2599C666.32 74.4216 666.45 74.5526 666.61 74.5526H668.515C668.676 74.5526 668.806 74.4216 668.806 74.2599V72.3377C668.806 72.176 668.676 72.0449 668.515 72.0449Z" fill="white"/>
<path d="M665.028 72.0439H663.175C662.986 72.0439 662.833 72.198 662.833 72.3887V74.205C662.833 74.3956 662.986 74.5497 663.175 74.5497H665.028C665.188 74.5497 665.318 74.4187 665.318 74.257V72.3348C665.318 72.173 665.188 72.042 665.028 72.042V72.0439Z" fill="white"/>
<path d="M661.539 72.0449H659.634C659.474 72.0449 659.344 72.176 659.344 72.3377V74.2599C659.344 74.4216 659.474 74.5526 659.634 74.5526H661.539C661.699 74.5526 661.829 74.4216 661.829 74.2599V72.3377C661.829 72.176 661.699 72.0449 661.539 72.0449Z" fill="white"/>
<path d="M661.488 75.541H659.686C659.497 75.541 659.344 75.6954 659.344 75.8858V77.704C659.344 77.8944 659.497 78.0487 659.686 78.0487H661.488C661.676 78.0487 661.829 77.8944 661.829 77.704V75.8858C661.829 75.6954 661.676 75.541 661.488 75.541Z" fill="white"/>
<path d="M665.028 75.54H663.175C662.986 75.54 662.833 75.6941 662.833 75.8848V77.701C662.833 77.8917 662.986 78.0458 663.175 78.0458H665.028C665.188 78.0458 665.318 77.9148 665.318 77.7531V75.8308C665.318 75.6691 665.188 75.5381 665.028 75.5381V75.54Z" fill="white"/>
<path d="M668.515 75.541H666.61C666.45 75.541 666.32 75.6721 666.32 75.8338V77.756C666.32 77.9177 666.45 78.0487 666.61 78.0487H668.515C668.676 78.0487 668.806 77.9177 668.806 77.756V75.8338C668.806 75.6721 668.676 75.541 668.515 75.541Z" fill="white"/>
<path d="M672.004 75.541H670.099C669.939 75.541 669.809 75.6721 669.809 75.8338V77.756C669.809 77.9177 669.939 78.0487 670.099 78.0487H672.004C672.165 78.0487 672.295 77.9177 672.295 77.756V75.8338C672.295 75.6721 672.165 75.541 672.004 75.541Z" fill="white"/>
<path d="M675.503 75.541H673.598C673.438 75.541 673.308 75.6721 673.308 75.8338V77.756C673.308 77.9177 673.438 78.0487 673.598 78.0487H675.503C675.663 78.0487 675.793 77.9177 675.793 77.756V75.8338C675.793 75.6721 675.663 75.541 675.503 75.541Z" fill="white"/>
<path d="M678.991 75.541H677.086C676.926 75.541 676.796 75.6721 676.796 75.8338V77.756C676.796 77.9177 676.926 78.0487 677.086 78.0487H678.991C679.151 78.0487 679.281 77.9177 679.281 77.756V75.8338C679.281 75.6721 679.151 75.541 678.991 75.541Z" fill="white"/>
<path d="M678.991 79.0371H677.086C676.926 79.0371 676.796 79.1682 676.796 79.3299V81.2521C676.796 81.4138 676.926 81.5448 677.086 81.5448H678.991C679.151 81.5448 679.281 81.4138 679.281 81.2521V79.3299C679.281 79.1682 679.151 79.0371 678.991 79.0371Z" fill="white"/>
<path d="M675.503 79.0371H673.598C673.438 79.0371 673.308 79.1682 673.308 79.3299V81.2521C673.308 81.4138 673.438 81.5448 673.598 81.5448H675.503C675.663 81.5448 675.793 81.4138 675.793 81.2521V79.3299C675.793 79.1682 675.663 79.0371 675.503 79.0371Z" fill="white"/>
<path d="M672.004 79.0371H670.099C669.939 79.0371 669.809 79.1682 669.809 79.3299V81.2521C669.809 81.4138 669.939 81.5448 670.099 81.5448H672.004C672.165 81.5448 672.295 81.4138 672.295 81.2521V79.3299C672.295 79.1682 672.165 79.0371 672.004 79.0371Z" fill="white"/>
<path d="M668.515 79.0371H666.61C666.449 79.0371 666.319 79.1682 666.319 79.3299V81.2521C666.319 81.4138 666.449 81.5448 666.61 81.5448H668.515C668.675 81.5448 668.805 81.4138 668.805 81.2521V79.3299C668.805 79.1682 668.675 79.0371 668.515 79.0371Z" fill="white"/>
<path d="M665.028 79.0361H663.175C662.986 79.0361 662.833 79.1902 662.833 79.3809V81.1971C662.833 81.3878 662.986 81.5419 663.175 81.5419H665.028C665.188 81.5419 665.318 81.4109 665.318 81.2491V79.3269C665.318 79.1652 665.188 79.0342 665.028 79.0342V79.0361Z" fill="white"/>
<path d="M661.539 79.0352H659.634C659.474 79.0352 659.344 79.1662 659.344 79.3279V81.2501C659.344 81.4118 659.474 81.5429 659.634 81.5429H661.539C661.699 81.5429 661.829 81.4118 661.829 81.2501V79.3279C661.829 79.1662 661.699 79.0352 661.539 79.0352Z" fill="white"/>
<path d="M661.539 82.5322H659.634C659.474 82.5322 659.344 82.6633 659.344 82.825V84.7472C659.344 84.9089 659.474 85.04 659.634 85.04H661.539C661.699 85.04 661.829 84.9089 661.829 84.7472V82.825C661.829 82.6633 661.699 82.5322 661.539 82.5322Z" fill="white"/>
<path d="M664.977 82.5234H663.123C662.934 82.5234 662.781 82.6775 662.781 82.8682V84.6844C662.781 84.8751 662.934 85.0292 663.123 85.0292H664.977C665.137 85.0292 665.267 84.8982 665.267 84.7364V82.8142C665.267 82.6525 665.137 82.5215 664.977 82.5215V82.5234Z" fill="white"/>
<path d="M668.515 82.5322H666.61C666.45 82.5322 666.32 82.6633 666.32 82.825V84.7472C666.32 84.9089 666.45 85.04 666.61 85.04H668.515C668.676 85.04 668.806 84.9089 668.806 84.7472V82.825C668.806 82.6633 668.676 82.5322 668.515 82.5322Z" fill="white"/>
<path d="M672.004 82.5322H670.099C669.939 82.5322 669.809 82.6633 669.809 82.825V84.7472C669.809 84.9089 669.939 85.04 670.099 85.04H672.004C672.165 85.04 672.295 84.9089 672.295 84.7472V82.825C672.295 82.6633 672.165 82.5322 672.004 82.5322Z" fill="white"/>
<path d="M675.503 82.5322H673.598C673.438 82.5322 673.308 82.6633 673.308 82.825V84.7472C673.308 84.9089 673.438 85.04 673.598 85.04H675.503C675.663 85.04 675.793 84.9089 675.793 84.7472V82.825C675.793 82.6633 675.663 82.5322 675.503 82.5322Z" fill="white"/>
<path d="M672.004 86.0254H670.099C669.939 86.0254 669.809 86.1565 669.809 86.3182V88.2404C669.809 88.402 669.939 88.5331 670.099 88.5331H672.004C672.165 88.5331 672.295 88.402 672.295 88.2404V86.3182C672.295 86.1565 672.165 86.0254 672.004 86.0254Z" fill="white"/>
<path d="M668.515 86.0254H666.61C666.45 86.0254 666.32 86.1565 666.32 86.3182V88.2404C666.32 88.402 666.45 88.5331 666.61 88.5331H668.515C668.676 88.5331 668.806 88.402 668.806 88.2404V86.3182C668.806 86.1565 668.676 86.0254 668.515 86.0254Z" fill="white"/>
<path d="M665.028 86.0254H663.175C662.986 86.0254 662.833 86.1794 662.833 86.3701V88.1864C662.833 88.3771 662.986 88.5312 663.175 88.5312H665.028C665.188 88.5312 665.318 88.4002 665.318 88.2384V86.3162C665.318 86.1544 665.188 86.0234 665.028 86.0234V86.0254Z" fill="white"/>
<path d="M661.539 86.0254H659.634C659.474 86.0254 659.344 86.1565 659.344 86.3182V88.2404C659.344 88.402 659.474 88.5331 659.634 88.5331H661.539C661.699 88.5331 661.829 88.402 661.829 88.2404V86.3182C661.829 86.1565 661.699 86.0254 661.539 86.0254Z" fill="white"/>
<path d="M697.851 72.668C696.842 71.0786 694.953 69.9434 692.153 69.9434C687.562 69.9434 684.175 73.3492 684.175 78.4093C684.175 83.7938 687.562 86.8752 692.153 86.8752C694.953 86.8752 696.744 85.5453 697.851 84.0208L698.209 86.6806H700.521V63.975H697.851V72.668ZM692.413 84.5074C689.125 84.5074 686.911 82.0098 686.911 78.4093C686.911 74.8088 689.125 72.3112 692.413 72.3112C695.669 72.3112 697.884 74.8413 697.884 78.4742C697.884 82.0098 695.669 84.5074 692.413 84.5074Z" fill="white"/>
<path d="M711.577 86.8752C715.419 86.8752 718.155 84.4425 718.806 81.134H716.103C715.55 83.2748 713.726 84.5074 711.382 84.5074C708.224 84.5074 706.237 82.3017 706.14 79.1553V78.9283H719.034C719.066 78.539 719.099 78.1498 719.099 77.793C718.969 72.8951 715.908 69.9434 711.219 69.9434C706.53 69.9434 703.339 73.3816 703.339 78.4093C703.339 83.4694 706.595 86.8752 711.577 86.8752ZM706.302 76.7226C706.563 74.0304 708.81 72.2788 711.252 72.2788C714.019 72.2788 715.973 73.8682 716.233 76.7226H706.302Z" fill="white"/>
<path d="M730.053 69.9434C727.253 69.9434 725.56 71.1111 724.583 72.3761L724.225 70.138H721.913V86.6806H724.583V78.4093C724.583 74.6791 726.471 72.3761 729.597 72.3761C732.495 72.3761 734.091 74.1925 734.091 77.6308V86.6806H736.761V77.4686C736.761 71.9869 733.798 69.9434 730.053 69.9434Z" fill="white"/>
<path d="M739.248 81.2313C739.314 84.8642 742.277 86.8752 746.575 86.8752C750.254 86.8752 753.217 84.9615 753.217 81.88C753.217 78.2147 750.189 77.5011 746.412 77.047C744.002 76.755 742.244 76.528 742.244 74.7115C742.244 73.187 743.807 72.2139 746.119 72.2139C748.398 72.2139 749.961 73.4789 750.156 75.1656H752.891C752.631 71.7274 749.896 69.9758 746.119 69.9434C742.374 69.9109 739.607 71.8895 739.607 74.9061C739.607 78.3444 742.57 79.0905 746.282 79.5446C748.756 79.8365 750.58 79.9987 750.58 82.0746C750.58 83.5991 748.919 84.6047 746.575 84.6047C743.807 84.6047 742.081 83.1775 741.984 81.2313H739.248Z" fill="white"/>
<path d="M757.316 67.3484C758.293 67.3484 759.041 66.6348 759.041 65.6293C759.041 64.6238 758.293 63.9102 757.316 63.9102C756.339 63.9102 755.59 64.6238 755.59 65.6293C755.59 66.6348 756.339 67.3484 757.316 67.3484ZM755.948 86.6806H758.618V70.138H755.948V86.6806Z" fill="white"/>
<path d="M763.281 82.3666C763.281 85.2858 764.42 86.6806 767.611 86.6806H770.509V84.2479H767.872C766.439 84.2479 765.951 83.7289 765.951 82.3341V72.5707H770.249V70.138H765.951V65.4995H763.281V70.138H760.285V72.5707H763.281V82.3666Z" fill="white"/>
<path d="M777.409 86.7779L776.595 88.789C775.976 90.3459 775.716 90.7352 774.186 90.7352H771.809V93.1679H775C777.344 93.1679 777.963 92.13 779.005 89.4702L786.656 70.138H783.824L778.874 83.3397L773.762 70.138H770.93L777.409 86.7779Z" fill="white"/>
<path d="M499.844 138.391H494.609V141.793H499.271V142.871H494.609V147.168H493.405V137.285H499.844V138.391ZM507.42 143.445V143.948H501.737C501.765 145.516 502.787 146.328 504.061 146.328C505.013 146.328 505.811 145.866 506.161 144.942H507.337C506.931 146.356 505.713 147.294 504.033 147.294C501.947 147.294 500.562 145.824 500.562 143.613C500.562 141.401 501.947 139.945 504.019 139.945C506.063 139.945 507.42 141.345 507.42 143.445ZM504.019 140.883C502.829 140.883 501.891 141.611 501.751 143.095H506.245C506.161 141.625 505.209 140.883 504.019 140.883ZM515.663 143.445V143.948H509.98C510.008 145.516 511.03 146.328 512.304 146.328C513.256 146.328 514.054 145.866 514.404 144.942H515.579C515.173 146.356 513.956 147.294 512.276 147.294C510.19 147.294 508.804 145.824 508.804 143.613C508.804 141.401 510.19 139.945 512.262 139.945C514.306 139.945 515.663 141.345 515.663 143.445ZM512.262 140.883C511.072 140.883 510.134 141.611 509.994 143.095H514.488C514.404 141.625 513.452 140.883 512.262 140.883ZM516.946 145.082H518.108C518.136 145.922 518.864 146.412 519.956 146.412C521.034 146.412 521.72 145.978 521.72 145.236C521.72 144.606 521.384 144.27 520.558 144.158L519.088 143.92C517.744 143.696 517.128 143.053 517.128 141.989C517.128 140.743 518.318 139.945 519.872 139.945C521.538 139.945 522.741 140.743 522.755 142.157H521.622C521.594 141.303 520.88 140.841 519.886 140.841C518.906 140.841 518.262 141.261 518.262 141.961C518.262 142.563 518.654 142.857 519.536 142.983L520.978 143.221C522.266 143.431 522.881 144.046 522.881 145.138C522.881 146.538 521.608 147.308 519.984 147.308C518.122 147.308 516.974 146.44 516.946 145.082Z" fill="white"/>
<path d="M415.86 142.045C416.952 142.381 417.596 143.291 417.596 144.466C417.596 146.104 416.392 147.168 414.404 147.168H409.995V137.285H414.054C416.084 137.285 417.246 138.307 417.246 139.847C417.246 140.715 416.854 141.583 415.86 142.045ZM416.028 139.987C416.028 138.993 415.342 138.363 414.012 138.363H411.199V141.611H414.18C415.314 141.611 416.028 141.009 416.028 139.987ZM414.25 146.09C415.636 146.09 416.336 145.432 416.336 144.382C416.336 143.305 415.622 142.633 414.362 142.633H411.199V146.09H414.25ZM420.341 136.866V147.168H419.193V136.866H420.341ZM422.071 143.641C422.071 141.457 423.513 139.945 425.654 139.945C427.796 139.945 429.252 141.457 429.252 143.641C429.252 145.81 427.796 147.308 425.654 147.308C423.513 147.308 422.071 145.81 422.071 143.641ZM423.247 143.627C423.247 145.25 424.213 146.314 425.654 146.314C427.096 146.314 428.062 145.25 428.062 143.627C428.062 141.975 427.096 140.925 425.654 140.925C424.213 140.925 423.247 141.975 423.247 143.627ZM436.381 140.085H437.389V146.86C437.389 148.834 436.059 150.108 434.03 150.108C432.308 150.108 431.09 149.17 430.824 147.728H432.014C432.252 148.666 433.036 149.142 434.03 149.142C435.457 149.142 436.255 148.302 436.255 147.042V145.698C435.835 146.524 434.883 147.014 433.792 147.014C432.014 147.014 430.628 145.712 430.628 143.487C430.628 141.261 432 139.945 433.806 139.945C434.869 139.945 435.765 140.421 436.241 141.233L436.381 140.085ZM433.988 146.02C435.317 146.02 436.227 145.04 436.227 143.515C436.227 141.989 435.331 140.953 433.988 140.953C432.644 140.953 431.818 142.003 431.818 143.501C431.818 145.026 432.658 146.02 433.988 146.02Z" fill="white"/>
<path d="M579.355 146.034H584.324V147.168H578.151V137.285H579.355V146.034ZM591.906 143.445V143.948H586.223C586.251 145.516 587.273 146.328 588.547 146.328C589.498 146.328 590.296 145.866 590.646 144.942H591.822C591.416 146.356 590.198 147.294 588.519 147.294C586.433 147.294 585.047 145.824 585.047 143.613C585.047 141.401 586.433 139.945 588.505 139.945C590.548 139.945 591.906 141.345 591.906 143.445ZM588.505 140.883C587.315 140.883 586.377 141.611 586.237 143.095H590.73C590.646 141.625 589.694 140.883 588.505 140.883ZM599.88 146.272H600.132V147.168H599.432C598.872 147.168 598.354 146.944 598.284 146.202C597.864 146.86 596.94 147.308 595.807 147.308C594.225 147.308 593.245 146.482 593.245 145.138C593.245 144.004 593.945 143.095 595.961 143.095H598.2V142.703C598.2 141.429 597.458 140.897 596.409 140.897C595.331 140.897 594.659 141.415 594.603 142.255H593.497C593.581 140.757 594.799 139.945 596.451 139.945C598.214 139.945 599.362 140.911 599.362 142.689V145.726C599.362 146.174 599.474 146.272 599.88 146.272ZM598.2 144.27V143.948H596.073C594.855 143.948 594.435 144.452 594.435 145.124C594.435 145.95 595.093 146.356 596.003 146.356C597.164 146.356 598.2 145.712 598.2 144.27ZM607.18 136.866H608.328V147.168H607.32L607.18 145.964C606.69 146.804 605.696 147.308 604.591 147.308C602.729 147.308 601.217 146.006 601.217 143.655C601.217 141.275 602.757 139.945 604.591 139.945C605.724 139.945 606.69 140.435 607.18 141.247V136.866ZM604.773 146.3C606.102 146.3 607.152 145.32 607.152 143.655C607.152 142.003 606.102 140.953 604.773 140.967C603.373 140.981 602.407 142.017 602.407 143.655C602.407 145.32 603.387 146.3 604.773 146.3ZM616.976 143.445V143.948H611.293C611.321 145.516 612.343 146.328 613.617 146.328C614.569 146.328 615.367 145.866 615.717 144.942H616.892C616.486 146.356 615.269 147.294 613.589 147.294C611.503 147.294 610.117 145.824 610.117 143.613C610.117 141.401 611.503 139.945 613.575 139.945C615.619 139.945 616.976 141.345 616.976 143.445ZM613.575 140.883C612.385 140.883 611.447 141.611 611.307 143.095H615.801C615.717 141.625 614.765 140.883 613.575 140.883ZM621.661 140.085H622.557V141.149H621.619C620.401 141.149 619.855 141.947 619.855 143.263V147.168H618.707V140.085H619.715L619.869 141.093C620.163 140.533 620.835 140.085 621.661 140.085ZM627.639 139.945C629.501 139.945 631.012 141.289 631.012 143.641C631.012 146.006 629.473 147.308 627.639 147.308C626.547 147.308 625.553 146.86 625.049 146.048L624.923 147.168H623.902V136.866H625.063V141.275C625.553 140.421 626.533 139.945 627.639 139.945ZM627.457 146.3C628.843 146.3 629.823 145.292 629.823 143.641C629.823 141.989 628.857 140.967 627.457 140.953C626.127 140.953 625.091 141.989 625.091 143.655C625.091 145.32 626.127 146.3 627.457 146.3ZM632.343 143.641C632.343 141.457 633.785 139.945 635.927 139.945C638.068 139.945 639.524 141.457 639.524 143.641C639.524 145.81 638.068 147.308 635.927 147.308C633.785 147.308 632.343 145.81 632.343 143.641ZM633.519 143.627C633.519 145.25 634.485 146.314 635.927 146.314C637.368 146.314 638.334 145.25 638.334 143.627C638.334 141.975 637.368 140.925 635.927 140.925C634.485 140.925 633.519 141.975 633.519 143.627ZM647.492 146.272H647.744V147.168H647.044C646.484 147.168 645.966 146.944 645.896 146.202C645.476 146.86 644.552 147.308 643.418 147.308C641.837 147.308 640.857 146.482 640.857 145.138C640.857 144.004 641.557 143.095 643.572 143.095H645.812V142.703C645.812 141.429 645.07 140.897 644.02 140.897C642.943 140.897 642.271 141.415 642.215 142.255H641.109C641.193 140.757 642.411 139.945 644.062 139.945C645.826 139.945 646.974 140.911 646.974 142.689V145.726C646.974 146.174 647.086 146.272 647.492 146.272ZM645.812 144.27V143.948H643.684C642.467 143.948 642.047 144.452 642.047 145.124C642.047 145.95 642.705 146.356 643.614 146.356C644.776 146.356 645.812 145.712 645.812 144.27ZM652.103 140.085H652.999V141.149H652.062C650.844 141.149 650.298 141.947 650.298 143.263V147.168H649.15V140.085H650.158L650.312 141.093C650.606 140.533 651.278 140.085 652.103 140.085ZM659.782 136.866H660.929V147.168H659.922L659.782 145.964C659.292 146.804 658.298 147.308 657.192 147.308C655.33 147.308 653.818 146.006 653.818 143.655C653.818 141.275 655.358 139.945 657.192 139.945C658.326 139.945 659.292 140.435 659.782 141.247V136.866ZM657.374 146.3C658.704 146.3 659.754 145.32 659.754 143.655C659.754 142.003 658.704 140.953 657.374 140.967C655.974 140.981 655.008 142.017 655.008 143.655C655.008 145.32 655.988 146.3 657.374 146.3Z" fill="white"/>
<path d="M827.3 146.174C828.783 146.174 829.847 145.516 830.435 144.074H831.751C831.163 146.006 829.623 147.294 827.286 147.294C824.486 147.294 822.61 145.25 822.61 142.283C822.61 139.315 824.472 137.146 827.314 137.146C829.623 137.146 831.177 138.391 831.751 140.365H830.435C829.861 138.937 828.769 138.265 827.3 138.265C825.186 138.265 823.856 139.917 823.856 142.241C823.856 144.578 825.186 146.174 827.3 146.174ZM833.097 143.641C833.097 141.457 834.539 139.945 836.68 139.945C838.822 139.945 840.278 141.457 840.278 143.641C840.278 145.81 838.822 147.308 836.68 147.308C834.539 147.308 833.097 145.81 833.097 143.641ZM834.273 143.627C834.273 145.25 835.239 146.314 836.68 146.314C838.122 146.314 839.088 145.25 839.088 143.627C839.088 141.975 838.122 140.925 836.68 140.925C835.239 140.925 834.273 141.975 834.273 143.627ZM845.446 139.945C847.21 139.945 848.246 141.121 848.246 142.927V147.168H847.098V143.165C847.098 141.695 846.328 140.995 845.18 140.995C843.85 140.995 843.136 141.947 843.136 143.333V147.168H841.989V140.085H842.996L843.122 141.177C843.528 140.393 844.354 139.945 845.446 139.945ZM852.319 147.168C851.269 147.168 850.583 146.594 850.583 145.39V141.121H849.309V140.085H849.981C850.429 140.085 850.583 139.889 850.583 139.455V138.237H851.731V140.085H853.397V141.121H851.731V145.236C851.731 145.754 851.899 146.132 852.585 146.132H853.383V147.168H852.319ZM861.191 146.272H861.443V147.168H860.743C860.183 147.168 859.665 146.944 859.595 146.202C859.175 146.86 858.251 147.308 857.118 147.308C855.536 147.308 854.556 146.482 854.556 145.138C854.556 144.004 855.256 143.095 857.271 143.095H859.511V142.703C859.511 141.429 858.769 140.897 857.719 140.897C856.642 140.897 855.97 141.415 855.914 142.255H854.808C854.892 140.757 856.11 139.945 857.761 139.945C859.525 139.945 860.673 140.911 860.673 142.689V145.726C860.673 146.174 860.785 146.272 861.191 146.272ZM859.511 144.27V143.948H857.383C856.166 143.948 855.746 144.452 855.746 145.124C855.746 145.95 856.404 146.356 857.313 146.356C858.475 146.356 859.511 145.712 859.511 144.27ZM868.043 142.451C867.707 141.499 866.951 140.939 865.999 140.939C864.684 140.939 863.704 141.863 863.704 143.613C863.704 145.39 864.698 146.286 865.985 146.286C866.979 146.286 867.749 145.712 868.099 144.69H869.317C868.925 146.272 867.679 147.294 865.985 147.294C863.914 147.294 862.528 145.824 862.528 143.613C862.528 141.401 863.914 139.945 865.985 139.945C867.651 139.945 868.897 140.869 869.303 142.451H868.043ZM872.796 147.168C871.746 147.168 871.06 146.594 871.06 145.39V141.121H869.787V140.085H870.458C870.906 140.085 871.06 139.889 871.06 139.455V138.237H872.208V140.085H873.874V141.121H872.208V145.236C872.208 145.754 872.376 146.132 873.062 146.132H873.86V147.168H872.796ZM879.363 137.285V143.459C879.363 145.222 880.356 146.216 882.05 146.216C883.73 146.216 884.724 145.222 884.724 143.459V137.285H885.928V143.459C885.928 145.796 884.402 147.308 882.05 147.308C879.685 147.308 878.173 145.81 878.173 143.459V137.285H879.363ZM887.499 145.082H888.661C888.689 145.922 889.416 146.412 890.508 146.412C891.586 146.412 892.272 145.978 892.272 145.236C892.272 144.606 891.936 144.27 891.11 144.158L889.64 143.92C888.297 143.696 887.681 143.053 887.681 141.989C887.681 140.743 888.871 139.945 890.424 139.945C892.09 139.945 893.294 140.743 893.308 142.157H892.174C892.146 141.303 891.432 140.841 890.438 140.841C889.458 140.841 888.815 141.261 888.815 141.961C888.815 142.563 889.206 142.857 890.088 142.983L891.53 143.221C892.818 143.431 893.434 144.046 893.434 145.138C893.434 146.538 892.16 147.308 890.536 147.308C888.675 147.308 887.527 146.44 887.499 145.082Z" fill="white"/>
<path d="M721.201 146.174C722.685 146.174 723.749 145.516 724.337 144.074H725.653C725.065 146.006 723.525 147.294 721.187 147.294C718.388 147.294 716.512 145.25 716.512 142.283C716.512 139.315 718.374 137.146 721.215 137.146C723.525 137.146 725.079 138.391 725.653 140.365H724.337C723.763 138.937 722.671 138.265 721.201 138.265C719.088 138.265 717.758 139.917 717.758 142.241C717.758 144.578 719.088 146.174 721.201 146.174ZM733.522 146.272H733.774V147.168H733.074C732.514 147.168 731.996 146.944 731.926 146.202C731.506 146.86 730.582 147.308 729.448 147.308C727.867 147.308 726.887 146.482 726.887 145.138C726.887 144.004 727.587 143.095 729.602 143.095H731.842V142.703C731.842 141.429 731.1 140.897 730.05 140.897C728.972 140.897 728.301 141.415 728.245 142.255H727.139C727.223 140.757 728.441 139.945 730.092 139.945C731.856 139.945 733.004 140.911 733.004 142.689V145.726C733.004 146.174 733.116 146.272 733.522 146.272ZM731.842 144.27V143.948H729.714C728.497 143.948 728.077 144.452 728.077 145.124C728.077 145.95 728.734 146.356 729.644 146.356C730.806 146.356 731.842 145.712 731.842 144.27ZM738.133 140.085H739.029V141.149H738.091C736.874 141.149 736.328 141.947 736.328 143.263V147.168H735.18V140.085H736.188L736.342 141.093C736.636 140.533 737.308 140.085 738.133 140.085ZM746.763 143.445V143.948H741.08C741.108 145.516 742.13 146.328 743.404 146.328C744.356 146.328 745.154 145.866 745.503 144.942H746.679C746.273 146.356 745.056 147.294 743.376 147.294C741.29 147.294 739.904 145.824 739.904 143.613C739.904 141.401 741.29 139.945 743.362 139.945C745.406 139.945 746.763 141.345 746.763 143.445ZM743.362 140.883C742.172 140.883 741.234 141.611 741.094 143.095H745.587C745.503 141.625 744.552 140.883 743.362 140.883ZM755.006 143.445V143.948H749.323C749.351 145.516 750.373 146.328 751.647 146.328C752.599 146.328 753.396 145.866 753.746 144.942H754.922C754.516 146.356 753.298 147.294 751.619 147.294C749.533 147.294 748.147 145.824 748.147 143.613C748.147 141.401 749.533 139.945 751.605 139.945C753.648 139.945 755.006 141.345 755.006 143.445ZM751.605 140.883C750.415 140.883 749.477 141.611 749.337 143.095H753.83C753.746 141.625 752.795 140.883 751.605 140.883ZM759.691 140.085H760.587V141.149H759.649C758.431 141.149 757.885 141.947 757.885 143.263V147.168H756.737V140.085H757.745L757.899 141.093C758.193 140.533 758.865 140.085 759.691 140.085ZM761.333 145.082H762.495C762.523 145.922 763.251 146.412 764.343 146.412C765.421 146.412 766.107 145.978 766.107 145.236C766.107 144.606 765.771 144.27 764.945 144.158L763.475 143.92C762.131 143.696 761.515 143.053 761.515 141.989C761.515 140.743 762.705 139.945 764.259 139.945C765.925 139.945 767.128 140.743 767.142 142.157H766.009C765.981 141.303 765.267 140.841 764.273 140.841C763.293 140.841 762.649 141.261 762.649 141.961C762.649 142.563 763.041 142.857 763.923 142.983L765.365 143.221C766.652 143.431 767.268 144.046 767.268 145.138C767.268 146.538 765.995 147.308 764.371 147.308C762.509 147.308 761.361 146.44 761.333 145.082Z" fill="white"/>
<path d="M949.161 147.168V137.285H953.038C955.194 137.285 956.468 138.685 956.468 140.435C956.468 142.213 955.194 143.585 953.038 143.585H950.379V147.168H949.161ZM950.379 142.507H953.066C954.452 142.507 955.208 141.681 955.208 140.463C955.208 139.245 954.438 138.377 953.066 138.377H950.379V142.507ZM960.957 140.085H961.853V141.149H960.915C959.697 141.149 959.151 141.947 959.151 143.263V147.168H958.003V140.085H959.011L959.165 141.093C959.459 140.533 960.131 140.085 960.957 140.085ZM963.058 138.559V137.215H964.485V138.559H963.058ZM963.198 147.168V140.085H964.345V147.168H963.198ZM966.734 140.085L969.071 145.88L971.423 140.085H972.655L969.687 147.168H968.441L965.502 140.085H966.734ZM979.789 146.272H980.041V147.168H979.341C978.781 147.168 978.263 146.944 978.193 146.202C977.773 146.86 976.849 147.308 975.716 147.308C974.134 147.308 973.154 146.482 973.154 145.138C973.154 144.004 973.854 143.095 975.87 143.095H978.109V142.703C978.109 141.429 977.367 140.897 976.318 140.897C975.24 140.897 974.568 141.415 974.512 142.255H973.406C973.49 140.757 974.708 139.945 976.36 139.945C978.123 139.945 979.271 140.911 979.271 142.689V145.726C979.271 146.174 979.383 146.272 979.789 146.272ZM978.109 144.27V143.948H975.982C974.764 143.948 974.344 144.452 974.344 145.124C974.344 145.95 975.002 146.356 975.912 146.356C977.073 146.356 978.109 145.712 978.109 144.27ZM986.641 142.451C986.305 141.499 985.549 140.939 984.598 140.939C983.282 140.939 982.302 141.863 982.302 143.613C982.302 145.39 983.296 146.286 984.584 146.286C985.577 146.286 986.347 145.712 986.697 144.69H987.915C987.523 146.272 986.277 147.294 984.584 147.294C982.512 147.294 981.126 145.824 981.126 143.613C981.126 141.401 982.512 139.945 984.584 139.945C986.249 139.945 987.495 140.869 987.901 142.451H986.641ZM989.727 140.085L992.05 146.398L994.192 140.071L995.41 140.085L992.442 148.316C991.938 149.688 991.168 149.968 990.132 149.968H988.733V148.932H990.146C990.874 148.932 991.322 148.54 991.322 147.742C991.322 147.546 991.28 147.35 991.196 147.126L988.481 140.085H989.727ZM999.37 147.168V137.285H1003.25C1005.4 137.285 1006.68 138.685 1006.68 140.435C1006.68 142.213 1005.4 143.585 1003.25 143.585H1000.59V147.168H999.37ZM1000.59 142.507H1003.28C1004.66 142.507 1005.42 141.681 1005.42 140.463C1005.42 139.245 1004.65 138.377 1003.28 138.377H1000.59V142.507ZM1007.71 143.641C1007.71 141.457 1009.16 139.945 1011.3 139.945C1013.44 139.945 1014.89 141.457 1014.89 143.641C1014.89 145.81 1013.44 147.308 1011.3 147.308C1009.16 147.308 1007.71 145.81 1007.71 143.641ZM1008.89 143.627C1008.89 145.25 1009.86 146.314 1011.3 146.314C1012.74 146.314 1013.7 145.25 1013.7 143.627C1013.7 141.975 1012.74 140.925 1011.3 140.925C1009.86 140.925 1008.89 141.975 1008.89 143.627ZM1017.75 136.866V147.168H1016.61V136.866H1017.75ZM1019.61 138.559V137.215H1021.04V138.559H1019.61ZM1019.75 147.168V140.085H1020.9V147.168H1019.75ZM1028.14 142.451C1027.81 141.499 1027.05 140.939 1026.1 140.939C1024.78 140.939 1023.8 141.863 1023.8 143.613C1023.8 145.39 1024.8 146.286 1026.09 146.286C1027.08 146.286 1027.85 145.712 1028.2 144.69H1029.42C1029.02 146.272 1027.78 147.294 1026.09 147.294C1024.01 147.294 1022.63 145.824 1022.63 143.613C1022.63 141.401 1024.01 139.945 1026.09 139.945C1027.75 139.945 1029 140.869 1029.4 142.451H1028.14ZM1031.23 140.085L1033.55 146.398L1035.69 140.071L1036.91 140.085L1033.94 148.316C1033.44 149.688 1032.67 149.968 1031.63 149.968H1030.23V148.932H1031.65C1032.38 148.932 1032.82 148.54 1032.82 147.742C1032.82 147.546 1032.78 147.35 1032.7 147.126L1029.98 140.085H1031.23Z" fill="white"/>
<path d="M334.886 195.034H339.856V196.168H333.683V186.285H334.886V195.034ZM342.147 187.937V186.663H343.518V187.937H342.147ZM344.68 187.937V186.663H346.052V187.937H344.68ZM340.523 192.641C340.523 190.457 341.965 188.945 344.106 188.945C346.248 188.945 347.704 190.457 347.704 192.641C347.704 194.81 346.248 196.308 344.106 196.308C341.965 196.308 340.523 194.81 340.523 192.641ZM341.699 192.627C341.699 194.25 342.665 195.314 344.106 195.314C345.548 195.314 346.514 194.25 346.514 192.627C346.514 190.975 345.548 189.925 344.106 189.925C342.665 189.925 341.699 190.975 341.699 192.627ZM352.382 189.085H353.278V190.149H352.34C351.122 190.149 350.576 190.947 350.576 192.263V196.168H349.428V189.085H350.436L350.59 190.093C350.884 189.533 351.556 189.085 352.382 189.085ZM361.012 192.445V192.948H355.329C355.357 194.516 356.379 195.328 357.652 195.328C358.604 195.328 359.402 194.866 359.752 193.942H360.928C360.522 195.356 359.304 196.294 357.624 196.294C355.539 196.294 354.153 194.824 354.153 192.613C354.153 190.401 355.539 188.945 357.61 188.945C359.654 188.945 361.012 190.345 361.012 192.445ZM357.61 189.883C356.421 189.883 355.483 190.611 355.343 192.095H359.836C359.752 190.625 358.8 189.883 357.61 189.883ZM370.428 188.945C371.981 188.945 373.003 189.981 373.003 191.703V196.168H371.841V191.899C371.841 190.555 371.198 190.009 370.204 190.009C369.238 190.009 368.468 190.639 368.426 192.011V196.168H367.292V191.997C367.292 190.681 366.69 190.009 365.668 190.009C364.549 190.009 363.877 190.737 363.877 191.941V196.168H362.729V189.085H363.737L363.905 189.911C364.283 189.253 365.039 188.945 365.85 188.945C366.914 188.945 367.754 189.407 368.16 190.317C368.594 189.365 369.532 188.945 370.428 188.945ZM377.53 187.559V186.215H378.958V187.559H377.53ZM377.67 196.168V189.085H378.818V196.168H377.67ZM384.551 188.945C386.385 188.945 387.925 190.261 387.925 192.641C387.925 194.978 386.413 196.308 384.551 196.308C383.46 196.308 382.452 195.86 381.962 195.02V198.968H380.814V189.085H381.836L381.962 190.261C382.466 189.435 383.46 188.945 384.551 188.945ZM384.369 195.3C385.755 195.3 386.735 194.306 386.735 192.641C386.735 190.989 385.769 189.967 384.369 189.967C383.04 189.953 382.004 191.003 382.004 192.669C382.004 194.32 383.04 195.3 384.369 195.3ZM389.211 194.082H390.373C390.401 194.922 391.128 195.412 392.22 195.412C393.298 195.412 393.984 194.978 393.984 194.236C393.984 193.606 393.648 193.27 392.822 193.158L391.352 192.92C390.009 192.696 389.393 192.053 389.393 190.989C389.393 189.743 390.583 188.945 392.136 188.945C393.802 188.945 395.006 189.743 395.02 191.157H393.886C393.858 190.303 393.144 189.841 392.15 189.841C391.17 189.841 390.527 190.261 390.527 190.961C390.527 191.563 390.918 191.857 391.8 191.983L393.242 192.221C394.53 192.431 395.146 193.046 395.146 194.138C395.146 195.538 393.872 196.308 392.248 196.308C390.387 196.308 389.239 195.44 389.211 194.082ZM401.665 189.085H402.771V196.168H401.777L401.665 195.118C401.245 195.888 400.461 196.308 399.482 196.308C397.76 196.308 396.724 195.132 396.724 193.326V189.085H397.844V193.144C397.844 194.586 398.614 195.272 399.706 195.258C400.979 195.258 401.665 194.32 401.665 192.962V189.085ZM412.476 188.945C414.03 188.945 415.052 189.981 415.052 191.703V196.168H413.89V191.899C413.89 190.555 413.246 190.009 412.252 190.009C411.286 190.009 410.516 190.639 410.474 192.011V196.168H409.34V191.997C409.34 190.681 408.739 190.009 407.717 190.009C406.597 190.009 405.925 190.737 405.925 191.941V196.168H404.777V189.085H405.785L405.953 189.911C406.331 189.253 407.087 188.945 407.899 188.945C408.962 188.945 409.802 189.407 410.208 190.317C410.642 189.365 411.58 188.945 412.476 188.945ZM419.452 192.641C419.452 190.457 420.894 188.945 423.036 188.945C425.177 188.945 426.633 190.457 426.633 192.641C426.633 194.81 425.177 196.308 423.036 196.308C420.894 196.308 419.452 194.81 419.452 192.641ZM420.628 192.627C420.628 194.25 421.594 195.314 423.036 195.314C424.477 195.314 425.443 194.25 425.443 192.627C425.443 190.975 424.477 189.925 423.036 189.925C421.594 189.925 420.628 190.975 420.628 192.627ZM433.918 185.866H435.066V196.168H434.058L433.918 194.964C433.428 195.804 432.434 196.308 431.328 196.308C429.467 196.308 427.955 195.006 427.955 192.655C427.955 190.275 429.495 188.945 431.328 188.945C432.462 188.945 433.428 189.435 433.918 190.247V185.866ZM431.51 195.3C432.84 195.3 433.89 194.32 433.89 192.655C433.89 191.003 432.84 189.953 431.51 189.967C430.11 189.981 429.145 191.017 429.145 192.655C429.145 194.32 430.124 195.3 431.51 195.3ZM439.547 192.641C439.547 190.457 440.989 188.945 443.13 188.945C445.272 188.945 446.728 190.457 446.728 192.641C446.728 194.81 445.272 196.308 443.13 196.308C440.989 196.308 439.547 194.81 439.547 192.641ZM440.723 192.627C440.723 194.25 441.688 195.314 443.13 195.314C444.572 195.314 445.538 194.25 445.538 192.627C445.538 190.975 444.572 189.925 443.13 189.925C441.688 189.925 440.723 190.975 440.723 192.627ZM451.938 188.945C453.296 188.945 454.709 189.673 454.709 191.997V196.168H453.562V192.193C453.562 190.667 452.834 190.009 451.7 190.023C450.328 190.023 449.586 190.989 449.586 192.319V196.168H448.438V185.866H449.586V190.135C450.02 189.379 450.916 188.945 451.938 188.945ZM463.276 192.445V192.948H457.592C457.62 194.516 458.642 195.328 459.916 195.328C460.868 195.328 461.666 194.866 462.016 193.942H463.192C462.786 195.356 461.568 196.294 459.888 196.294C457.802 196.294 456.417 194.824 456.417 192.613C456.417 190.401 457.802 188.945 459.874 188.945C461.918 188.945 463.276 190.345 463.276 192.445ZM459.874 189.883C458.684 189.883 457.746 190.611 457.606 192.095H462.1C462.016 190.625 461.064 189.883 459.874 189.883ZM467.148 196.168C466.098 196.168 465.412 195.594 465.412 194.39V190.121H464.139V189.085H464.811C465.258 189.085 465.412 188.889 465.412 188.455V187.237H466.56V189.085H468.226V190.121H466.56V194.236C466.56 194.754 466.728 195.132 467.414 195.132H468.212V196.168H467.148ZM478.208 185.866H479.356V196.168H478.348L478.208 194.964C477.718 195.804 476.724 196.308 475.618 196.308C473.757 196.308 472.245 195.006 472.245 192.655C472.245 190.275 473.785 188.945 475.618 188.945C476.752 188.945 477.718 189.435 478.208 190.247V185.866ZM475.8 195.3C477.13 195.3 478.18 194.32 478.18 192.655C478.18 191.003 477.13 189.953 475.8 189.967C474.401 189.981 473.435 191.017 473.435 192.655C473.435 194.32 474.415 195.3 475.8 195.3ZM481.215 187.559V186.215H482.643V187.559H481.215ZM481.355 196.168V189.085H482.503V196.168H481.355ZM485.647 185.866V196.168H484.499V185.866H485.647ZM487.377 192.641C487.377 190.457 488.819 188.945 490.961 188.945C493.102 188.945 494.558 190.457 494.558 192.641C494.558 194.81 493.102 196.308 490.961 196.308C488.819 196.308 487.377 194.81 487.377 192.641ZM488.553 192.627C488.553 194.25 489.519 195.314 490.961 195.314C492.403 195.314 493.368 194.25 493.368 192.627C493.368 190.975 492.403 189.925 490.961 189.925C489.519 189.925 488.553 190.975 488.553 192.627ZM501.688 189.085H502.696V195.86C502.696 197.834 501.366 199.108 499.336 199.108C497.614 199.108 496.397 198.17 496.131 196.728H497.32C497.558 197.666 498.342 198.142 499.336 198.142C500.764 198.142 501.562 197.302 501.562 196.042V194.698C501.142 195.524 500.19 196.014 499.098 196.014C497.32 196.014 495.935 194.712 495.935 192.487C495.935 190.261 497.306 188.945 499.112 188.945C500.176 188.945 501.072 189.421 501.548 190.233L501.688 189.085ZM499.294 195.02C500.624 195.02 501.534 194.04 501.534 192.515C501.534 190.989 500.638 189.953 499.294 189.953C497.95 189.953 497.124 191.003 497.124 192.501C497.124 194.026 497.964 195.02 499.294 195.02ZM504.55 187.559V186.215H505.977V187.559H504.55ZM504.69 196.168V189.085H505.837V196.168H504.69ZM507.624 196.168V194.558H509.247V196.168H507.624ZM519.702 191.045C520.794 191.381 521.437 192.291 521.437 193.466C521.437 195.104 520.234 196.168 518.246 196.168H513.837V186.285H517.896C519.926 186.285 521.087 187.307 521.087 188.847C521.087 189.715 520.696 190.583 519.702 191.045ZM519.87 188.987C519.87 187.993 519.184 187.363 517.854 187.363H515.04V190.611H518.022C519.156 190.611 519.87 190.009 519.87 188.987ZM518.092 195.09C519.478 195.09 520.178 194.432 520.178 193.382C520.178 192.305 519.464 191.633 518.204 191.633H515.04V195.09H518.092ZM529.683 192.445V192.948H524C524.028 194.516 525.05 195.328 526.324 195.328C527.276 195.328 528.074 194.866 528.424 193.942H529.599C529.193 195.356 527.976 196.294 526.296 196.294C524.21 196.294 522.824 194.824 522.824 192.613C522.824 190.401 524.21 188.945 526.282 188.945C528.326 188.945 529.683 190.345 529.683 192.445ZM526.282 189.883C525.092 189.883 524.154 190.611 524.014 192.095H528.508C528.424 190.625 527.472 189.883 526.282 189.883ZM532.548 185.866V196.168H531.4V185.866H532.548ZM535.692 185.866V196.168H534.544V185.866H535.692ZM542.592 196.168C541.542 196.168 540.856 195.594 540.856 194.39V190.121H539.582V189.085H540.254C540.702 189.085 540.856 188.889 540.856 188.455V187.237H542.004V189.085H543.67V190.121H542.004V194.236C542.004 194.754 542.172 195.132 542.858 195.132H543.656V196.168H542.592ZM548.174 189.085H549.07V190.149H548.132C546.915 190.149 546.369 190.947 546.369 192.263V196.168H545.221V189.085H546.229L546.383 190.093C546.677 189.533 547.348 189.085 548.174 189.085ZM556.412 195.272H556.664V196.168H555.964C555.404 196.168 554.887 195.944 554.817 195.202C554.397 195.86 553.473 196.308 552.339 196.308C550.757 196.308 549.777 195.482 549.777 194.138C549.777 193.004 550.477 192.095 552.493 192.095H554.733V191.703C554.733 190.429 553.991 189.897 552.941 189.897C551.863 189.897 551.191 190.415 551.135 191.255H550.029C550.113 189.757 551.331 188.945 552.983 188.945C554.747 188.945 555.894 189.911 555.894 191.689V194.726C555.894 195.174 556.006 195.272 556.412 195.272ZM554.733 193.27V192.948H552.605C551.387 192.948 550.967 193.452 550.967 194.124C550.967 194.95 551.625 195.356 552.535 195.356C553.697 195.356 554.733 194.712 554.733 193.27ZM561.794 188.945C563.656 188.945 565.167 190.289 565.167 192.641C565.167 195.006 563.628 196.308 561.794 196.308C560.702 196.308 559.708 195.86 559.204 195.048L559.078 196.168H558.056V185.866H559.218V190.275C559.708 189.421 560.688 188.945 561.794 188.945ZM561.612 195.3C562.998 195.3 563.977 194.292 563.977 192.641C563.977 190.989 563.012 189.967 561.612 189.953C560.282 189.953 559.246 190.989 559.246 192.655C559.246 194.32 560.282 195.3 561.612 195.3ZM573.413 192.445V192.948H567.73C567.758 194.516 568.78 195.328 570.054 195.328C571.005 195.328 571.803 194.866 572.153 193.942H573.329C572.923 195.356 571.705 196.294 570.026 196.294C567.94 196.294 566.554 194.824 566.554 192.613C566.554 190.401 567.94 188.945 570.012 188.945C572.055 188.945 573.413 190.345 573.413 192.445ZM570.012 189.883C568.822 189.883 567.884 190.611 567.744 192.095H572.237C572.153 190.625 571.201 189.883 570.012 189.883ZM576.278 185.866V196.168H575.13V185.866H576.278ZM578.092 196.168V194.558H579.716V196.168L578.89 197.764H578.148L578.932 196.168H578.092ZM583.814 194.082H584.976C585.004 194.922 585.731 195.412 586.823 195.412C587.901 195.412 588.587 194.978 588.587 194.236C588.587 193.606 588.251 193.27 587.425 193.158L585.955 192.92C584.612 192.696 583.996 192.053 583.996 190.989C583.996 189.743 585.186 188.945 586.739 188.945C588.405 188.945 589.609 189.743 589.623 191.157H588.489C588.461 190.303 587.747 189.841 586.753 189.841C585.773 189.841 585.13 190.261 585.13 190.961C585.13 191.563 585.521 191.857 586.403 191.983L587.845 192.221C589.133 192.431 589.749 193.046 589.749 194.138C589.749 195.538 588.475 196.308 586.851 196.308C584.99 196.308 583.842 195.44 583.814 194.082ZM597.654 195.272H597.906V196.168H597.206C596.646 196.168 596.128 195.944 596.058 195.202C595.638 195.86 594.714 196.308 593.581 196.308C591.999 196.308 591.019 195.482 591.019 194.138C591.019 193.004 591.719 192.095 593.735 192.095H595.974V191.703C595.974 190.429 595.232 189.897 594.183 189.897C593.105 189.897 592.433 190.415 592.377 191.255H591.271C591.355 189.757 592.573 188.945 594.225 188.945C595.988 188.945 597.136 189.911 597.136 191.689V194.726C597.136 195.174 597.248 195.272 597.654 195.272ZM595.974 193.27V192.948H593.847C592.629 192.948 592.209 193.452 592.209 194.124C592.209 194.95 592.867 195.356 593.777 195.356C594.938 195.356 595.974 194.712 595.974 193.27ZM606.997 188.945C608.551 188.945 609.573 189.981 609.573 191.703V196.168H608.411V191.899C608.411 190.555 607.767 190.009 606.773 190.009C605.807 190.009 605.037 190.639 604.995 192.011V196.168H603.861V191.997C603.861 190.681 603.259 190.009 602.238 190.009C601.118 190.009 600.446 190.737 600.446 191.941V196.168H599.298V189.085H600.306L600.474 189.911C600.852 189.253 601.608 188.945 602.42 188.945C603.483 188.945 604.323 189.407 604.729 190.317C605.163 189.365 606.101 188.945 606.997 188.945ZM616.363 189.085H617.469V196.168H616.475L616.363 195.118C615.943 195.888 615.159 196.308 614.179 196.308C612.457 196.308 611.422 195.132 611.422 193.326V189.085H612.541V193.144C612.541 194.586 613.311 195.272 614.403 195.258C615.677 195.258 616.363 194.32 616.363 192.962V189.085ZM620.623 185.866V196.168H619.475V185.866H620.623ZM622.479 187.559V186.215H623.907V187.559H622.479ZM622.619 196.168V189.085H623.767V196.168H622.619ZM631.25 189.085H632.258V195.86C632.258 197.834 630.928 199.108 628.898 199.108C627.177 199.108 625.959 198.17 625.693 196.728H626.883C627.121 197.666 627.904 198.142 628.898 198.142C630.326 198.142 631.124 197.302 631.124 196.042V194.698C630.704 195.524 629.752 196.014 628.66 196.014C626.883 196.014 625.497 194.712 625.497 192.487C625.497 190.261 626.869 188.945 628.674 188.945C629.738 188.945 630.634 189.421 631.11 190.233L631.25 189.085ZM628.856 195.02C630.186 195.02 631.096 194.04 631.096 192.515C631.096 190.989 630.2 189.953 628.856 189.953C627.513 189.953 626.687 191.003 626.687 192.501C626.687 194.026 627.527 195.02 628.856 195.02ZM636.407 196.168C635.358 196.168 634.672 195.594 634.672 194.39V190.121H633.398V189.085H634.07C634.518 189.085 634.672 188.889 634.672 188.455V187.237H635.819V189.085H637.485V190.121H635.819V194.236C635.819 194.754 635.987 195.132 636.673 195.132H637.471V196.168H636.407ZM638.895 196.168V194.558H640.519V196.168L639.693 197.764H638.951L639.735 196.168H638.895ZM644.785 192.641C644.785 190.457 646.227 188.945 648.368 188.945C650.51 188.945 651.966 190.457 651.966 192.641C651.966 194.81 650.51 196.308 648.368 196.308C646.227 196.308 644.785 194.81 644.785 192.641ZM645.961 192.627C645.961 194.25 646.927 195.314 648.368 195.314C649.81 195.314 650.776 194.25 650.776 192.627C650.776 190.975 649.81 189.925 648.368 189.925C646.927 189.925 645.961 190.975 645.961 192.627ZM657.176 188.945C658.534 188.945 659.948 189.673 659.948 191.997V196.168H658.8V192.193C658.8 190.667 658.072 190.009 656.938 190.023C655.566 190.023 654.824 190.989 654.824 192.319V196.168H653.676V185.866H654.824V190.135C655.258 189.379 656.154 188.945 657.176 188.945ZM663.222 187.937V186.663H664.594V187.937H663.222ZM665.756 187.937V186.663H667.128V187.937H665.756ZM661.599 192.641C661.599 190.457 663.04 188.945 665.182 188.945C667.324 188.945 668.78 190.457 668.78 192.641C668.78 194.81 667.324 196.308 665.182 196.308C663.04 196.308 661.599 194.81 661.599 192.641ZM662.775 192.627C662.775 194.25 663.74 195.314 665.182 195.314C666.624 195.314 667.59 194.25 667.59 192.627C667.59 190.975 666.624 189.925 665.182 189.925C663.74 189.925 662.775 190.975 662.775 192.627ZM674.228 188.945C676.089 188.945 677.601 190.289 677.601 192.641C677.601 195.006 676.061 196.308 674.228 196.308C673.136 196.308 672.142 195.86 671.638 195.048L671.512 196.168H670.49V185.866H671.652V190.275C672.142 189.421 673.122 188.945 674.228 188.945ZM674.046 195.3C675.432 195.3 676.411 194.292 676.411 192.641C676.411 190.989 675.446 189.967 674.046 189.953C672.716 189.953 671.68 190.989 671.68 192.655C671.68 194.32 672.716 195.3 674.046 195.3ZM685.847 192.445V192.948H680.164C680.192 194.516 681.214 195.328 682.487 195.328C683.439 195.328 684.237 194.866 684.587 193.942H685.763C685.357 195.356 684.139 196.294 682.459 196.294C680.374 196.294 678.988 194.824 678.988 192.613C678.988 190.401 680.374 188.945 682.445 188.945C684.489 188.945 685.847 190.345 685.847 192.445ZM682.445 189.883C681.256 189.883 680.318 190.611 680.178 192.095H684.671C684.587 190.625 683.635 189.883 682.445 189.883ZM688.712 185.866V196.168H687.564V185.866H688.712ZM698.327 189.085H699.433V196.168H698.439L698.327 195.118C697.907 195.888 697.123 196.308 696.143 196.308C694.421 196.308 693.386 195.132 693.386 193.326V189.085H694.505V193.144C694.505 194.586 695.275 195.272 696.367 195.258C697.641 195.258 698.327 194.32 698.327 192.962V189.085ZM703.594 196.168C702.545 196.168 701.859 195.594 701.859 194.39V190.121H700.585V189.085H701.257C701.705 189.085 701.859 188.889 701.859 188.455V187.237H703.006V189.085H704.672V190.121H703.006V194.236C703.006 194.754 703.174 195.132 703.86 195.132H704.658V196.168H703.594ZM705.766 192.641C705.766 190.457 707.208 188.945 709.349 188.945C711.491 188.945 712.947 190.457 712.947 192.641C712.947 194.81 711.491 196.308 709.349 196.308C707.208 196.308 705.766 194.81 705.766 192.641ZM706.942 192.627C706.942 194.25 707.907 195.314 709.349 195.314C710.791 195.314 711.757 194.25 711.757 192.627C711.757 190.975 710.791 189.925 709.349 189.925C707.907 189.925 706.942 190.975 706.942 192.627ZM722.356 188.945C723.91 188.945 724.932 189.981 724.932 191.703V196.168H723.77V191.899C723.77 190.555 723.126 190.009 722.132 190.009C721.166 190.009 720.396 190.639 720.354 192.011V196.168H719.221V191.997C719.221 190.681 718.619 190.009 717.597 190.009C716.477 190.009 715.805 190.737 715.805 191.941V196.168H714.657V189.085H715.665L715.833 189.911C716.211 189.253 716.967 188.945 717.779 188.945C718.843 188.945 719.683 189.407 720.089 190.317C720.522 189.365 721.46 188.945 722.356 188.945ZM735.296 185.866H736.443V196.168H735.436L735.296 194.964C734.806 195.804 733.812 196.308 732.706 196.308C730.844 196.308 729.332 195.006 729.332 192.655C729.332 190.275 730.872 188.945 732.706 188.945C733.84 188.945 734.806 189.435 735.296 190.247V185.866ZM732.888 195.3C734.218 195.3 735.268 194.32 735.268 192.655C735.268 191.003 734.218 189.953 732.888 189.967C731.488 189.981 730.522 191.017 730.522 192.655C730.522 194.32 731.502 195.3 732.888 195.3ZM738.303 187.559V186.215H739.731V187.559H738.303ZM738.443 196.168V189.085H739.591V196.168H738.443ZM741.153 194.082H742.315C742.343 194.922 743.071 195.412 744.162 195.412C745.24 195.412 745.926 194.978 745.926 194.236C745.926 193.606 745.59 193.27 744.764 193.158L743.295 192.92C741.951 192.696 741.335 192.053 741.335 190.989C741.335 189.743 742.525 188.945 744.078 188.945C745.744 188.945 746.948 189.743 746.962 191.157H745.828C745.8 190.303 745.086 189.841 744.092 189.841C743.113 189.841 742.469 190.261 742.469 190.961C742.469 191.563 742.861 191.857 743.743 191.983L745.184 192.221C746.472 192.431 747.088 193.046 747.088 194.138C747.088 195.538 745.814 196.308 744.19 196.308C742.329 196.308 741.181 195.44 741.153 194.082ZM748.736 196.168V185.866H749.884V192.557L753.313 189.085H754.769L751.704 192.179L754.783 196.168H753.341L750.892 192.99L749.898 193.984V196.168H748.736ZM762.047 195.272H762.299V196.168H761.599C761.039 196.168 760.521 195.944 760.451 195.202C760.031 195.86 759.107 196.308 757.973 196.308C756.392 196.308 755.412 195.482 755.412 194.138C755.412 193.004 756.112 192.095 758.127 192.095H760.367V191.703C760.367 190.429 759.625 189.897 758.575 189.897C757.497 189.897 756.826 190.415 756.77 191.255H755.664C755.748 189.757 756.966 188.945 758.617 188.945C760.381 188.945 761.529 189.911 761.529 191.689V194.726C761.529 195.174 761.641 195.272 762.047 195.272ZM760.367 193.27V192.948H758.239C757.022 192.948 756.602 193.452 756.602 194.124C756.602 194.95 757.26 195.356 758.169 195.356C759.331 195.356 760.367 194.712 760.367 193.27ZM763.481 196.168V194.558H765.105V196.168H763.481ZM770.17 193.326C770.17 194.46 770.912 195.188 772.102 195.188C773.249 195.188 774.019 194.516 774.019 193.214V186.285H775.223V193.228C775.223 195.146 773.935 196.308 772.116 196.308C770.24 196.308 768.994 195.188 768.994 193.326H770.17ZM777.111 187.559V186.215H778.539V187.559H777.111ZM777.251 196.168V189.085H778.399V196.168H777.251ZM783.853 188.945C785.617 188.945 786.652 190.121 786.652 191.927V196.168H785.505V192.165C785.505 190.695 784.735 189.995 783.587 189.995C782.257 189.995 781.543 190.947 781.543 192.333V196.168H780.395V189.085H781.403L781.529 190.177C781.935 189.393 782.761 188.945 783.853 188.945ZM795.219 192.445V192.948H789.536C789.564 194.516 790.586 195.328 791.859 195.328C792.811 195.328 793.609 194.866 793.959 193.942H795.135C794.729 195.356 793.511 196.294 791.831 196.294C789.746 196.294 788.36 194.824 788.36 192.613C788.36 190.401 789.746 188.945 791.817 188.945C793.861 188.945 795.219 190.345 795.219 192.445ZM791.817 189.883C790.628 189.883 789.69 190.611 789.55 192.095H794.043C793.959 190.625 793.007 189.883 791.817 189.883ZM796.502 194.082H797.664C797.692 194.922 798.42 195.412 799.511 195.412C800.589 195.412 801.275 194.978 801.275 194.236C801.275 193.606 800.939 193.27 800.113 193.158L798.644 192.92C797.3 192.696 796.684 192.053 796.684 190.989C796.684 189.743 797.874 188.945 799.427 188.945C801.093 188.945 802.297 189.743 802.311 191.157H801.177C801.149 190.303 800.435 189.841 799.441 189.841C798.462 189.841 797.818 190.261 797.818 190.961C797.818 191.563 798.21 191.857 799.091 191.983L800.533 192.221C801.821 192.431 802.437 193.046 802.437 194.138C802.437 195.538 801.163 196.308 799.539 196.308C797.678 196.308 796.53 195.44 796.502 194.082ZM810.342 195.272H810.594V196.168H809.894C809.334 196.168 808.816 195.944 808.746 195.202C808.326 195.86 807.403 196.308 806.269 196.308C804.687 196.308 803.707 195.482 803.707 194.138C803.707 193.004 804.407 192.095 806.423 192.095H808.662V191.703C808.662 190.429 807.921 189.897 806.871 189.897C805.793 189.897 805.121 190.415 805.065 191.255H803.959C804.043 189.757 805.261 188.945 806.913 188.945C808.676 188.945 809.824 189.911 809.824 191.689V194.726C809.824 195.174 809.936 195.272 810.342 195.272ZM808.662 193.27V192.948H806.535C805.317 192.948 804.897 193.452 804.897 194.124C804.897 194.95 805.555 195.356 806.465 195.356C807.627 195.356 808.662 194.712 808.662 193.27ZM817.642 185.866H818.79V196.168H817.782L817.642 194.964C817.152 195.804 816.159 196.308 815.053 196.308C813.191 196.308 811.679 195.006 811.679 192.655C811.679 190.275 813.219 188.945 815.053 188.945C816.187 188.945 817.152 189.435 817.642 190.247V185.866ZM815.235 195.3C816.564 195.3 817.614 194.32 817.614 192.655C817.614 191.003 816.564 189.953 815.235 189.967C813.835 189.981 812.869 191.017 812.869 192.655C812.869 194.32 813.849 195.3 815.235 195.3ZM827.439 192.445V192.948H821.755C821.783 194.516 822.805 195.328 824.079 195.328C825.031 195.328 825.829 194.866 826.179 193.942H827.355C826.949 195.356 825.731 196.294 824.051 196.294C821.965 196.294 820.58 194.824 820.58 192.613C820.58 190.401 821.965 188.945 824.037 188.945C826.081 188.945 827.439 190.345 827.439 192.445ZM824.037 189.883C822.847 189.883 821.909 190.611 821.769 192.095H826.263C826.179 190.625 825.227 189.883 824.037 189.883ZM835.641 188.945C837.502 188.945 839.014 190.289 839.014 192.641C839.014 195.006 837.474 196.308 835.641 196.308C834.549 196.308 833.555 195.86 833.051 195.048L832.925 196.168H831.903V185.866H833.065V190.275C833.555 189.421 834.535 188.945 835.641 188.945ZM835.459 195.3C836.844 195.3 837.824 194.292 837.824 192.641C837.824 190.989 836.858 189.967 835.459 189.953C834.129 189.953 833.093 190.989 833.093 192.655C833.093 194.32 834.129 195.3 835.459 195.3ZM847.26 192.445V192.948H841.577C841.605 194.516 842.626 195.328 843.9 195.328C844.852 195.328 845.65 194.866 846 193.942H847.176C846.77 195.356 845.552 196.294 843.872 196.294C841.787 196.294 840.401 194.824 840.401 192.613C840.401 190.401 841.787 188.945 843.858 188.945C845.902 188.945 847.26 190.345 847.26 192.445ZM843.858 189.883C842.668 189.883 841.731 190.611 841.591 192.095H846.084C846 190.625 845.048 189.883 843.858 189.883ZM850.124 185.866V196.168H848.977V185.866H850.124ZM858.326 188.945C860.09 188.945 861.125 190.121 861.125 191.927V196.168H859.978V192.165C859.978 190.695 859.208 189.995 858.06 189.995C856.73 189.995 856.016 190.947 856.016 192.333V196.168H854.868V189.085H855.876L856.002 190.177C856.408 189.393 857.234 188.945 858.326 188.945ZM865.352 186.649V187.923H863.981V186.649H865.352ZM867.886 186.649V187.923H866.514V186.649H867.886ZM869.3 195.272H869.552V196.168H868.852C868.292 196.168 867.774 195.944 867.704 195.202C867.284 195.86 866.36 196.308 865.226 196.308C863.645 196.308 862.665 195.482 862.665 194.138C862.665 193.004 863.365 192.095 865.38 192.095H867.62V191.703C867.62 190.429 866.878 189.897 865.828 189.897C864.751 189.897 864.079 190.415 864.023 191.255H862.917C863.001 189.757 864.219 188.945 865.87 188.945C867.634 188.945 868.782 189.911 868.782 191.689V194.726C868.782 195.174 868.894 195.272 869.3 195.272ZM867.62 193.27V192.948H865.492C864.275 192.948 863.855 193.452 863.855 194.124C863.855 194.95 864.513 195.356 865.422 195.356C866.584 195.356 867.62 194.712 867.62 193.27ZM873.911 189.085H874.807V190.149H873.87C872.652 190.149 872.106 190.947 872.106 192.263V196.168H870.958V189.085H871.966L872.12 190.093C872.414 189.533 873.086 189.085 873.911 189.085ZM878.186 189.085H879.404V187.727C879.404 186.425 880.048 185.852 881.349 185.852H882.315V186.859H881.447C880.705 186.859 880.566 187.237 880.566 187.783V189.085H882.315V190.107H880.566V196.168H879.404V190.107H878.186V189.085ZM890.128 192.445V192.948H884.445C884.473 194.516 885.495 195.328 886.769 195.328C887.721 195.328 888.518 194.866 888.868 193.942H890.044C889.638 195.356 888.42 196.294 886.741 196.294C884.655 196.294 883.269 194.824 883.269 192.613C883.269 190.401 884.655 188.945 886.727 188.945C888.77 188.945 890.128 190.345 890.128 192.445ZM886.727 189.883C885.537 189.883 884.599 190.611 884.459 192.095H888.952C888.868 190.625 887.917 189.883 886.727 189.883ZM894.813 189.085H895.708V190.149H894.771C893.553 190.149 893.007 190.947 893.007 192.263V196.168H891.859V189.085H892.867L893.021 190.093C893.315 189.533 893.987 189.085 894.813 189.085ZM903.051 195.272H903.303V196.168H902.603C902.043 196.168 901.525 195.944 901.455 195.202C901.035 195.86 900.111 196.308 898.977 196.308C897.395 196.308 896.416 195.482 896.416 194.138C896.416 193.004 897.116 192.095 899.131 192.095H901.371V191.703C901.371 190.429 900.629 189.897 899.579 189.897C898.501 189.897 897.829 190.415 897.773 191.255H896.668C896.752 189.757 897.969 188.945 899.621 188.945C901.385 188.945 902.533 189.911 902.533 191.689V194.726C902.533 195.174 902.645 195.272 903.051 195.272ZM901.371 193.27V192.948H899.243C898.025 192.948 897.605 193.452 897.605 194.124C897.605 194.95 898.263 195.356 899.173 195.356C900.335 195.356 901.371 194.712 901.371 193.27ZM904.151 194.082H905.313C905.341 194.922 906.069 195.412 907.161 195.412C908.239 195.412 908.925 194.978 908.925 194.236C908.925 193.606 908.589 193.27 907.763 193.158L906.293 192.92C904.949 192.696 904.333 192.053 904.333 190.989C904.333 189.743 905.523 188.945 907.077 188.945C908.743 188.945 909.946 189.743 909.96 191.157H908.827C908.799 190.303 908.085 189.841 907.091 189.841C906.111 189.841 905.467 190.261 905.467 190.961C905.467 191.563 905.859 191.857 906.741 191.983L908.183 192.221C909.471 192.431 910.086 193.046 910.086 194.138C910.086 195.538 908.813 196.308 907.189 196.308C905.327 196.308 904.179 195.44 904.151 194.082ZM917.45 189.085H918.346V190.149H917.408C916.19 190.149 915.644 190.947 915.644 192.263V196.168H914.496V189.085H915.504L915.658 190.093C915.952 189.533 916.624 189.085 917.45 189.085ZM926.08 192.445V192.948H920.397C920.425 194.516 921.446 195.328 922.72 195.328C923.672 195.328 924.47 194.866 924.82 193.942H925.996C925.59 195.356 924.372 196.294 922.692 196.294C920.607 196.294 919.221 194.824 919.221 192.613C919.221 190.401 920.607 188.945 922.678 188.945C924.722 188.945 926.08 190.345 926.08 192.445ZM922.678 189.883C921.488 189.883 920.551 190.611 920.411 192.095H924.904C924.82 190.625 923.868 189.883 922.678 189.883ZM933.371 185.866H934.519V196.168H933.511L933.371 194.964C932.881 195.804 931.887 196.308 930.781 196.308C928.919 196.308 927.408 195.006 927.408 192.655C927.408 190.275 928.947 188.945 930.781 188.945C931.915 188.945 932.881 189.435 933.371 190.247V185.866ZM930.963 195.3C932.293 195.3 933.343 194.32 933.343 192.655C933.343 191.003 932.293 189.953 930.963 189.967C929.563 189.981 928.597 191.017 928.597 192.655C928.597 194.32 929.577 195.3 930.963 195.3ZM936.252 192.641C936.252 190.457 937.694 188.945 939.835 188.945C941.977 188.945 943.433 190.457 943.433 192.641C943.433 194.81 941.977 196.308 939.835 196.308C937.694 196.308 936.252 194.81 936.252 192.641ZM937.428 192.627C937.428 194.25 938.394 195.314 939.835 195.314C941.277 195.314 942.243 194.25 942.243 192.627C942.243 190.975 941.277 189.925 939.835 189.925C938.394 189.925 937.428 190.975 937.428 192.627ZM948.111 189.085H949.007V190.149H948.069C946.851 190.149 946.305 190.947 946.305 192.263V196.168H945.158V189.085H946.165L946.319 190.093C946.613 189.533 947.285 189.085 948.111 189.085ZM956.349 195.272H956.601V196.168H955.901C955.341 196.168 954.823 195.944 954.753 195.202C954.333 195.86 953.41 196.308 952.276 196.308C950.694 196.308 949.714 195.482 949.714 194.138C949.714 193.004 950.414 192.095 952.43 192.095H954.669V191.703C954.669 190.429 953.927 189.897 952.878 189.897C951.8 189.897 951.128 190.415 951.072 191.255H949.966C950.05 189.757 951.268 188.945 952.92 188.945C954.683 188.945 955.831 189.911 955.831 191.689V194.726C955.831 195.174 955.943 195.272 956.349 195.272ZM954.669 193.27V192.948H952.542C951.324 192.948 950.904 193.452 950.904 194.124C950.904 194.95 951.562 195.356 952.472 195.356C953.633 195.356 954.669 194.712 954.669 193.27ZM963.649 185.866H964.797V196.168H963.789L963.649 194.964C963.159 195.804 962.165 196.308 961.06 196.308C959.198 196.308 957.686 195.006 957.686 192.655C957.686 190.275 959.226 188.945 961.06 188.945C962.193 188.945 963.159 189.435 963.649 190.247V185.866ZM961.242 195.3C962.571 195.3 963.621 194.32 963.621 192.655C963.621 191.003 962.571 189.953 961.242 189.967C959.842 189.981 958.876 191.017 958.876 192.655C958.876 194.32 959.856 195.3 961.242 195.3ZM973.445 192.445V192.948H967.762C967.79 194.516 968.812 195.328 970.086 195.328C971.038 195.328 971.836 194.866 972.186 193.942H973.361C972.956 195.356 971.738 196.294 970.058 196.294C967.972 196.294 966.587 194.824 966.587 192.613C966.587 190.401 967.972 188.945 970.044 188.945C972.088 188.945 973.445 190.345 973.445 192.445ZM970.044 189.883C968.854 189.883 967.916 190.611 967.776 192.095H972.27C972.186 190.625 971.234 189.883 970.044 189.883ZM977.77 187.559V186.215H979.198V187.559H977.77ZM977.91 196.168V189.085H979.058V196.168H977.91ZM987.539 188.945C989.401 188.945 990.913 190.289 990.913 192.641C990.913 195.006 989.373 196.308 987.539 196.308C986.447 196.308 985.453 195.86 984.95 195.048L984.824 196.168H983.802V185.866H984.964V190.275C985.453 189.421 986.433 188.945 987.539 188.945ZM987.357 195.3C988.743 195.3 989.723 194.292 989.723 192.641C989.723 190.989 988.757 189.967 987.357 189.953C986.027 189.953 984.992 190.989 984.992 192.655C984.992 194.32 986.027 195.3 987.357 195.3ZM999.158 192.445V192.948H993.475C993.503 194.516 994.525 195.328 995.799 195.328C996.751 195.328 997.549 194.866 997.899 193.942H999.074C998.668 195.356 997.451 196.294 995.771 196.294C993.685 196.294 992.299 194.824 992.299 192.613C992.299 190.401 993.685 188.945 995.757 188.945C997.801 188.945 999.158 190.345 999.158 192.445ZM995.757 189.883C994.567 189.883 993.629 190.611 993.489 192.095H997.983C997.899 190.625 996.947 189.883 995.757 189.883ZM1002.02 185.866V196.168H1000.88V185.866H1002.02ZM1003.75 192.641C1003.75 190.457 1005.2 188.945 1007.34 188.945C1009.48 188.945 1010.93 190.457 1010.93 192.641C1010.93 194.81 1009.48 196.308 1007.34 196.308C1005.2 196.308 1003.75 194.81 1003.75 192.641ZM1004.93 192.627C1004.93 194.25 1005.89 195.314 1007.34 195.314C1008.78 195.314 1009.74 194.25 1009.74 192.627C1009.74 190.975 1008.78 189.925 1007.34 189.925C1005.89 189.925 1004.93 190.975 1004.93 192.627ZM1018.06 189.085H1019.07V195.86C1019.07 197.834 1017.74 199.108 1015.71 199.108C1013.99 199.108 1012.77 198.17 1012.51 196.728H1013.7C1013.93 197.666 1014.72 198.142 1015.71 198.142C1017.14 198.142 1017.94 197.302 1017.94 196.042V194.698C1017.52 195.524 1016.57 196.014 1015.47 196.014C1013.7 196.014 1012.31 194.712 1012.31 192.487C1012.31 190.261 1013.68 188.945 1015.49 188.945C1016.55 188.945 1017.45 189.421 1017.92 190.233L1018.06 189.085ZM1015.67 195.02C1017 195.02 1017.91 194.04 1017.91 192.515C1017.91 190.989 1017.01 189.953 1015.67 189.953C1014.33 189.953 1013.5 191.003 1013.5 192.501C1013.5 194.026 1014.34 195.02 1015.67 195.02ZM1020.93 187.559V186.215H1022.35V187.559H1020.93ZM1021.07 196.168V189.085H1022.21V196.168H1021.07ZM1024 196.168V194.558H1025.62V196.168H1024ZM1036.65 187.391H1031.42V190.793H1036.08V191.871H1031.42V196.168H1030.21V186.285H1036.65V187.391ZM1043.92 196.168L1042.99 193.718H1038.47L1037.53 196.168H1036.3L1040.12 186.285H1041.4L1045.2 196.168H1043.92ZM1038.86 192.696H1042.6L1040.74 187.783L1038.86 192.696ZM1046.44 196.168V186.285H1050.46C1052.61 186.285 1053.87 187.503 1053.87 189.407C1053.87 190.919 1053.06 192.081 1051.58 192.417L1053.65 196.168H1052.28L1050.29 192.571H1047.63V196.168H1046.44ZM1047.63 191.493H1050.46C1051.86 191.493 1052.61 190.751 1052.61 189.435C1052.61 188.105 1051.86 187.377 1050.46 187.377H1047.63V191.493ZM1061.98 188.945C1063.82 188.945 1065.36 190.261 1065.36 192.641C1065.36 194.978 1063.85 196.308 1061.98 196.308C1060.89 196.308 1059.89 195.86 1059.4 195.02V198.968H1058.25V189.085H1059.27L1059.4 190.261C1059.9 189.435 1060.89 188.945 1061.98 188.945ZM1061.8 195.3C1063.19 195.3 1064.17 194.306 1064.17 192.641C1064.17 190.989 1063.2 189.967 1061.8 189.967C1060.47 189.953 1059.44 191.003 1059.44 192.669C1059.44 194.32 1060.47 195.3 1061.8 195.3ZM1073.34 195.272H1073.59V196.168H1072.89C1072.33 196.168 1071.81 195.944 1071.74 195.202C1071.32 195.86 1070.4 196.308 1069.26 196.308C1067.68 196.308 1066.7 195.482 1066.7 194.138C1066.7 193.004 1067.4 192.095 1069.42 192.095H1071.66V191.703C1071.66 190.429 1070.91 189.897 1069.86 189.897C1068.79 189.897 1068.11 190.415 1068.06 191.255H1066.95C1067.04 189.757 1068.25 188.945 1069.91 188.945C1071.67 188.945 1072.82 189.911 1072.82 191.689V194.726C1072.82 195.174 1072.93 195.272 1073.34 195.272ZM1071.66 193.27V192.948H1069.53C1068.31 192.948 1067.89 193.452 1067.89 194.124C1067.89 194.95 1068.55 195.356 1069.46 195.356C1070.62 195.356 1071.66 194.712 1071.66 193.27ZM1077.95 189.085H1078.84V190.149H1077.9C1076.69 190.149 1076.14 190.947 1076.14 192.263V196.168H1074.99V189.085H1076L1076.15 190.093C1076.45 189.533 1077.12 189.085 1077.95 189.085ZM1086.18 195.272H1086.44V196.168H1085.74C1085.18 196.168 1084.66 195.944 1084.59 195.202C1084.17 195.86 1083.25 196.308 1082.11 196.308C1080.53 196.308 1079.55 195.482 1079.55 194.138C1079.55 193.004 1080.25 192.095 1082.27 192.095H1084.5V191.703C1084.5 190.429 1083.76 189.897 1082.71 189.897C1081.64 189.897 1080.96 190.415 1080.91 191.255H1079.8C1079.89 189.757 1081.1 188.945 1082.76 188.945C1084.52 188.945 1085.67 189.911 1085.67 191.689V194.726C1085.67 195.174 1085.78 195.272 1086.18 195.272ZM1084.5 193.27V192.948H1082.38C1081.16 192.948 1080.74 193.452 1080.74 194.124C1080.74 194.95 1081.4 195.356 1082.31 195.356C1083.47 195.356 1084.5 194.712 1084.5 193.27ZM1089.83 196.168C1088.78 196.168 1088.1 195.594 1088.1 194.39V190.121H1086.82V189.085H1087.5C1087.94 189.085 1088.1 188.889 1088.1 188.455V187.237H1089.25V189.085H1090.91V190.121H1089.25V194.236C1089.25 194.754 1089.41 195.132 1090.1 195.132H1090.9V196.168H1089.83ZM1092.86 189.085L1095.18 195.398L1097.32 189.071L1098.54 189.085L1095.57 197.316C1095.07 198.688 1094.3 198.968 1093.26 198.968H1091.86V197.932H1093.28C1094 197.932 1094.45 197.54 1094.45 196.742C1094.45 196.546 1094.41 196.35 1094.32 196.126L1091.61 189.085H1092.86ZM1103.4 188.945C1105.24 188.945 1106.78 190.261 1106.78 192.641C1106.78 194.978 1105.27 196.308 1103.4 196.308C1102.31 196.308 1101.3 195.86 1100.81 195.02V198.968H1099.67V189.085H1100.69L1100.81 190.261C1101.32 189.435 1102.31 188.945 1103.4 188.945ZM1103.22 195.3C1104.61 195.3 1105.59 194.306 1105.59 192.641C1105.59 190.989 1104.62 189.967 1103.22 189.967C1101.89 189.953 1100.86 191.003 1100.86 192.669C1100.86 194.32 1101.89 195.3 1103.22 195.3ZM1111.11 187.559V186.215H1112.53V187.559H1111.11ZM1111.25 196.168V189.085H1112.39V196.168H1111.25ZM508.451 212.945C510.005 212.945 511.027 213.981 511.027 215.703V220.168H509.865V215.899C509.865 214.555 509.221 214.009 508.228 214.009C507.262 214.009 506.492 214.639 506.45 216.011V220.168H505.316V215.997C505.316 214.681 504.714 214.009 503.692 214.009C502.572 214.009 501.9 214.737 501.9 215.941V220.168H500.753V213.085H501.761L501.928 213.911C502.306 213.253 503.062 212.945 503.874 212.945C504.938 212.945 505.778 213.407 506.184 214.317C506.618 213.365 507.556 212.945 508.451 212.945ZM517.817 213.085H518.923V220.168H517.929L517.817 219.118C517.397 219.888 516.614 220.308 515.634 220.308C513.912 220.308 512.876 219.132 512.876 217.326V213.085H513.996V217.144C513.996 218.586 514.766 219.272 515.858 219.258C517.131 219.258 517.817 218.32 517.817 216.962V213.085ZM521.321 213.085L523.659 218.88L526.01 213.085H527.242L524.275 220.168H523.029L520.089 213.085H521.321ZM534.377 219.272H534.629V220.168H533.929C533.369 220.168 532.851 219.944 532.781 219.202C532.361 219.86 531.437 220.308 530.303 220.308C528.721 220.308 527.742 219.482 527.742 218.138C527.742 217.004 528.442 216.095 530.457 216.095H532.697V215.703C532.697 214.429 531.955 213.897 530.905 213.897C529.827 213.897 529.155 214.415 529.099 215.255H527.994C528.064 214.093 528.805 213.337 529.925 213.057C529.617 212.791 529.421 212.385 529.421 211.895C529.421 210.957 530.149 210.341 531.017 210.341C531.899 210.341 532.599 210.957 532.599 211.895C532.599 212.413 532.389 212.819 532.067 213.099C533.187 213.435 533.859 214.317 533.859 215.689V218.726C533.859 219.174 533.971 219.272 534.377 219.272ZM531.017 211.083C530.569 211.083 530.233 211.433 530.233 211.895C530.233 212.371 530.569 212.707 531.017 212.707C531.479 212.707 531.815 212.371 531.815 211.895C531.815 211.433 531.479 211.083 531.017 211.083ZM532.697 217.27V216.948H530.569C529.351 216.948 528.931 217.452 528.931 218.124C528.931 218.95 529.589 219.356 530.499 219.356C531.661 219.356 532.697 218.712 532.697 217.27ZM539.478 212.945C541.242 212.945 542.278 214.121 542.278 215.927V220.168H541.13V216.165C541.13 214.695 540.36 213.995 539.212 213.995C537.882 213.995 537.169 214.947 537.169 216.333V220.168H536.021V213.085H537.029L537.155 214.177C537.56 213.393 538.386 212.945 539.478 212.945ZM544.055 211.559V210.215H545.483V211.559H544.055ZM544.195 220.168V213.085H545.343V220.168H544.195ZM550.797 212.945C552.56 212.945 553.596 214.121 553.596 215.927V220.168H552.448V216.165C552.448 214.695 551.679 213.995 550.531 213.995C549.201 213.995 548.487 214.947 548.487 216.333V220.168H547.339V213.085H548.347L548.473 214.177C548.879 213.393 549.705 212.945 550.797 212.945ZM561.001 213.085H562.009V219.86C562.009 221.834 560.679 223.108 558.649 223.108C556.928 223.108 555.71 222.17 555.444 220.728H556.634C556.872 221.666 557.655 222.142 558.649 222.142C560.077 222.142 560.875 221.302 560.875 220.042V218.698C560.455 219.524 559.503 220.014 558.411 220.014C556.634 220.014 555.248 218.712 555.248 216.487C555.248 214.261 556.62 212.945 558.425 212.945C559.489 212.945 560.385 213.421 560.861 214.233L561.001 213.085ZM558.607 219.02C559.937 219.02 560.847 218.04 560.847 216.515C560.847 214.989 559.951 213.953 558.607 213.953C557.264 213.953 556.438 215.003 556.438 216.501C556.438 218.026 557.278 219.02 558.607 219.02ZM563.821 220.168V218.558H565.445V220.168L564.619 221.764H563.877L564.661 220.168H563.821ZM569.71 216.641C569.71 214.457 571.152 212.945 573.294 212.945C575.436 212.945 576.891 214.457 576.891 216.641C576.891 218.81 575.436 220.308 573.294 220.308C571.152 220.308 569.71 218.81 569.71 216.641ZM570.886 216.627C570.886 218.25 571.852 219.314 573.294 219.314C574.736 219.314 575.702 218.25 575.702 216.627C575.702 214.975 574.736 213.925 573.294 213.925C571.852 213.925 570.886 214.975 570.886 216.627ZM583.728 215.451C583.392 214.499 582.636 213.939 581.685 213.939C580.369 213.939 579.389 214.863 579.389 216.613C579.389 218.39 580.383 219.286 581.671 219.286C582.664 219.286 583.434 218.712 583.784 217.69H585.002C584.61 219.272 583.364 220.294 581.671 220.294C579.599 220.294 578.213 218.824 578.213 216.613C578.213 214.401 579.599 212.945 581.671 212.945C583.336 212.945 584.582 213.869 584.988 215.451H583.728ZM590.044 212.945C591.401 212.945 592.815 213.673 592.815 215.997V220.168H591.667V216.193C591.667 214.667 590.94 214.009 589.806 214.023C588.434 214.023 587.692 214.989 587.692 216.319V220.168H586.544V209.866H587.692V214.135C588.126 213.379 589.022 212.945 590.044 212.945ZM601.217 212.945C603.051 212.945 604.591 214.261 604.591 216.641C604.591 218.978 603.079 220.308 601.217 220.308C600.126 220.308 599.118 219.86 598.628 219.02V222.968H597.48V213.085H598.502L598.628 214.261C599.132 213.435 600.126 212.945 601.217 212.945ZM601.035 219.3C602.421 219.3 603.401 218.306 603.401 216.641C603.401 214.989 602.435 213.967 601.035 213.967C599.706 213.953 598.67 215.003 598.67 216.669C598.67 218.32 599.706 219.3 601.035 219.3ZM612.837 216.445V216.948H607.154C607.182 218.516 608.203 219.328 609.477 219.328C610.429 219.328 611.227 218.866 611.577 217.942H612.753C612.347 219.356 611.129 220.294 609.449 220.294C607.363 220.294 605.978 218.824 605.978 216.613C605.978 214.401 607.363 212.945 609.435 212.945C611.479 212.945 612.837 214.345 612.837 216.445ZM609.435 213.883C608.245 213.883 607.308 214.611 607.168 216.095H611.661C611.577 214.625 610.625 213.883 609.435 213.883ZM614.12 218.082H615.281C615.309 218.922 616.037 219.412 617.129 219.412C618.207 219.412 618.893 218.978 618.893 218.236C618.893 217.606 618.557 217.27 617.731 217.158L616.261 216.92C614.918 216.696 614.302 216.053 614.302 214.989C614.302 213.743 615.491 212.945 617.045 212.945C618.711 212.945 619.915 213.743 619.929 215.157H618.795C618.767 214.303 618.053 213.841 617.059 213.841C616.079 213.841 615.435 214.261 615.435 214.961C615.435 215.563 615.827 215.857 616.709 215.983L618.151 216.221C619.439 216.431 620.055 217.046 620.055 218.138C620.055 219.538 618.781 220.308 617.157 220.308C615.295 220.308 614.148 219.44 614.12 218.082ZM627.96 219.272H628.212V220.168H627.512C626.952 220.168 626.434 219.944 626.364 219.202C625.944 219.86 625.02 220.308 623.887 220.308C622.305 220.308 621.325 219.482 621.325 218.138C621.325 217.004 622.025 216.095 624.041 216.095H626.28V215.703C626.28 214.429 625.538 213.897 624.488 213.897C623.411 213.897 622.739 214.415 622.683 215.255H621.577C621.661 213.757 622.879 212.945 624.53 212.945C626.294 212.945 627.442 213.911 627.442 215.689V218.726C627.442 219.174 627.554 219.272 627.96 219.272ZM626.28 217.27V216.948H624.153C622.935 216.948 622.515 217.452 622.515 218.124C622.515 218.95 623.173 219.356 624.083 219.356C625.244 219.356 626.28 218.712 626.28 217.27ZM629.061 218.082H630.223C630.251 218.922 630.978 219.412 632.07 219.412C633.148 219.412 633.834 218.978 633.834 218.236C633.834 217.606 633.498 217.27 632.672 217.158L631.202 216.92C629.859 216.696 629.243 216.053 629.243 214.989C629.243 213.743 630.433 212.945 631.986 212.945C633.652 212.945 634.856 213.743 634.87 215.157H633.736C633.708 214.303 632.994 213.841 632 213.841C631.02 213.841 630.377 214.261 630.377 214.961C630.377 215.563 630.768 215.857 631.65 215.983L633.092 216.221C634.38 216.431 634.996 217.046 634.996 218.138C634.996 219.538 633.722 220.308 632.098 220.308C630.237 220.308 629.089 219.44 629.061 218.082ZM636.644 220.168V209.866H637.792V216.557L641.221 213.085H642.677L639.612 216.179L642.691 220.168H641.249L638.8 216.99L637.806 217.984V220.168H636.644ZM647.028 213.085L649.366 218.88L651.718 213.085H652.95L649.982 220.168H648.736L645.797 213.085H647.028ZM654.629 213.085L656.953 219.398L659.095 213.071L660.312 213.085L657.345 221.316C656.841 222.688 656.071 222.968 655.035 222.968H653.635V221.932H655.049C655.777 221.932 656.225 221.54 656.225 220.742C656.225 220.546 656.183 220.35 656.099 220.126L653.383 213.085H654.629ZM667.805 213.085V220.168H666.657V214.107H663.325V220.168H662.164V214.107H660.946V213.085H662.164V211.727C662.164 210.425 662.807 209.852 664.109 209.852H665.047V210.859H664.207C663.465 210.859 663.325 211.237 663.325 211.783V213.085H667.805ZM666.503 209.964H667.959V211.293H666.503V209.964ZM669.373 218.082H670.535C670.563 218.922 671.291 219.412 672.382 219.412C673.46 219.412 674.146 218.978 674.146 218.236C674.146 217.606 673.81 217.27 672.984 217.158L671.515 216.92C670.171 216.696 669.555 216.053 669.555 214.989C669.555 213.743 670.745 212.945 672.298 212.945C673.964 212.945 675.168 213.743 675.182 215.157H674.048C674.02 214.303 673.306 213.841 672.312 213.841C671.333 213.841 670.689 214.261 670.689 214.961C670.689 215.563 671.081 215.857 671.963 215.983L673.404 216.221C674.692 216.431 675.308 217.046 675.308 218.138C675.308 219.538 674.034 220.308 672.41 220.308C670.549 220.308 669.401 219.44 669.373 218.082ZM683.213 219.272H683.465V220.168H682.765C682.205 220.168 681.687 219.944 681.617 219.202C681.197 219.86 680.274 220.308 679.14 220.308C677.558 220.308 676.578 219.482 676.578 218.138C676.578 217.004 677.278 216.095 679.294 216.095H681.533V215.703C681.533 214.429 680.792 213.897 679.742 213.897C678.664 213.897 677.992 214.415 677.936 215.255H676.83C676.914 213.757 678.132 212.945 679.784 212.945C681.547 212.945 682.695 213.911 682.695 215.689V218.726C682.695 219.174 682.807 219.272 683.213 219.272ZM681.533 217.27V216.948H679.406C678.188 216.948 677.768 217.452 677.768 218.124C677.768 218.95 678.426 219.356 679.336 219.356C680.498 219.356 681.533 218.712 681.533 217.27ZM686.863 220.168C685.813 220.168 685.127 219.594 685.127 218.39V214.121H683.853V213.085H684.525C684.973 213.085 685.127 212.889 685.127 212.455V211.237H686.275V213.085H687.94V214.121H686.275V218.236C686.275 218.754 686.443 219.132 687.129 219.132H687.926V220.168H686.863ZM689.322 220.168V218.558H690.946V220.168H689.322ZM699.259 218.74L702.604 210.285H703.878L699.889 220.168H698.573L694.611 210.285H695.913L699.259 218.74ZM704.867 211.559V210.215H706.294V211.559H704.867ZM705.007 220.168V213.085H706.154V220.168H705.007ZM708.151 220.168V209.866H709.298V216.557L712.728 213.085H714.184L711.118 216.179L714.198 220.168H712.756L710.306 216.99L709.312 217.984V220.168H708.151ZM717.715 220.168C716.665 220.168 715.98 219.594 715.98 218.39V214.121H714.706V213.085H715.378C715.826 213.085 715.98 212.889 715.98 212.455V211.237H717.127V213.085H718.793V214.121H717.127V218.236C717.127 218.754 717.295 219.132 717.981 219.132H718.779V220.168H717.715ZM720.19 211.559V210.215H721.618V211.559H720.19ZM720.33 220.168V213.085H721.478V220.168H720.33ZM728.962 213.085H729.969V219.86C729.969 221.834 728.64 223.108 726.61 223.108C724.888 223.108 723.67 222.17 723.404 220.728H724.594C724.832 221.666 725.616 222.142 726.61 222.142C728.038 222.142 728.836 221.302 728.836 220.042V218.698C728.416 219.524 727.464 220.014 726.372 220.014C724.594 220.014 723.208 218.712 723.208 216.487C723.208 214.261 724.58 212.945 726.386 212.945C727.45 212.945 728.346 213.421 728.822 214.233L728.962 213.085ZM726.568 219.02C727.898 219.02 728.808 218.04 728.808 216.515C728.808 214.989 727.912 213.953 726.568 213.953C725.224 213.953 724.398 215.003 724.398 216.501C724.398 218.026 725.238 219.02 726.568 219.02ZM738.22 219.272H738.472V220.168H737.772C737.213 220.168 736.695 219.944 736.625 219.202C736.205 219.86 735.281 220.308 734.147 220.308C732.565 220.308 731.585 219.482 731.585 218.138C731.585 217.004 732.285 216.095 734.301 216.095H736.541V215.703C736.541 214.429 735.799 213.897 734.749 213.897C733.671 213.897 732.999 214.415 732.943 215.255H731.837C731.921 213.757 733.139 212.945 734.791 212.945C736.555 212.945 737.702 213.911 737.702 215.689V218.726C737.702 219.174 737.814 219.272 738.22 219.272ZM736.541 217.27V216.948H734.413C733.195 216.948 732.775 217.452 732.775 218.124C732.775 218.95 733.433 219.356 734.343 219.356C735.505 219.356 736.541 218.712 736.541 217.27ZM746.35 212.945C748.183 212.945 749.723 214.261 749.723 216.641C749.723 218.978 748.211 220.308 746.35 220.308C745.258 220.308 744.25 219.86 743.76 219.02V222.968H742.612V213.085H743.634L743.76 214.261C744.264 213.435 745.258 212.945 746.35 212.945ZM746.168 219.3C747.553 219.3 748.533 218.306 748.533 216.641C748.533 214.989 747.567 213.967 746.168 213.967C744.838 213.953 743.802 215.003 743.802 216.669C743.802 218.32 744.838 219.3 746.168 219.3ZM751.054 216.641C751.054 214.457 752.496 212.945 754.637 212.945C756.779 212.945 758.235 214.457 758.235 216.641C758.235 218.81 756.779 220.308 754.637 220.308C752.496 220.308 751.054 218.81 751.054 216.641ZM752.23 216.627C752.23 218.25 753.195 219.314 754.637 219.314C756.079 219.314 757.045 218.25 757.045 216.627C757.045 214.975 756.079 213.925 754.637 213.925C753.195 213.925 752.23 214.975 752.23 216.627ZM765.519 209.866H766.667V220.168H765.659L765.519 218.964C765.03 219.804 764.036 220.308 762.93 220.308C761.068 220.308 759.556 219.006 759.556 216.655C759.556 214.275 761.096 212.945 762.93 212.945C764.064 212.945 765.03 213.435 765.519 214.247V209.866ZM763.112 219.3C764.442 219.3 765.491 218.32 765.491 216.655C765.491 215.003 764.442 213.953 763.112 213.967C761.712 213.981 760.746 215.017 760.746 216.655C760.746 218.32 761.726 219.3 763.112 219.3ZM774.364 209.866H775.512V220.168H774.504L774.364 218.964C773.874 219.804 772.88 220.308 771.774 220.308C769.913 220.308 768.401 219.006 768.401 216.655C768.401 214.275 769.941 212.945 771.774 212.945C772.908 212.945 773.874 213.435 774.364 214.247V209.866ZM771.956 219.3C773.286 219.3 774.336 218.32 774.336 216.655C774.336 215.003 773.286 213.953 771.956 213.967C770.556 213.981 769.591 215.017 769.591 216.655C769.591 218.32 770.57 219.3 771.956 219.3ZM780.479 213.085H781.374V214.149H780.437C779.219 214.149 778.673 214.947 778.673 216.263V220.168H777.525V213.085H778.533L778.687 214.093C778.981 213.533 779.653 213.085 780.479 213.085ZM788.717 219.272H788.969V220.168H788.269C787.709 220.168 787.191 219.944 787.121 219.202C786.701 219.86 785.777 220.308 784.643 220.308C783.061 220.308 782.082 219.482 782.082 218.138C782.082 217.004 782.781 216.095 784.797 216.095H787.037V215.703C787.037 214.429 786.295 213.897 785.245 213.897C784.167 213.897 783.495 214.415 783.439 215.255H782.334C782.418 213.757 783.635 212.945 785.287 212.945C787.051 212.945 788.199 213.911 788.199 215.689V218.726C788.199 219.174 788.311 219.272 788.717 219.272ZM787.037 217.27V216.948H784.909C783.691 216.948 783.271 217.452 783.271 218.124C783.271 218.95 783.929 219.356 784.839 219.356C786.001 219.356 787.037 218.712 787.037 217.27ZM796.017 209.866H797.165V220.168H796.157L796.017 218.964C795.527 219.804 794.533 220.308 793.427 220.308C791.565 220.308 790.054 219.006 790.054 216.655C790.054 214.275 791.593 212.945 793.427 212.945C794.561 212.945 795.527 213.435 796.017 214.247V209.866ZM793.609 219.3C794.939 219.3 795.989 218.32 795.989 216.655C795.989 215.003 794.939 213.953 793.609 213.967C792.209 213.981 791.243 215.017 791.243 216.655C791.243 218.32 792.223 219.3 793.609 219.3ZM799.024 211.559V210.215H800.452V211.559H799.024ZM799.164 220.168V213.085H800.312V220.168H799.164ZM802.042 216.641C802.042 214.457 803.484 212.945 805.626 212.945C807.767 212.945 809.223 214.457 809.223 216.641C809.223 218.81 807.767 220.308 805.626 220.308C803.484 220.308 802.042 218.81 802.042 216.641ZM803.218 216.627C803.218 218.25 804.184 219.314 805.626 219.314C807.067 219.314 808.033 218.25 808.033 216.627C808.033 214.975 807.067 213.925 805.626 213.925C804.184 213.925 803.218 214.975 803.218 216.627ZM817.181 212.945C818.539 212.945 819.952 213.673 819.952 215.997V220.168H818.805V216.193C818.805 214.667 818.077 214.009 816.943 214.023C815.571 214.023 814.829 214.989 814.829 216.319V220.168H813.681V209.866H814.829V214.135C815.263 213.379 816.159 212.945 817.181 212.945ZM828.127 219.272H828.378V220.168H827.679C827.119 220.168 826.601 219.944 826.531 219.202C826.111 219.86 825.187 220.308 824.053 220.308C822.471 220.308 821.492 219.482 821.492 218.138C821.492 217.004 822.191 216.095 824.207 216.095H826.447V215.703C826.447 214.429 825.705 213.897 824.655 213.897C823.577 213.897 822.905 214.415 822.849 215.255H821.744C821.827 213.757 823.045 212.945 824.697 212.945C826.461 212.945 827.609 213.911 827.609 215.689V218.726C827.609 219.174 827.721 219.272 828.127 219.272ZM826.447 217.27V216.948H824.319C823.101 216.948 822.681 217.452 822.681 218.124C822.681 218.95 823.339 219.356 824.249 219.356C825.411 219.356 826.447 218.712 826.447 217.27ZM832.738 213.085H833.634V214.149H832.696C831.478 214.149 830.932 214.947 830.932 216.263V220.168H829.785V213.085H830.792L830.946 214.093C831.24 213.533 831.912 213.085 832.738 213.085ZM842.598 213.085H843.704V220.168H842.71L842.598 219.118C842.178 219.888 841.394 220.308 840.414 220.308C838.692 220.308 837.656 219.132 837.656 217.326V213.085H838.776V217.144C838.776 218.586 839.546 219.272 840.638 219.258C841.912 219.258 842.598 218.32 842.598 216.962V213.085ZM849.167 212.945C850.931 212.945 851.967 214.121 851.967 215.927V220.168H850.819V216.165C850.819 214.695 850.049 213.995 848.901 213.995C847.571 213.995 846.857 214.947 846.857 216.333V220.168H845.71V213.085H846.717L846.843 214.177C847.249 213.393 848.075 212.945 849.167 212.945ZM864.331 212.945C865.884 212.945 866.906 213.981 866.906 215.703V220.168H865.744V215.899C865.744 214.555 865.1 214.009 864.107 214.009C863.141 214.009 862.371 214.639 862.329 216.011V220.168H861.195V215.997C861.195 214.681 860.593 214.009 859.571 214.009C858.451 214.009 857.78 214.737 857.78 215.941V220.168H856.632V213.085H857.64L857.808 213.911C858.186 213.253 858.941 212.945 859.753 212.945C860.817 212.945 861.657 213.407 862.063 214.317C862.497 213.365 863.435 212.945 864.331 212.945ZM875.082 219.272H875.334V220.168H874.634C874.074 220.168 873.556 219.944 873.486 219.202C873.067 219.86 872.143 220.308 871.009 220.308C869.427 220.308 868.447 219.482 868.447 218.138C868.447 217.004 869.147 216.095 871.163 216.095H873.402V215.703C873.402 214.429 872.661 213.897 871.611 213.897C870.533 213.897 869.861 214.415 869.805 215.255H868.699C868.783 213.757 870.001 212.945 871.653 212.945C873.416 212.945 874.564 213.911 874.564 215.689V218.726C874.564 219.174 874.676 219.272 875.082 219.272ZM873.402 217.27V216.948H871.275C870.057 216.948 869.637 217.452 869.637 218.124C869.637 218.95 870.295 219.356 871.205 219.356C872.367 219.356 873.402 218.712 873.402 217.27ZM882.382 209.866H883.53V220.168H882.522L882.382 218.964C881.892 219.804 880.899 220.308 879.793 220.308C877.931 220.308 876.419 219.006 876.419 216.655C876.419 214.275 877.959 212.945 879.793 212.945C880.927 212.945 881.892 213.435 882.382 214.247V209.866ZM879.975 219.3C881.305 219.3 882.354 218.32 882.354 216.655C882.354 215.003 881.305 213.953 879.975 213.967C878.575 213.981 877.609 215.017 877.609 216.655C877.609 218.32 878.589 219.3 879.975 219.3ZM888.011 216.641C888.011 214.457 889.453 212.945 891.595 212.945C893.736 212.945 895.192 214.457 895.192 216.641C895.192 218.81 893.736 220.308 891.595 220.308C889.453 220.308 888.011 218.81 888.011 216.641ZM889.187 216.627C889.187 218.25 890.153 219.314 891.595 219.314C893.037 219.314 894.002 218.25 894.002 216.627C894.002 214.975 893.037 213.925 891.595 213.925C890.153 213.925 889.187 214.975 889.187 216.627ZM902.029 215.451C901.693 214.499 900.937 213.939 899.985 213.939C898.67 213.939 897.69 214.863 897.69 216.613C897.69 218.39 898.684 219.286 899.971 219.286C900.965 219.286 901.735 218.712 902.085 217.69H903.303C902.911 219.272 901.665 220.294 899.971 220.294C897.9 220.294 896.514 218.824 896.514 216.613C896.514 214.401 897.9 212.945 899.971 212.945C901.637 212.945 902.883 213.869 903.289 215.451H902.029ZM908.345 212.945C909.702 212.945 911.116 213.673 911.116 215.997V220.168H909.968V216.193C909.968 214.667 909.24 214.009 908.107 214.023C906.735 214.023 905.993 214.989 905.993 216.319V220.168H904.845V209.866H905.993V214.135C906.427 213.379 907.323 212.945 908.345 212.945ZM915.641 211.559V210.215H917.069V211.559H915.641ZM915.781 220.168V213.085H916.929V220.168H915.781ZM922.382 212.945C924.146 212.945 925.182 214.121 925.182 215.927V220.168H924.034V216.165C924.034 214.695 923.264 213.995 922.116 213.995C920.787 213.995 920.073 214.947 920.073 216.333V220.168H918.925V213.085H919.933L920.059 214.177C920.465 213.393 921.291 212.945 922.382 212.945ZM932.797 209.866H933.944V220.168H932.937L932.797 218.964C932.307 219.804 931.313 220.308 930.207 220.308C928.345 220.308 926.834 219.006 926.834 216.655C926.834 214.275 928.373 212.945 930.207 212.945C931.341 212.945 932.307 213.435 932.797 214.247V209.866ZM930.389 219.3C931.719 219.3 932.769 218.32 932.769 216.655C932.769 215.003 931.719 213.953 930.389 213.967C928.989 213.981 928.023 215.017 928.023 216.655C928.023 218.32 929.003 219.3 930.389 219.3ZM942.593 216.445V216.948H936.91C936.938 218.516 937.96 219.328 939.233 219.328C940.185 219.328 940.983 218.866 941.333 217.942H942.509C942.103 219.356 940.885 220.294 939.205 220.294C937.12 220.294 935.734 218.824 935.734 216.613C935.734 214.401 937.12 212.945 939.191 212.945C941.235 212.945 942.593 214.345 942.593 216.445ZM939.191 213.883C938.002 213.883 937.064 214.611 936.924 216.095H941.417C941.333 214.625 940.381 213.883 939.191 213.883ZM943.854 220.168V218.558H945.477V220.168H943.854Z" fill="#DDDDDD"/>
<g clip-path="url(#clip0_1_2181)">
<path d="M801.745 276.789C798.713 276.789 796.268 279.196 796.268 282.18C796.268 285.164 798.713 287.571 801.745 287.571C804.776 287.571 807.221 285.164 807.221 282.18C807.221 279.196 804.776 276.789 801.745 276.789ZM801.745 285.685C799.786 285.685 798.184 284.113 798.184 282.18C798.184 280.247 799.781 278.675 801.745 278.675C803.708 278.675 805.305 280.247 805.305 282.18C805.305 284.113 803.703 285.685 801.745 285.685ZM808.722 276.569C808.722 277.268 808.15 277.826 807.445 277.826C806.735 277.826 806.168 277.263 806.168 276.569C806.168 275.874 806.74 275.311 807.445 275.311C808.15 275.311 808.722 275.874 808.722 276.569ZM812.35 277.845C812.269 276.161 811.878 274.669 810.624 273.439C809.375 272.21 807.86 271.825 806.149 271.741C804.385 271.642 799.099 271.642 797.336 271.741C795.629 271.821 794.114 272.205 792.86 273.435C791.607 274.664 791.22 276.156 791.135 277.84C791.035 279.576 791.035 284.78 791.135 286.515C791.216 288.2 791.607 289.692 792.86 290.921C794.114 292.15 795.625 292.535 797.336 292.62C799.099 292.718 804.385 292.718 806.149 292.62C807.86 292.54 809.375 292.155 810.624 290.921C811.873 289.692 812.264 288.2 812.35 286.515C812.45 284.78 812.45 279.581 812.35 277.845ZM810.071 288.378C809.7 289.298 808.98 290.006 808.041 290.377C806.635 290.926 803.298 290.799 801.745 290.799C800.191 290.799 796.85 290.921 795.448 290.377C794.514 290.011 793.794 289.302 793.418 288.378C792.86 286.994 792.989 283.71 792.989 282.18C792.989 280.651 792.865 277.362 793.418 275.982C793.79 275.063 794.509 274.354 795.448 273.984C796.854 273.435 800.191 273.561 801.745 273.561C803.298 273.561 806.64 273.439 808.041 273.984C808.975 274.35 809.695 275.058 810.071 275.982C810.629 277.366 810.5 280.651 810.5 282.18C810.5 283.71 810.629 286.999 810.071 288.378Z" fill="white"/>
</g>
<g clip-path="url(#clip1_1_2181)">
<path d="M743.863 291.525V278.019H739.285V291.525H743.863ZM741.575 276.174C743.171 276.174 744.165 275.137 744.165 273.84C744.135 272.515 743.171 271.507 741.605 271.507C740.039 271.507 739.015 272.515 739.015 273.84C739.015 275.137 740.008 276.174 741.545 276.174H741.574H741.575ZM746.397 291.525H750.975V283.983C750.975 283.579 751.005 283.176 751.125 282.887C751.456 282.081 752.21 281.245 753.474 281.245C755.131 281.245 755.794 282.484 755.794 284.3V291.525H760.371V283.781C760.371 279.632 758.113 277.702 755.101 277.702C752.631 277.702 751.547 279.056 750.944 279.977H750.975V278.019H746.397C746.457 279.286 746.397 291.525 746.397 291.525L746.397 291.525Z" fill="white"/>
</g>
<g clip-path="url(#clip2_1_2181)">
<path d="M708.32 275.117C707.42 275.496 706.466 275.746 705.489 275.856C706.507 275.275 707.288 274.355 707.656 273.258C706.689 273.805 705.63 274.191 704.527 274.398C703.627 273.485 702.347 272.915 700.929 272.915C698.207 272.915 696.001 275.017 696.001 277.61C696.001 277.978 696.044 278.337 696.128 278.68C692.032 278.484 688.401 276.615 685.97 273.775C685.546 274.468 685.303 275.275 685.303 276.135C685.303 277.764 686.173 279.201 687.495 280.043C686.712 280.02 685.947 279.818 685.263 279.456C685.262 279.475 685.262 279.495 685.262 279.515C685.262 281.79 686.961 283.687 689.216 284.119C688.49 284.307 687.729 284.334 686.99 284.199C687.617 286.065 689.437 287.422 691.594 287.46C689.907 288.719 687.782 289.47 685.473 289.47C685.075 289.47 684.683 289.448 684.298 289.404C686.479 290.736 689.069 291.514 691.852 291.514C700.918 291.514 705.875 284.359 705.875 278.155C705.875 277.951 705.87 277.749 705.861 277.547C706.825 276.883 707.658 276.06 708.32 275.117Z" fill="white"/>
</g>
<g clip-path="url(#clip3_1_2181)">
<path d="M641.307 291.525V282.758H638.922V279.601H641.307V276.905C641.307 274.786 642.715 272.841 645.961 272.841C647.276 272.841 648.248 272.963 648.248 272.963L648.171 275.911C648.171 275.911 647.18 275.902 646.098 275.902C644.928 275.902 644.74 276.426 644.74 277.296V279.601H648.264L648.111 282.758H644.74V291.525H641.307Z" fill="white"/>
</g>
<defs>
<clipPath id="clip0_1_2181">
<rect width="21.3531" height="24.0222" fill="white" transform="translate(791.064 270.173)"/>
</clipPath>
<clipPath id="clip1_1_2181">
<rect width="21.3531" height="20.0185" fill="white" transform="translate(739.015 271.507)"/>
</clipPath>
<clipPath id="clip2_1_2181">
<rect width="24.0223" height="18.684" fill="white" transform="translate(684.298 272.841)"/>
</clipPath>
<clipPath id="clip3_1_2181">
<rect width="9.34199" height="18.684" fill="white" transform="translate(638.922 272.841)"/>
</clipPath>
</defs>
</svg>
