<svg width="979" height="246" viewBox="0 0 979 246" fill="none" xmlns="http://www.w3.org/2000/svg">
<g opacity="0.6" filter="url(#filter0_f_1_2177)">
<rect x="51.5" y="51.834" width="875.967" height="142.632" fill="#43D46B"/>
</g>
<rect width="866.226" height="134.978" transform="translate(56.3704 53.2256)" fill="url(#paint0_linear_1_2177)"/>
<path d="M386.712 127.755C386.712 133.074 381.966 136.059 375.882 136.059C368.879 136.059 364.593 132.692 364.593 127.602H370.142C370.142 129.86 372.017 131.467 375.882 131.467C378.943 131.467 381.01 130.09 381.01 127.908C381.01 125.995 379.862 125.077 377.183 124.579L372.859 123.737C367.922 122.819 365.206 120.178 365.206 116.046C365.206 111.377 369.071 107.78 375.652 107.78C381.048 107.78 386.252 110.076 386.252 116.16H380.857C380.857 113.405 378.599 112.257 375.576 112.257C372.668 112.257 370.831 113.558 370.831 115.548C370.831 117.347 371.941 118.342 374.887 118.916L379.25 119.719C384.339 120.714 386.712 123.431 386.712 127.755ZM397.258 135.715C393.317 135.715 391.403 133.419 391.403 129.822V120.561H388.342V115.816H389.834C391.059 115.816 391.403 115.204 391.403 113.864V110.382H396.761V115.816H401.314V120.561H396.761V128.635C396.761 130.357 397.22 131.008 398.98 131.008H401.314V135.715H397.258ZM423.274 131.812H424.078V135.715H421.17C419.409 135.715 417.955 135.103 417.534 133.381C416.424 135.064 414.128 136.098 411.182 136.098C406.781 136.098 403.949 133.801 403.949 129.975C403.949 126.416 406.322 124.005 411.411 124.005H416.731V123.125C416.731 120.906 415.315 119.681 413.095 119.681C410.876 119.681 409.383 120.867 409.307 122.628H404.447C404.447 118.15 408.121 115.433 413.325 115.433C417.649 115.433 422.126 117.385 422.126 123.24V130.664C422.126 131.659 422.624 131.812 423.274 131.812ZM416.731 128.215V127.487H412.368C410.072 127.487 409.46 128.559 409.46 129.63C409.46 131.276 410.799 131.888 412.559 131.888C415.2 131.888 416.731 130.587 416.731 128.215ZM437.126 115.816H439.843V120.599H436.82C433.644 120.599 432.649 122.474 432.649 125.498V135.715H427.253V115.816H432.266L432.84 118.112C433.491 116.887 434.907 115.816 437.126 115.816ZM450.511 135.715C446.569 135.715 444.656 133.419 444.656 129.822V120.561H441.594V115.816H443.087C444.311 115.816 444.656 115.204 444.656 113.864V110.382H450.013V115.816H454.567V120.561H450.013V128.635C450.013 130.357 450.472 131.008 452.233 131.008H454.567V135.715H450.511ZM477.772 112.984V135.715H472.338V112.984H463.766V108.163H486.344V112.984H477.772ZM497.18 115.816H499.897V120.599H496.874C493.698 120.599 492.703 122.474 492.703 125.498V135.715H487.307V115.816H492.32L492.894 118.112C493.545 116.887 494.961 115.816 497.18 115.816ZM520.922 131.812H521.726V135.715H518.818C517.057 135.715 515.603 135.103 515.182 133.381C514.073 135.064 511.777 136.098 508.83 136.098C504.429 136.098 501.598 133.801 501.598 129.975C501.598 126.416 503.97 124.005 509.06 124.005H514.379V123.125C514.379 120.906 512.963 119.681 510.743 119.681C508.524 119.681 507.032 120.867 506.955 122.628H502.095C502.095 118.15 505.769 115.433 510.973 115.433C515.297 115.433 519.774 117.385 519.774 123.24V130.664C519.774 131.659 520.272 131.812 520.922 131.812ZM514.379 128.215V127.487H510.016C507.72 127.487 507.108 128.559 507.108 129.63C507.108 131.276 508.447 131.888 510.208 131.888C512.848 131.888 514.379 130.587 514.379 128.215ZM539.568 106.976H544.925V135.715H539.95L539.606 132.998C538.611 134.72 536.239 136.098 533.177 136.098C527.475 136.098 523.763 132.118 523.763 125.765C523.763 119.145 527.743 115.433 533.177 115.433C536.162 115.433 538.535 116.62 539.568 118.342V106.976ZM534.402 131.314C537.272 131.314 539.453 129.248 539.453 125.765C539.453 122.321 537.272 120.217 534.402 120.217C531.417 120.217 529.274 122.36 529.274 125.765C529.274 129.248 531.417 131.314 534.402 131.314ZM549.301 112.755V107.589H554.735V112.755H549.301ZM549.377 135.715V115.816H554.735V135.715H549.377ZM570.494 115.433C575.584 115.433 578.492 118.801 578.492 123.89V135.715H573.097V125C573.097 121.709 571.528 120.025 568.925 120.025C566.094 120.025 564.563 121.977 564.563 125.191V135.715H559.206V115.816H564.18L564.486 118.189C565.52 116.543 567.51 115.433 570.494 115.433ZM597.444 115.816H602.266V134.108C602.266 140.116 598.248 143.751 592.125 143.751C586.883 143.751 583.094 140.881 582.558 136.557H587.724C588.26 138.508 589.982 139.388 592.163 139.388C595.225 139.388 597.023 137.59 597.023 134.95V132.577C595.952 134.222 593.809 135.256 591.054 135.256C585.735 135.256 582.061 131.391 582.061 125.344C582.061 119.222 585.773 115.433 591.13 115.433C593.924 115.433 595.875 116.505 597.023 118.15L597.444 115.816ZM592.278 130.587C595.148 130.587 597.023 128.444 597.023 125.421C597.023 122.36 595.148 120.178 592.278 120.178C589.446 120.178 587.571 122.36 587.571 125.383C587.571 128.444 589.446 130.587 592.278 130.587ZM607.354 115.663V108.163H612.405V115.663C612.405 119.451 612.214 123.202 611.754 126.99H608.004C607.507 123.202 607.354 119.451 607.354 115.663ZM606.703 135.715V129.324H613.094V135.715H606.703Z" fill="black"/>
<defs>
<filter id="filter0_f_1_2177" x="0.0134544" y="0.347439" width="978.94" height="245.605" filterUnits="userSpaceOnUse" color-interpolation-filters="sRGB">
<feFlood flood-opacity="0" result="BackgroundImageFix"/>
<feBlend mode="normal" in="SourceGraphic" in2="BackgroundImageFix" result="shape"/>
<feGaussianBlur stdDeviation="25.7433" result="effect1_foregroundBlur_1_2177"/>
</filter>
<linearGradient id="paint0_linear_1_2177" x1="964.329" y1="-0.000182044" x2="-29.9179" y2="120.019" gradientUnits="userSpaceOnUse">
<stop offset="0.4375" stop-color="#D4F938"/>
<stop offset="1" stop-color="#32D875" stop-opacity="0.96"/>
</linearGradient>
</defs>
</svg>
